<!-- Generated by IcoMoon.io -->
<svg version="1.1" xmlns="http://www.w3.org/2000/svg" width="32" height="32" viewBox="0 0 32 32">
<title>lupa</title>
<path fill="#fff" d="M28.014 25.347l-6.876-6.876c0.962-1.445 1.536-3.221 1.536-5.131 0-5.158-4.181-9.339-9.339-9.339s-9.339 4.181-9.339 9.339c0 5.158 4.181 9.339 9.339 9.339 1.912 0 3.689-0.574 5.169-1.56l-0.034 0.021 6.876 6.875 2.668-2.668zM6.67 13.341c0.004-3.683 2.988-6.667 6.671-6.671h0c3.682 0.005 6.665 2.989 6.67 6.671v0c-0.005 3.682-2.988 6.665-6.669 6.67h-0c-3.682-0.004-6.666-2.988-6.671-6.669v-0z"></path>
</svg>
