<svg aria-hidden="true" style="position: absolute; width: 0; height: 0; overflow: hidden;" version="1.1" xmlns="http://www.w3.org/2000/svg" xmlns:xlink="http://www.w3.org/1999/xlink">
<defs>
<symbol id="icon-voz" viewBox="0 0 32 32">
<path d="M29.11 9.914c-0.244-0.349-0.643-0.574-1.096-0.575h-18.232l-1.54-3.696c-0.411-0.971-1.356-1.64-2.457-1.64-0.002 0-0.004 0-0.006 0h-3.113v2.668h3.113l6.328 15.189c0.207 0.485 0.679 0.819 1.23 0.819 0 0 0.001 0 0.001 0h10.673c0.568-0 1.054-0.355 1.247-0.855l0.003-0.009 4.002-10.672c0.053-0.139 0.084-0.299 0.084-0.467 0-0.285-0.089-0.549-0.242-0.765l0.003 0.004zM23.088 20.010h-8.858l-3.336-8.004h15.195l-3.001 8.004zM14.007 28.014c1.105 0 2.001-0.896 2.001-2.001s-0.896-2.001-2.001-2.001v0c-1.105 0-2.001 0.896-2.001 2.001s0.896 2.001 2.001 2.001v0zM23.346 28.014c1.105 0 2.001-0.896 2.001-2.001s-0.896-2.001-2.001-2.001v0c-1.105 0-2.001 0.896-2.001 2.001s0.896 2.001 2.001 2.001v0z"></path>
</symbol>
<symbol id="icon-lupa" viewBox="0 0 32 32">
<path d="M28.014 25.347l-6.876-6.876c0.962-1.445 1.536-3.221 1.536-5.131 0-5.158-4.181-9.339-9.339-9.339s-9.339 4.181-9.339 9.339c0 5.158 4.181 9.339 9.339 9.339 1.912 0 3.689-0.574 5.169-1.56l-0.034 0.021 6.876 6.875 2.668-2.668zM6.67 13.341c0.004-3.683 2.988-6.667 6.671-6.671h0c3.682 0.005 6.665 2.989 6.67 6.671v0c-0.005 3.682-2.988 6.665-6.669 6.67h-0c-3.682-0.004-6.666-2.988-6.671-6.669v-0z"></path>
</symbol>
</defs>
</svg>
