<!-- Generated by IcoMoon.io -->
<svg version="1.1" xmlns="http://www.w3.org/2000/svg" width="32" height="32" viewBox="0 0 32 32">
<title>voz</title>
<path fill="#fff" d="M29.11 9.914c-0.244-0.349-0.643-0.574-1.096-0.575h-18.232l-1.54-3.696c-0.411-0.971-1.356-1.64-2.457-1.64-0.002 0-0.004 0-0.006 0h-3.113v2.668h3.113l6.328 15.189c0.207 0.485 0.679 0.819 1.23 0.819 0 0 0.001 0 0.001 0h10.673c0.568-0 1.054-0.355 1.247-0.855l0.003-0.009 4.002-10.672c0.053-0.139 0.084-0.299 0.084-0.467 0-0.285-0.089-0.549-0.242-0.765l0.003 0.004zM23.088 20.010h-8.858l-3.336-8.004h15.195l-3.001 8.004zM14.007 28.014c1.105 0 2.001-0.896 2.001-2.001s-0.896-2.001-2.001-2.001v0c-1.105 0-2.001 0.896-2.001 2.001s0.896 2.001 2.001 2.001v0zM23.346 28.014c1.105 0 2.001-0.896 2.001-2.001s-0.896-2.001-2.001-2.001v0c-1.105 0-2.001 0.896-2.001 2.001s0.896 2.001 2.001 2.001v0z"></path>
</svg>
