<!-- Generated by IcoMoon.io -->
<svg version="1.1" xmlns="http://www.w3.org/2000/svg" width="32" height="32" viewBox="0 0 32 32">
<title>batida</title>
<path fill="#fff" d="M0 0h32v32h-32v-32z"></path>
<path fill="#000" d="M28.116 15.157c0.032 0.014 0.024 0.057 0.028 0.088-0.004 0.124 0.004 0.269 0 0.389-0.040 0.011-0.068-0.025-0.096-0.042-0.28-0.198-0.715-0.304-1.058-0.145-0.292 0.127-0.479 0.378-0.563 0.654-0.104 0.484 0.012 1.008 0.427 1.312 0.244 0.184 0.643 0.212 0.946 0.11 0.148-0.050 0.276-0.131 0.415-0.191 0.016 0.050-0.008 0.095-0.012 0.145-0.032 0.095-0.048 0.202-0.076 0.301-0.064 0.039-0.148 0.050-0.223 0.064-0.367 0.071-0.819 0.067-1.146-0.085-0.427-0.173-0.759-0.53-0.835-0.944-0.136-0.552 0.084-1.107 0.547-1.46 0.432-0.3 1.114-0.361 1.646-0.194zM18.666 16.361c0.010 0.068 0.019 0.139 0.024 0.211l-0.010 0.002c-0.103-0.043-0.222-0.069-0.347-0.072l-0.001-0-0.299 0.004c-0.012 0.002-0.022 0.008-0.025 0.019v0.431l0.020 0.015c0.123 0.004 0.274 0.010 0.395-0.006l0.11-0.027c0.010 0.002 0.007 0.018 0.007 0.020 0.007 0.073 0.005 0.16 0 0.236l-0.007 0.004c-0.147-0.054-0.326-0.035-0.495-0.035-0.015 0-0.027 0.008-0.030 0.018v0.502c0.007 0.017 0.030 0.018 0.049 0.023l0.103 0.012c0.225 0.021 0.451-0.014 0.64-0.093h0.005c-0.012 0.066-0.085 0.255-0.087 0.275 0 0-1.070 0.006-1.065 0 0.030-0.056 0.056-0.13 0.064-0.193v-0.95c-0.010-0.128 0.022-0.278-0.061-0.381 0-0.006-0.012-0.023-0.003-0.027 0.12-0.008 1-0.002 1-0.002l0.012 0.013zM7.784 15.205c-0.005 0.036-0.014 0.059-0.018 0.084l-0.099 0.343-0.008 0.007c-0.194-0.11-0.445-0.187-0.691-0.138 0 0.105 0.012 0.092 0 0.138v1.863c0.016 0.124 0.092 0.264 0.143 0.373h-0.737l0.008-0.019c0.067-0.135 0.085-0.28 0.097-0.431v-1.902l-0.038-0.025c-0.297-0.018-0.555 0.042-0.793 0.152 0.032-0.145 0.076-0.306 0.123-0.444l2.012-0zM8.615 15.203c-0.012 0.078-0.054 0.145-0.074 0.223v2.157c0.012 0.096 0.073 0.187 0.093 0.28-0.214 0-0.456 0.014-0.666-0.003 0.032-0.124 0.055-0.244 0.063-0.378v-1.973c-0.020-0.102-0.087-0.206-0.111-0.304h0.694zM31.523 16.278c-0.060-0.361-0.253-0.693-0.578-0.941-0.295-0.226-0.694-0.308-1.118-0.293-0.608 0.025-1.122 0.4-1.319 0.845-0.146 0.318-0.154 0.732-0.013 1.050 0.154 0.424 0.621 0.781 1.135 0.905 0.531 0.11 1.066-0.043 1.405-0.361 0.368-0.311 0.531-0.739 0.488-1.205zM30.791 17.155c-0.175 0.272-0.535 0.428-0.933 0.385-0.287-0.032-0.497-0.18-0.655-0.375-0.248-0.307-0.325-0.71-0.253-1.096 0.052-0.339 0.373-0.615 0.766-0.693s0.779 0.053 0.989 0.308l0.124 0.177c0.231 0.382 0.184 0.919-0.039 1.294zM22.299 15.157c0.032 0.014 0.024 0.057 0.028 0.088-0.004 0.124 0.004 0.269 0 0.389-0.040 0.011-0.068-0.025-0.096-0.042-0.28-0.198-0.715-0.304-1.058-0.145-0.292 0.127-0.479 0.378-0.563 0.654-0.104 0.484 0.012 1.008 0.427 1.312 0.244 0.184 0.643 0.212 0.946 0.11 0.148-0.050 0.275-0.131 0.415-0.191 0.016 0.050-0.008 0.095-0.012 0.145-0.032 0.095-0.048 0.202-0.076 0.301-0.064 0.039-0.148 0.050-0.223 0.064-0.367 0.071-0.819 0.067-1.146-0.085-0.427-0.173-0.759-0.53-0.835-0.944-0.136-0.552 0.084-1.107 0.547-1.46 0.431-0.3 1.114-0.361 1.645-0.194zM25.706 16.278c-0.060-0.361-0.253-0.693-0.578-0.941-0.295-0.226-0.694-0.308-1.118-0.293-0.608 0.025-1.122 0.4-1.319 0.845-0.146 0.318-0.154 0.732-0.013 1.050 0.154 0.424 0.621 0.781 1.135 0.905 0.531 0.11 1.066-0.043 1.405-0.361 0.368-0.311 0.531-0.739 0.488-1.205zM24.974 17.155c-0.175 0.272-0.535 0.428-0.933 0.385-0.287-0.032-0.497-0.18-0.655-0.375-0.248-0.307-0.326-0.71-0.253-1.096 0.052-0.339 0.373-0.615 0.766-0.693s0.779 0.053 0.989 0.308l0.124 0.177c0.231 0.382 0.184 0.919-0.039 1.294zM23.45 14.682l0.688-0.589 0.628 0.609c-0.236 0.020-0.609-0.216-0.609-0.216-0.118 0.098-0.353 0.216-0.707 0.196zM11.633 16.356c-0.012-0.406-0.266-0.742-0.618-0.965-0.155-0.102-0.345-0.148-0.543-0.17-0.476-0.018-0.955-0.007-1.427 0l-0.020 0.007c0.036 0.11 0.099 0.141 0.099 0.332v2.1c-0.020 0.071-0.071 0.134-0.079 0.202l1.173 0.007c0.242 0 0.464-0.025 0.662-0.116 0.567-0.255 0.785-0.827 0.753-1.397zM9.583 15.507c0.314-0.039 1.552-0.177 1.532 0.962s-0.864 1.238-1.513 1.12l-0.020-2.082zM1.942 16.352c0.255-0.138 0.373-0.231 0.373-0.648 0-0.304-0.501-0.482-0.767-0.482-0.476-0.018-0.586-0.007-1.058 0l-0.020 0.007c0.036 0.11 0.099 0.141 0.099 0.332v2.1c-0.020 0.071-0.071 0.134-0.079 0.202l1.173 0.007c0.435 0 0.927-0.289 0.927-0.752 0-0.452-0.256-0.58-0.648-0.766zM1.048 16.322l-0.020-0.815c0.196-0.020 0.835-0.088 0.805 0.334s-0.344 0.491-0.786 0.481zM1.048 17.569l-0.007-0.97c0.489-0.13 1.068 0.106 1.068 0.479 0 0.353-0.354 0.619-1.061 0.491zM17.488 17.020c-0.007-0.238-0.152-0.435-0.354-0.566-0.088-0.060-0.197-0.087-0.311-0.1-0.272-0.010-0.547-0.004-0.817 0l-0.011 0.004c0.020 0.064 0.057 0.083 0.057 0.195v1.232c-0.011 0.041-0.041 0.079-0.045 0.118l0.672 0.004c0.138 0 0.266-0.015 0.379-0.068 0.325-0.149 0.449-0.485 0.431-0.819zM16.315 16.522c0.18-0.023 0.888-0.103 0.877 0.564s-0.495 0.726-0.865 0.657l-0.011-1.221zM13.884 17.864h0.844s-0.156-0.059-0.313-0.334c-0.157-0.275-0.944-2.337-0.944-2.337h-0.668c0.156 0.098 0.119 0.098 0.060 0.275s-0.648 1.65-0.786 1.945c-0.137 0.295-0.137 0.393-0.315 0.452h0.727c-0.157-0.079-0.176-0.137-0.117-0.275 0.022-0.051 0.134-0.341 0.267-0.687h1.070c0.152 0.37 0.283 0.687 0.313 0.746 0.079 0.157-0.137 0.216-0.137 0.216zM12.775 16.548c0.194-0.505 0.383-1.002 0.383-1.002s0.199 0.493 0.407 1.002h-0.79zM4.909 17.864h0.843s-0.156-0.059-0.313-0.334c-0.157-0.275-0.944-2.337-0.944-2.337h-0.668c0.156 0.098 0.119 0.098 0.060 0.275s-0.648 1.65-0.786 1.945c-0.137 0.295-0.137 0.393-0.315 0.452h0.727c-0.157-0.079-0.175-0.137-0.117-0.275 0.022-0.051 0.134-0.341 0.267-0.687h1.070c0.152 0.37 0.283 0.687 0.313 0.746 0.079 0.157-0.137 0.216-0.137 0.216zM3.799 16.548c0.193-0.505 0.383-1.002 0.383-1.002s0.199 0.493 0.407 1.002h-0.79z"></path>
</svg>
