<!-- Generated by IcoMoon.io -->
<svg version="1.1" xmlns="http://www.w3.org/2000/svg" width="98" height="32" viewBox="0 0 98 32">
<title>coca-cola</title>
<path fill="#e61a27" d="M37.51 27.909c-3.635-2.341-8.567-2.752-16.522-0.545-8.481 1.993-11.308 3.27-15.022 0.706-1.427-1.26-1.938-3.288-1.556-6.21 0.886-4.763 3.28-9.347 7.532-14.431 2.373-2.645 4.575-4.915 7.482-5.826 2.228-0.572 2.020 1.179 1.75 1.43-0.285 0-0.762 0.045-1.132 0.286-0.3 0.232-1.123 0.983-1.167 1.993-0.064 1.546 1.536 1.224 2.226 0.375 0.744-0.956 1.843-2.788 0.978-4.495-0.362-0.608-0.989-1.027-1.766-1.17-2.662-0.152-5.141 1.117-7.429 2.52-5.004 3.476-9.007 8.293-11.272 13.565-1.306 3.181-2.487 7.738-0.717 11.447 1.369 2.573 4.212 3.94 7.604 3.654 2.379-0.25 5.255-1.019 7.19-1.483s11.838-3.869 15.092 2.056c0 0 1.082-2.101 3.786-2.145 2.223-0.205 5.431 0.644 7.766 2.359-0.778-1.17-2.984-2.895-4.825-4.084z"></path>
<path fill="#e61a27" d="M21.998 8.027c-1.852-1.215-5.575 1.108-8.557 5.093-2.727 3.575-3.904 7.729-2.623 9.651 1.906 2.261 5.445-1.028 6.949-2.788l0.194-0.206c1.023-1.099 1.814-2.422 2.579-3.691 0 0 0.703-1.162 0.737-1.215 0.435-0.080 0.958-0.205 1.548-0.375-0.008 0.027-2.257 3.807-2.028 5.683 0.071 0.572 0.017 2.663 2.058 3.298 2.721 0.456 4.894-1.653 6.81-3.53 0 0 0.327-0.312 0.511-0.491-0.047 0.187-0.108 0.437-0.108 0.437-0.797 2.77 0.277 3.352 0.949 3.566 2.030 0.59 4.455-2.359 4.463-2.359-0.063 0.929-0.247 1.697 0.732 2.314 0.924 0.331 1.86-0.174 2.571-0.647 2.561-1.805 4.624-4.63 6.291-7.072h-1.063c-0.013 0-2.623 3.784-4.318 4.606-0.003 0-0.311 0.158-0.489 0.033-0.22-0.188-0.133-0.578 0.003-0.854 0.009-0.018 6.545-11.355 6.545-11.355h-3.086s-0.337 0.545-0.365 0.581c-0.021-0.018-0.070-0.112-0.104-0.157-1.912-2.645-6.242 1.423-9.502 6.141-1.255 1.814-2.853 3.857-4.51 5.331 0 0-2.455 2.25-3.503 0.633-0.383-0.679-0.265-1.672-0.049-2.324 1.221-3.476 3.325-6.631 5.72-8.534 0.676-0.527 1.411-0.679 1.775-0.456 0.347 0.206 0.404 0.715 0.184 1.063-0.558-0.018-1.005 0.152-1.368 0.527-0.715 0.751-0.964 1.475-0.737 2.154 1.105 1.573 3.309-1.537 3.203-3.431-0.038-0.679-0.4-1.322-0.941-1.636-0.806-0.482-2.036-0.357-2.831 0.027-1.065 0.402-2.751 1.805-3.736 2.895-1.239 1.367-3.364 2.886-4.029 2.716 0.217-0.581 2.012-4.253 0.124-5.629zM36.877 13.46c0.6-0.831 2.348-3.056 2.774-3.431 1.433-1.26 2.005-0.706 2.055-0.313-1.337 2.395-2.915 5.138-4.399 7.605 0.003-0.009-0.464 0.706-0.464 0.706-0.655 1-1.315 1.858-2.391 2.457-0.153 0.045-0.406 0.063-0.575-0.063-0.203-0.134-0.283-0.358-0.26-0.59 0.065-0.768 0.847-3.118 3.261-6.371zM20.087 14.898s-0.027 0.081-0.040 0.107c-0.003 0-1.346 2.189-1.346 2.189-0.81 1.081-1.821 2.44-3.086 3.092-0.375 0.125-0.893 0.206-1.157-0.125-0.56-0.67-0.271-1.6-0.037-2.35l0.083-0.268c0.672-1.823 1.738-3.431 2.775-4.924 0.013-0.009 0.042-0.018 0.052-0.018 0.003 0.009 0.007 0.009 0.008 0.027 0.651 1.251 1.872 1.831 2.785 2.1 0.006 0 0.011 0.009 0.011 0.027 0 0.027-0.015 0.063-0.050 0.143zM21.359 12.316c-0.006 0.018-0.598 1.376-0.598 1.376-0.086 0.071-0.221 0.036-0.376 0l-0.266-0.045c-0.834-0.259-1.464-0.813-1.658-1.474-0.268-1.287 0.832-2.297 1.316-2.663 0.465-0.322 1.187-0.492 1.607-0.161 0.259 0.304 0.357 0.697 0.357 1.126 0 0.581-0.179 1.233-0.382 1.841zM60.375 16.462c-0.298-0.643-1.004-1.054-1.757-1.010-2.445 0.224-4.836 2.234-6.092 5.12-0.659 1.484-1.018 2.708-1.254 4.656 0.76-0.875 2.311-2.314 4.071-3.101 0 0 0.239-1.868 1.46-3.53 0.462-0.688 1.387-1.796 2.425-1.501 0.907 0.304 0.588 2.815-0.617 5.245-0.892 1.787-2.257 3.575-3.638 4.808-1.221 1.037-3.028 2.288-4.609 1.323-0.996-0.59-1.503-1.823-1.396-3.414 0.476-4.512 2.53-8.355 5.469-12.733 3.031-4.066 6.372-8.239 10.873-10.464 0.918-0.465 1.768-0.572 2.503-0.286 0 0-4.225 2.323-6.239 6.622-0.512 1.090-1.225 2.564-0.507 3.869 0.375 0.679 1.041 0.733 1.577 0.697 2.469-0.572 4.064-2.877 5.367-4.986 0.756-1.599 1.427-3.19 1.427-4.959 0-0.214-0.011-0.5-0.029-0.715 1.179-0.625 3.598 0.483 3.598 0.483 1.89 0.626 5.914 3.709 7.272 4.298 0.662-0.768 1.75-1.93 2.363-2.511l-0.887-0.545c-1.42-0.867-2.921-1.689-4.398-2.502-3.355-1.832-6.086-1.188-7.476-0.688-0.546 0.196-1.045 0.366-1.045 0.366-1.031-1.126-2.723-1.019-3.97-0.715-4.483 1.287-8.645 4.423-13.107 9.865-3.281 4.263-5.316 7.944-6.4 11.581-0.836 2.448-1.090 6.049 0.95 8.185 1.735 1.814 4.035 1.421 5.66 0.769 3.52-1.734 6.683-5.469 8.26-9.767 0.38-1.278 0.803-3.083 0.148-4.459zM68.469 2.996c-0.466 5.344-4.62 8.48-5.648 8.73-0.623 0.125-1.686-0.152-0.737-2.394 1.397-3.021 3.783-5.585 6.342-6.899 0.062 0.223 0.061 0.366 0.043 0.563zM93.108 3.675c-2.234 1.269-4.551 2.091-7.354 1.805-0.777 0.876-1.534 1.778-2.231 2.708 3.935 1.001 8.107-1.224 10.434-3.342 2.461-2.136 3.723-4.825 3.723-4.825s-1.845 2.109-4.572 3.654zM50.883 8.125h-2.931l-1.653 2.686h2.93z"></path>
<path fill="#e61a27" d="M85.742 28.157c-0.315 0.214-0.758 0.050-0.592-0.442 0.412-1.251 2.052-3.8 2.052-3.8l4.566-8.098h-3.128c-0.149 0.244-0.467 0.805-0.467 0.805-0.145-0.241-0.577-0.777-0.756-0.893-0.764-0.483-1.885-0.255-2.659 0.183-3.362 1.966-5.816 5.851-7.751 8.88 0 0-2.037 3.368-3.167 3.618-0.883 0.072-0.792-1.117-0.753-1.395 0.341-2.002 1.134-3.905 1.932-5.63 1.624-1.126 3.478-2.6 5.162-4.218 3.655-3.494 6.737-7.453 7.188-8.338 0 0-0.488 0.098-1.063 0.116-2.812 3.923-8.567 9.624-10.312 10.473 0.773-1.859 5.767-10.732 10.016-14.977l0.669-0.644c1.034-1.010 2.105-2.046 2.94-2.216 0.088-0.009 0.202 0 0.3 0.206 0.037 0.786-0.255 1.367-0.591 2.028l-0.471 0.965s0.667-0.125 1.104-0.269c0.508-0.956 1.070-2.028 0.863-3.306-0.069-0.411-0.367-0.724-0.756-0.795-1.268-0.241-2.649 0.697-3.761 1.457l-0.045 0.027c-5.715 4.477-10.54 10.929-14.759 19.74-0.306 0.232-1.487 0.509-1.688 0.375 0.417-0.858 0.941-2.011 1.204-3.262 0.045-0.358 0.088-0.724 0.088-1.081 0-0.769-0.185-1.493-0.874-1.993-0.808-0.402-1.806-0.214-2.48 0.089-3.016 1.251-5.269 4.343-6.896 6.889-0.875 1.618-1.747 3.351-1.988 5.335-0.17 1.555 0.176 2.556 1.060 3.056 0.909 0.464 2.053-0.018 2.502-0.25 3.055-1.609 5.19-4.834 6.872-7.783 0.067-0.009 0.986-0.035 1.681-0.214 0.009 0 0.013 0 0.028 0.009-0.040 0.134-0.399 1.206-0.399 1.206-1.066 3.127-1.56 5.254-0.552 6.514 1.439 1.778 3.823-0.062 5.761-2.493-0.416 2.913 1.094 3.369 2.244 3.146 1.322-0.357 2.795-1.769 3.479-2.493-0.22 0.849-0.16 2.368 1.043 2.52 0.824 0.152 1.441-0.296 2.155-0.68 2.56-1.394 5.625-6.040 6.421-7.383h-1.043c-1.131 1.71-2.571 3.951-4.381 5.015zM62.761 27.846c-0.162-0.241-0.216-0.505-0.222-0.79-0.031-1.752 1.854-4.89 3.185-6.599h0.003c0.558 1.221 1.82 2.006 2.583 2.337-0.947 2.109-4.194 6.626-5.548 5.053zM68.843 21.85c-0.090 0.063-1.682-0.474-1.99-1.948-0.261-1.269 0.613-2.261 1.459-2.761 0.363-0.286 0.91-0.384 1.311-0.242 0.372 0.251 0.473 0.698 0.473 1.18 0 0.295-0.039 0.599-0.074 0.876l-0.008 0.063c-0.294 1.077-0.694 2.018-1.202 2.889l0.030-0.057zM81.615 27.284c-0.001 0-0.302 0.268-0.302 0.268-0.43 0.384-0.872 0.795-1.405 0.59-0.147-0.053-0.251-0.25-0.276-0.402-0.024-1.099 0.471-2.118 0.951-3.109l0.123-0.259c1.381-2.305 2.986-5.022 5.343-6.907 0.397-0.287 0.828-0.527 1.283-0.34 0.105 0.098 0.227 0.268 0.227 0.438 0 0.054-0.048 0.197-0.075 0.241-0.658 1.064-1.285 2.181-1.895 3.253-1.191 2.118-2.427 4.307-3.973 6.228z"></path>
</svg>
