<!-- Generated by IcoMoon.io -->
<svg version="1.1" xmlns="http://www.w3.org/2000/svg" width="115" height="32" viewBox="0 0 115 32">
<title>fedex</title>
<path fill="#ff5a00" d="M114.729 27.839c0-1.778-1.261-3.081-2.998-3.081-1.734 0-2.997 1.302-2.997 3.081 0 1.776 1.263 3.076 2.997 3.076 1.737 0 2.999-1.302 2.999-3.076zM110.943 27.997v2.012h-0.65v-4.437h1.615c0.947 0 1.381 0.413 1.381 1.219 0 0.496-0.335 0.89-0.768 0.947v0.019c0.375 0.060 0.513 0.395 0.59 1.007 0.059 0.397 0.138 1.085 0.279 1.247h-0.769c-0.179-0.417-0.161-1.007-0.299-1.501-0.114-0.376-0.315-0.513-0.745-0.513h-0.631v0.002l-0.004-0.001zM111.749 27.423c0.631 0 0.812-0.336 0.812-0.633 0-0.351-0.18-0.628-0.812-0.628h-0.806v1.262h0.806v-0.001zM108.019 27.839c0-2.191 1.74-3.672 3.709-3.672 1.975 0 3.713 1.481 3.713 3.672 0 2.187-1.737 3.669-3.713 3.669-1.97 0-3.709-1.483-3.709-3.669zM95.164 30.868l-4.276-4.796-4.239 4.796h-8.919l8.717-9.793-8.717-9.796h9.198l4.32 4.759 4.156-4.759h8.876l-8.674 9.755 8.794 9.835zM60.603 30.868v-30.86h17.127v6.879h-9.872v4.392h9.872v6.619h-9.872v6.075h9.872v6.896z"></path>
<path fill="#29007c" d="M53.376 0.008v12.63h-0.080c-1.6-1.838-3.599-2.479-5.917-2.479-4.75 0-8.329 3.232-9.585 7.501-1.433-4.705-5.128-7.589-10.605-7.589-4.449 0-7.962 1.996-9.796 5.25v-4.043h-9.195v-4.39h10.036v-6.878h-18.233v30.859h8.197v-12.971h8.17c-0.238 0.905-0.374 1.944-0.374 3.015 0 0.013 0 0.025 0 0.038v-0.002c0 6.434 4.917 10.956 11.195 10.956 5.277 0 8.757-2.48 10.596-6.994h-7.025c-0.949 1.359-1.671 1.76-3.571 1.76-2.202 0-4.102-1.922-4.102-4.198h14.304c0.62 5.112 4.603 9.519 10.069 9.519 2.358 0 4.517-1.159 5.836-3.118h0.079v1.999h7.227v-30.863l-7.226-0.001zM23.313 17.99c0.457-1.961 1.977-3.242 3.874-3.242 2.089 0 3.532 1.242 3.911 3.242h-7.786zM48.99 26.172c-2.663 0-4.318-2.481-4.318-5.073 0-2.77 1.44-5.432 4.318-5.432 2.986 0 4.176 2.663 4.176 5.432 0 2.625-1.26 5.073-4.176 5.073z"></path>
</svg>
