<!-- Generated by IcoMoon.io -->
<svg version="1.1" xmlns="http://www.w3.org/2000/svg" width="83" height="32" viewBox="0 0 83 32">
<title>fine</title>
<path fill="#000" d="M21.723 24.503v-0.653c0-1.247 0.022-1.971 0.022-2.138 0-2.266-0.802-3.42-2.596-3.42-0.704 0-1.721 0.453-2.534 1.037-0.506 0.374-0.76 0.719-0.76 1.28 0 0.396 0.097 0.522 0.381 0.876 0.447-0.253 0.524-0.372 0.998-0.599-0.165-0.291-0.24-0.487-0.24-0.798 0-0.666 0.811-1.157 1.597-1.157 1.262 0 1.85 1.056 1.85 2.948v0.395c-3.462 1.055-5.043 1.617-5.043 3.204 0 1.32 0.994 2.244 2.4 2.244 0.904 0 1.679-0.622 2.63-1.346 0.061 0.414 0.153 0.985 0.439 1.317 0.718-0.31 1.498-0.591 2.297-0.924v-0.534c-0.327 0.184-0.594 0.286-0.82 0.286-0.514 0.001-0.62-0.571-0.62-2.018zM30.047 20.129v-1.809c-0.391-0.124-1.023-0.147-1.298-0.147-0.796 0-1.602 0.825-2.501 2.236 0-0.897-0.033-1.817-0.133-2.256-0.82 0.533-2.015 1.068-2.895 1.437l0.139 0.379c0.313-0.147 0.662-0.28 0.798-0.28 0.567 0 0.704 0.522 0.704 1.717v3.881c0 1.588-0.097 1.695-1.399 1.695v0.511c0.949-0.041 1.613-0.061 2.121-0.061s1.171 0.020 2.032 0.061v-0.511h-0.195c-1.093 0-1.114-0.335-1.114-1.423v-4.232c0-0.459 0.885-2.016 2.262-2.016 0.738 0 1.161 0.378 1.298 0.819h0.18zM38.449 24.868v-13.628c-1.045 0.559-1.942 1.023-3.090 1.463v0.519c0.503-0.271 0.795-0.376 1.086-0.376 0.416 0 0.623 0.358 0.623 1.076v4.947c-0.92-0.384-1.797-0.677-2.571-0.677-2.575 0-4.774 1.966-4.774 5.024 0 2.741 1.57 4.517 4.015 4.517 1.276 0 2.411-0.507 3.371-1.332 0.102 0.534 0.118 1.041 0.301 1.452 0.924-0.452 1.658-0.871 2.615-1.166v-0.491c-0.332 0.169-0.468 0.259-0.738 0.259-0.583 0-0.838-0.576-0.838-1.588z"></path>
<path fill="#000" d="M43.812 18.207c-2.368 0-4.276 1.921-4.276 4.807 0 2.852 1.926 4.748 4.553 4.748 1.294 0 2.423-0.351 3.252-1.058v-0.47c-0.789 0.586-1.56 0.879-2.496 0.879-2.486 0-3.782-2.090-3.863-5.11h6.497c0-0.121 0.020-0.072 0.020-0.192 0.001-2.25-1.381-3.605-3.688-3.605zM72.646 27.055c-1.636 0-1.593-0.377-1.593-1.796v-3.241c0-2.52-1.138-3.606-2.957-3.606-0.838 0-2.181 0.537-3.176 1.676 0-0.668 0.049-1.423-0.038-1.995-0.873 0.558-2.018 1.056-2.953 1.437l0.16 0.379c0.333-0.148 0.634-0.22 0.778-0.22 0.604 0 0.796 0.534 0.796 1.74v3.766c0 1.335-0.152 1.804-1.249 1.854-1.373 0-1.583-0.349-1.583-1.787v-7.265l-0.019-0.037c-0.778 0.474-2.22 1.136-3.047 1.41l0.172 0.399c0.287-0.128 0.681-0.266 0.879-0.266 0.432 0 0.641 0.384 0.641 1.146v4.781c0 1.161-0.161 1.624-1.386 1.625h-0.004c-1.327 0-1.29-0.469-1.29-1.797v-3.24c0-2.52-1.138-3.606-2.957-3.606-0.838 0-2.181 0.537-3.176 1.676 0-0.668 0.049-1.423-0.037-1.995-0.873 0.558-2.018 1.056-2.953 1.437l0.16 0.379c0.333-0.148 0.634-0.22 0.778-0.22 0.604 0 0.796 0.534 0.796 1.74v3.766c0 1.417-0.17 1.86-1.46 1.86v0.439c0.619-0.033 1.367-0.056 2.119-0.062l0.022-0c0.415 0 0.93 0.020 1.883 0.063v-0.439h-0.103c-1.119 0-1.141-0.419-1.141-1.52v-4.935c0.871-0.805 1.727-1.249 2.515-1.249 1.537 0 2.256 0.847 2.256 2.499v3.579c0 1.165-0.093 1.626-1.15 1.626h-0.19v0.439c0.61-0.034 1.345-0.056 2.084-0.062l0.021-0c0.406 0 1.036 0.023 1.8 0.056-0.011 0-0.023 0 0 0 0.020 0 0.010 0 0 0 0.597-0.027 1.338-0.048 2.082-0.056l0.039-0c0.521 0 1.307 0.023 2.145 0.058-0.009 0-0.018 0.001 0 0 0.018 0.001 0.009 0 0 0 0.83-0.035 1.576-0.058 2.036-0.058 0.416 0 0.93 0.020 1.883 0.063v-0.439h-0.103c-1.119 0-1.141-0.419-1.141-1.52v-4.935c0.871-0.805 1.727-1.249 2.515-1.249 1.537 0 2.256 0.847 2.256 2.499v3.579c0 1.165-0.093 1.626-1.15 1.626h-0.186v0.439c0.61-0.034 1.345-0.056 2.084-0.062l0.021-0c0.451 0 1.012 0.020 2.126 0.063v-0.439zM60.107 16.999c0.505 0 0.916-0.393 0.916-0.901s-0.411-0.918-0.916-0.918c-0.496 0.004-0.897 0.407-0.897 0.903 0 0.005 0 0.011 0 0.016v-0.001c0 0.488 0.411 0.901 0.897 0.901z"></path>
<path fill="#000" d="M77.011 26.456c-1.058-0.1-3.154 0.020-3.154-0.858 0-0.545 0.91-1.114 1.309-1.337 0.276 0.058 0.558 0.086 0.839 0.086 1.703 0 3.22-1.091 3.22-2.901 0-0.8-0.276-1.496-0.765-2.022h1.856l0.479-0.666h-3.243c-0.52-0.252-1.131-0.399-1.776-0.399-0.022 0-0.045 0-0.067 0.001l0.003-0c-0.958 0-3.14 0.825-3.14 2.847 0 1.535 0.924 2.503 2.086 2.913-0.367 0.19-1.94 1.064-1.94 2.017 0 0.71 0.618 1.082 1.529 1.275-0.612 0.124-2.248 0.597-2.248 2.138 0 1.756 2.096 2.455 4.212 2.455s4.172-0.639 4.172-2.953-2.315-2.495-3.372-2.594zM16.872-0.005c-0.386 0-1.783 0.226-2.901 1.584s-1.611 2.953-1.93 4.458c-0.042 0.204-0.092 0.462-0.146 0.758h-1.46l-0.24 0.599h1.595c-0.316 1.832-0.714 4.465-0.884 5.263-0.871-0.166-1.872-0.26-2.896-0.261h-0c-4.831 0-8.011 3.259-8.011 7.487 0 4.628 3.459 7.79 8.25 7.79 1.722 0 3.551-0.434 5.447-1.277v-3.813c0-0.944 0.384-1.216 1.404-1.216h0.125v-0.599c-0.957 0.020-1.768 0.061-2.393 0.061s-1.394-0.042-2.35-0.061v0.599h0.105c1.185 0 1.481 0.377 1.481 1.51v3.217c-1.005 0.566-2.23 0.839-3.394 0.839-3.868 0-7.009-3.146-7.009-7.235 0-3.844 2.746-6.634 6.489-6.634 0.939 0 1.833 0.142 2.601 0.414-0.091 0.436-0.404 1.937-0.574 2.66-0.202 0.851-0.973 3.579-2.517 3.579-0.010 0.001-0.021 0.001-0.032 0.001-0.284 0-0.52-0.206-0.566-0.477l-0-0.003h-0.226l-0.213 1.371s0.172 0.066 0.332 0.066 1.783-0.054 3.38-2.808c0.296-0.511 1.022-1.988 1.492-3.864 0.797 0.522 1.313 1.254 1.368 2.174h0.452c-0.022-0.589-0.022-0.816-0.022-0.985 0-0.252 0-1.009 0.022-1.85-0.525-0.161-1.047-0.309-1.579-0.438 0.328-1.616 0.742-3.821 1.026-5.51h2.375l0.16-0.599h-2.436c0.059-0.365 0.109-0.694 0.148-0.972 0.24-1.717 0.811-3.779 1.491-4.525 0.577-0.634 1.051-0.705 1.331-0.705s0.759 0.093 0.718 1.051h0.172l0.399-1.57c0.004 0-0.197-0.079-0.582-0.079z"></path>
<path fill="#000" d="M15.136 9.15l-0.21-0.23s0.798-1.078 1.487-1.587 1.068-0.609 1.377-0.609 0.908 0.299 0.659 1.557-1.357 5.389-1.458 5.769-0.17 1.157 0.469 1.157 1.607-1.217 1.686-1.288l0.22 0.199s-1.184 1.364-1.976 1.827c-0.718 0.419-0.869 0.409-1.088 0.409-0.549 0-1.012-0.59-0.699-1.846 0.11-0.439 1.408-5.508 1.477-5.828s0.040-0.819-0.369-0.819-0.717 0.39-1.575 1.288zM19.487 9.48l-0.189-0.17s0.659-1.118 1.357-1.756 1.088-0.678 1.288-0.678 0.918 0.17 0.728 1.756-0.709 3.862-0.709 3.862 1.547-2.665 2.285-3.573 1.799-2.103 2.764-2.036c0.439 0.029 0.788 0.24 1.018 0.639s0.13 1.128 0 1.746-1.178 4.84-1.178 4.84c-0.16 0.639-0.029 0.938 0.12 1.078s0.369 0.349 0.848-0.010 0.759-0.559 1.128-1.097l0.24 0.199s-0.958 1.228-1.686 1.696-0.938 0.529-1.357 0.529-0.948-0.459-0.529-2.236 1.168-4.91 1.168-4.91c0.13-0.599 0.070-1.008-0.18-1.188s-0.699-0.539-1.995 1.018-2.675 4.241-2.904 5.031-0.539 2.136-0.539 2.136l-1.248 0.28 1.377-7.186c0.12-0.718 0.079-1.128-0.319-1.248s-1.049 0.6-1.488 1.279zM36.94 8.777c0-1.518-0.958-1.929-1.744-1.929-3.034 0-5.415 4.139-5.415 6.653 0 0.944 0.519 2.98 2.476 2.98 2.449 0 3.793-2.568 3.793-2.568l-0.281-0.199c-0.677 0.867-1.464 2.076-2.847 2.076s-1.756-1.078-1.756-2.368c0-0.58 0.072-1.15 0.194-1.696 3.828 0.149 5.581-1.456 5.581-2.948zM18.728 3.242c0.559 0 0.858 0.618 0.618 1.257s-0.639 0.938-1.217 0.938-0.718-0.758-0.579-1.137 0.559-1.058 1.178-1.058zM81.569 19.636c0.080 0.151 0.197 0.268 0.349 0.353 0.136 0.079 0.299 0.125 0.473 0.125 0.148 0 0.287-0.033 0.412-0.093l-0.006 0.002c0.1-0.050 0.185-0.111 0.259-0.184l-0 0c0.080-0.081 0.146-0.177 0.194-0.283l0.002-0.006c0.051-0.112 0.081-0.242 0.081-0.38 0-0.212-0.071-0.407-0.19-0.564l0.002 0.002c-0.116-0.15-0.271-0.264-0.45-0.327l-0.007-0.002c-0.089-0.031-0.192-0.050-0.299-0.050-0.153 0-0.297 0.037-0.424 0.103l0.005-0.002c-0.2 0.098-0.355 0.261-0.44 0.462l-0.002 0.006c-0.050 0.111-0.079 0.241-0.079 0.378 0 0.169 0.044 0.328 0.122 0.465l-0.002-0.005z"></path>
<path fill="#fff" d="M18.472 26.794c-0.881 0-1.739-0.696-1.739-1.616 0-1.295 1.452-1.726 3.685-2.455v0.802c0 0.368 0 1.145 0.020 2.31-0.614 0.632-1.251 0.959-1.967 0.959zM37.069 25.747c-0.857 0.654-1.676 1.068-2.492 1.068-1.86 0-3.513-1.806-3.513-4.274 0-2.278 1.552-3.753 3.287-3.753 1.025 0 1.861 0.46 2.717 1.242v5.718zM46.034 21.51h-5.010c0.020-1.633 1.295-2.778 2.55-2.778 1.392 0 2.46 1.104 2.46 2.633v0.146zM75.785 18.739c1.299 0 2.17 1.115 2.17 2.694 0 1.58-0.936 2.532-1.99 2.532-1.051 0-2.121-0.906-2.121-2.741 0.001-1.765 0.912-2.485 1.94-2.485zM76.173 31.626c-1.937 0-3.194-0.798-3.194-2.115s1.417-1.896 2.874-1.916c1.717 0.079 3.553 0.439 3.553 1.896s-1.297 2.136-3.233 2.136zM34.837 7.22c0.666 0 1.032 0.613 0.998 1.171-0.118 1.966-1.837 3.028-4.368 2.906 0.653-2.306 2.225-4.078 3.37-4.078zM81.674 18.758c0.142-0.256 0.411-0.427 0.72-0.427 0.092 0 0.18 0.015 0.262 0.043l-0.006-0.002c0.083 0.028 0.158 0.068 0.224 0.118s0.124 0.11 0.176 0.179 0.092 0.148 0.12 0.235c0.027 0.080 0.042 0.172 0.042 0.268 0 0.123-0.025 0.24-0.071 0.346l0.002-0.006c-0.081 0.185-0.221 0.331-0.395 0.419l-0.005 0.002c-0.103 0.051-0.225 0.082-0.354 0.082-0.152 0-0.295-0.042-0.416-0.116l0.004 0.002c-0.13-0.074-0.234-0.182-0.302-0.311l-0.002-0.004c-0.066-0.119-0.104-0.262-0.104-0.413s0.039-0.295 0.108-0.42l-0.002 0.004z"></path>
<path fill="#000" d="M82.348 19.651v-0.040c-0.004 0-0.008 0-0.013 0-0.022 0-0.044-0.002-0.064-0.006l0.002 0c-0.014-0.004-0.024-0.012-0.029-0.023-0.005-0.020-0.008-0.042-0.008-0.065 0-0.006 0-0.012 0.001-0.019l-0 0.001v-0.324h0.058c0.041 0 0.072 0.004 0.091 0.013 0.023 0.011 0.042 0.026 0.056 0.046l0 0c0.018 0.023 0.038 0.064 0.063 0.124 0.046 0.114 0.080 0.189 0.105 0.227 0.013 0.023 0.032 0.040 0.055 0.051l0.001 0c0.028 0.010 0.059 0.016 0.093 0.016 0.005 0 0.010-0 0.014-0l-0.001 0h0.115v-0.040c-0.021-0.001-0.041-0.005-0.060-0.013l0.001 0c-0.019-0.012-0.035-0.027-0.047-0.044l-0-0c-0.024-0.038-0.047-0.084-0.068-0.131l-0.003-0.008c-0.032-0.072-0.059-0.124-0.079-0.156s-0.045-0.059-0.070-0.078c-0.021-0.014-0.046-0.025-0.072-0.032l-0.002-0c0.1-0.017 0.174-0.050 0.22-0.1s0.070-0.106 0.070-0.172c0-0.046-0.013-0.089-0.036-0.13s-0.064-0.072-0.119-0.092-0.134-0.032-0.24-0.032h-0.439v0.040c0.050 0 0.078 0.003 0.087 0.005 0.014 0.004 0.024 0.010 0.029 0.023 0.005 0.012 0.009 0.038 0.009 0.083v0.727c0.001 0.005 0.001 0.012 0.001 0.018 0 0.023-0.004 0.045-0.010 0.065l0-0.002c-0.005 0.010-0.012 0.017-0.021 0.022l-0 0c-0.022 0.004-0.047 0.007-0.073 0.007-0.008 0-0.015-0-0.022-0.001l0.001 0v0.040h0.409z"></path>
<path fill="#fff" d="M82.236 18.767c0-0.035 0.001-0.056 0.005-0.065s0.009-0.017 0.014-0.022 0.020-0.008 0.046-0.008h0.043c0.092 0 0.157 0.019 0.197 0.058s0.060 0.093 0.060 0.166c0 0.072-0.024 0.128-0.072 0.166-0.047 0.040-0.125 0.059-0.235 0.059h-0.058v-0.354z"></path>
</svg>
