<!-- Generated by IcoMoon.io -->
<svg version="1.1" xmlns="http://www.w3.org/2000/svg" width="32" height="32" viewBox="0 0 32 32">
<title>git</title>
<path fill="#de4c36" d="M31.396 14.574l-13.972-13.971c-0.804-0.805-2.109-0.805-2.914 0l-2.901 2.901 3.68 3.68c0.855-0.289 1.836-0.095 2.518 0.587 0.685 0.686 0.878 1.675 0.581 2.533l3.547 3.547c0.858-0.296 1.848-0.104 2.534 0.582 0.958 0.957 0.958 2.509 0 3.467s-2.51 0.958-3.469 0c-0.721-0.721-0.898-1.779-0.534-2.667l-3.308-3.308-0 8.705c0.25 0.125 0.464 0.28 0.649 0.464l-0-0c0.958 0.957 0.958 2.509 0 3.468-0.958 0.958-2.511 0.958-3.467 0-0.958-0.959-0.958-2.511 0-3.468 0.224-0.224 0.49-0.405 0.786-0.529l0.016-0.006v-8.786c-0.313-0.13-0.579-0.311-0.803-0.535l-0-0c-0.726-0.725-0.9-1.79-0.528-2.681l-3.628-3.628-9.58 9.579c-0.805 0.805-0.805 2.111 0 2.915l13.972 13.971c0.804 0.805 2.109 0.805 2.914 0l13.906-13.906c0.805-0.805 0.805-2.111 0-2.915z"></path>
</svg>
