<!-- Generated by IcoMoon.io -->
<svg version="1.1" xmlns="http://www.w3.org/2000/svg" width="123" height="32" viewBox="0 0 123 32">
<title>gopro</title>
<path fill="#000" d="M25.613 12.577c0 1.514-0.938 2.639-2.815 3.378-1.457 0.576-3.234 0.866-5.332 0.866h-8.602c-2.256 0-4.149-0.263-5.688-0.781-2.115-0.711-3.176-1.845-3.176-3.407v-8.35c0-1.5 1.078-2.608 3.24-3.327 1.707-0.538 3.589-0.809 5.653-0.809h3.415c0.921 0 1.381 0.411 1.381 1.234 0 0.827-0.46 1.243-1.381 1.243h-1.043c-0.099 0-0.157-0.004-0.169-0.014-0.262-0.009-0.495-0.012-0.699-0.017s-0.373-0.010-0.495-0.010c-4.074 0-6.114 0.565-6.114 1.695v8.343c0 1.131 1.708 1.697 5.123 1.697h8.56c0.816 0 1.69-0.121 2.611-0.369 1.159-0.312 1.742-0.729 1.742-1.261v-1.775h-5.322c-0.702 0-1.277-0.6-1.277-1.335 0-0.736 0.575-1.337 1.277-1.337h6.401c0.323-0.033 0.788-0.030 1.382-0.030 0.885 0 1.328 0.356 1.328 1.071v3.297zM47.963 12.661v-5.053c0-1.039-1.469-1.572-4.441-1.572h-5.874c-1.084 0-2.063 0.113-2.938 0.338-1.224 0.338-1.818 0.815-1.818 1.46v4.828c0 0.617 0.63 1.095 1.853 1.376 0.839 0.196 1.818 0.282 2.938 0.282h5.84c0.001 0 0.002 0 0.003 0 0.954 0 1.882-0.113 2.77-0.326l-0.081 0.016c1.154-0.309 1.749-0.758 1.749-1.348zM51.599 12.661c0 1.517-0.909 2.611-2.763 3.286-1.293 0.534-3.042 0.814-5.21 0.814h-5.979c-1.993 0-3.777-0.281-5.385-0.814-1.993-0.702-2.972-1.797-2.972-3.286v-4.829c0-1.46 0.979-2.582 2.938-3.34 1.469-0.591 3.251-0.871 5.385-0.871h6.014c5.315 0 7.972 1.376 7.972 4.183v4.856zM95.184 4.969c0 0.729-0.559 1.095-1.608 1.095-0.14 0-0.35 0-0.629-0.029h-0.664c-2.763 0-4.127 0.534-4.127 1.657v7.973c0 0.534-0.279 0.87-0.768 1.011-0.211 0.056-0.734 0.084-1.573 0.084s-1.259-0.366-1.259-1.095v-7.973c0-1.741 1.084-2.892 3.288-3.509 1.329-0.393 3.322-0.562 5.98-0.562 0.908 0 1.361 0.448 1.361 1.347zM116.346 12.661v-5.053c0-1.039-1.469-1.572-4.441-1.572h-5.875c-1.084 0-2.062 0.113-2.937 0.338-1.224 0.338-1.818 0.815-1.818 1.46v4.828c0 0.617 0.63 1.095 1.853 1.376 0.84 0.196 1.818 0.282 2.935 0.282h5.841c0.944 0 1.852-0.113 2.691-0.31 1.156-0.309 1.751-0.758 1.751-1.348zM119.982 12.661c0 1.517-0.91 2.611-2.762 3.286-1.294 0.534-3.043 0.814-5.21 0.814h-5.98c-1.993 0-3.776-0.281-5.384-0.814-1.994-0.702-2.973-1.797-2.973-3.286v-4.829c0-1.46 0.978-2.582 2.936-3.34 1.47-0.591 3.252-0.871 5.386-0.871h6.014c5.314 0 7.972 1.376 7.972 4.183v4.856h0.001zM77.511 6.194v-2.275c0-0.954-1.648-1.46-4.941-1.46h-13.422v5.785h13.422c3.293 0 4.941-0.702 4.941-2.050zM81.295 6.306c0 1.657-1.050 2.864-3.118 3.624-1.612 0.533-3.541 0.786-5.816 0.786h-13.212v4.888c0 0.533-0.245 0.869-0.807 1.009-0.139 0.056-0.7 0.085-1.647 0.085-0.876 0-1.332-0.365-1.332-1.095v-14.547c0-0.703 0.455-1.068 1.332-1.068h15.839c2.138 0 3.96 0.253 5.466 0.703 2.208 0.673 3.294 1.684 3.294 3.005v2.611h0.001zM40.871 26.492c-0.16 0.673-0.036 1.461 0.123 1.755 0.158 0.293 0.676 0.554 1.069 0.554 0.404 0 0.978-0.191 1.267-0.477 0.291-0.287 0.693-0.974 0.87-1.719 0.151-0.627 0.038-1.224-0.123-1.514-0.162-0.289-0.645-0.676-1.043-0.676-0.378 0-0.99 0.174-1.291 0.468-0.299 0.293-0.71 0.931-0.873 1.609zM39.144 26.55c0.261-1.087 0.923-1.988 1.621-2.593 0.7-0.606 1.596-0.727 2.584-0.727 1.013 0 1.754 0.415 2.16 1.012 0.405 0.594 0.628 1.406 0.37 2.478-0.172 0.722-0.47 1.356-0.872 1.91l0.011-0.015c-0.359 0.498-0.852 0.811-1.37 1.089-0.52 0.278-1.137 0.341-1.813 0.341-0.687 0-1.226-0.119-1.619-0.36-0.392-0.24-0.846-0.617-1.002-1.137-0.155-0.518-0.256-1.219-0.069-1.998zM32.233 29.844l1.439-6.512 2.986 0.011c0.064 0 2.2-0.109 2.095 1.699-0.075 1.315-0.653 1.463-1.813 2.074 0.584 0.971 0.785 1.493 1.556 2.728h-1.944c-0.215-0.617-1.143-2.362-1.148-2.362l-1.006-0.011-0.512 2.383-1.654-0.010zM34.722 26.298h1.145c1.062 0 1.568-1.667 0.464-1.684l-1.198-0.023-0.411 1.707zM28.034 23.353l4.689 0.022-0.246 1.199-3.027 0.021-0.274 1.155 2.82 0.011-0.263 1.242h-2.884l-0.336 1.652 2.991-0.052-0.181 1.263-4.748-0.053zM21.003 23.332l1.71 0.011-0.581 2.374 2.461 0.064 0.528-2.427 1.698 0.022-1.482 6.469-1.687 0.010 0.647-2.843-2.461-0.021-0.679 2.864-1.678-0.010zM45.932 29.835h1.555l0.429-1.695h-1.555z"></path>
<path fill="#00aeef" d="M52.167 20.864h14.416v11.023h-14.416zM69.556 20.864h14.416v11.023h-14.416z"></path>
<path fill="#005dac" d="M87.059 20.863h14.415v11.022h-14.415z"></path>
<path fill="#fff" d="M104.93 20.864h14.416v11.023h-14.416z"></path>
<path fill="#000" d="M13.481 26.883h1.116c-0.012-0.384 0.262-0.578 0.813-0.576 0.456 0.010 0.711 0.156 0.763 0.431 0 0.356 0.007 0.69 0.015 1.023-0.245-0.286-0.701-0.452-1.368-0.497-1.055 0.099-1.564 0.586-1.526 1.463 0.038 0.767 0.586 1.174 1.641 1.217 0.554 0.025 0.977-0.139 1.273-0.511 0.008 0.16 0.008 0.306 0.008 0.453h1.029c0.008-1.112 0.008-2.217 0.008-3.322-0.259-0.577-0.694-0.883-1.296-0.921-0.53-0.014-1.053-0.014-1.576-0.014-0.653 0.184-0.945 0.599-0.901 1.255zM8.685 25.602h1.058c0.787 0 1.431 0.635 1.431 1.409v0.886h-2.862c-0.121 0.872 0.104 1.294 0.66 1.27 0.203-0.012 0.419-0.012 0.635-0.012 0.369 0.033 0.543-0.166 0.535-0.648h1.033v0.025c0 0.774-0.644 1.409-1.431 1.409h-1.058c-0.787 0-1.431-0.634-1.431-1.409v-1.521c-0.002-0.775 0.642-1.41 1.43-1.41zM2.114 23.832v6.008h3.485c0.945 0.063 1.426-0.469 1.443-1.582 0.042-0.777-0.278-1.285-0.97-1.509 0.543-0.104 0.834-0.561 0.859-1.382-0.059-0.976-0.597-1.492-1.618-1.558-1.080 0.004-2.158 0.007-3.199 0.023z"></path>
<path fill="#fff" d="M3.272 24.843v1.533c0.601-0.012 1.166-0.012 1.73-0.012 0.49 0.008 0.725-0.238 0.721-0.722-0.025-0.44-0.232-0.695-0.622-0.773-0.097 0.001-0.211 0.001-0.325 0.001-0.529 0-1.056-0.009-1.581-0.028l0.076 0.002zM3.272 27.235v1.669c0.643-0.012 1.248-0.012 1.852-0.012 0.525 0.010 0.778-0.258 0.773-0.788-0.027-0.479-0.249-0.756-0.667-0.842-0.088 0.001-0.192 0.001-0.296 0.001-0.585 0-1.167-0.010-1.747-0.030l0.084 0.002zM10.142 27.309c0.054-0.651-0.232-0.963-0.871-0.945-0.71-0.005-1.029 0.315-0.958 0.958 0.338-0.013 0.736-0.021 1.135-0.021 0.244 0 0.488 0.003 0.731 0.009l-0.036-0.001zM16.188 28.417c-0.207-0.367-0.662-0.49-1.366-0.365-0.39 0.17-0.54 0.429-0.449 0.779 0.101 0.441 0.574 0.57 1.426 0.363 0.31-0.124 0.439-0.38 0.389-0.777zM121.92 15.277c0.008-0 0.019-0 0.029-0 0.849 0 1.537 0.688 1.537 1.537s-0.688 1.537-1.537 1.537c-0.010 0-0.019-0-0.028-0l0.001 0c-0.837-0.015-1.51-0.697-1.51-1.536s0.672-1.52 1.507-1.536l0.001-0z"></path>
<path fill="#fff" d="M121.92 15.503c0.723 0.001 1.31 0.586 1.311 1.31v0c-0.001 0.723-0.587 1.309-1.31 1.309-0 0-0 0-0.001 0h0c-0.707-0.020-1.273-0.599-1.273-1.309s0.566-1.289 1.271-1.309l0.002-0"></path>
<path fill="#000" d="M121.398 17.452v-1.452h0.647c0.13 0 0.229 0.011 0.295 0.038 0.069 0.027 0.121 0.073 0.164 0.139 0.037 0.061 0.060 0.135 0.060 0.213 0 0.002 0 0.003-0 0.005v-0c0 0.003 0 0.006 0 0.010 0 0.098-0.038 0.187-0.1 0.253l0-0c-0.067 0.071-0.172 0.114-0.311 0.135 0.052 0.024 0.091 0.048 0.116 0.073 0.057 0.052 0.112 0.117 0.161 0.194l0.254 0.395h-0.243l-0.193-0.304c-0.051-0.079-0.097-0.144-0.145-0.207l0.006 0.008c-0.028-0.038-0.060-0.071-0.097-0.098l-0.001-0.001c-0.025-0.017-0.054-0.030-0.086-0.037l-0.002-0c-0.029-0.004-0.061-0.006-0.095-0.006-0.005 0-0.009 0-0.014 0h-0.222v0.644l-0.194 0z"></path>
<path fill="#fff" d="M121.591 16.639h0.415c0.008 0 0.017 0.001 0.026 0.001 0.065 0 0.127-0.010 0.186-0.029l-0.004 0.001c0.047-0.016 0.086-0.047 0.114-0.086l0.001-0.001c0.023-0.036 0.037-0.081 0.037-0.128 0-0.001 0-0.003-0-0.004v0c0-0.002 0-0.004 0-0.006 0-0.065-0.029-0.123-0.074-0.162l-0-0c-0.050-0.044-0.129-0.067-0.238-0.067h-0.462v0.481z"></path>
</svg>
