<!-- Generated by IcoMoon.io -->
<svg version="1.1" xmlns="http://www.w3.org/2000/svg" width="32" height="32" viewBox="0 0 32 32">
<title>jquery</title>
<path fill="#6ba0ab" d="M9.143 15.014l0-0-0.256 0.906 0.256-0.906zM10.458 16.981v0zM10.385 18.334h0l-1.688 0.006 1.688-0.006zM10.739 16.983v0zM10.533 18.219v0zM16.747 13.055v0zM15.34 13.055v0z"></path>
<path fill="#6ba0ab" d="M16.654 12.94h-1.171c-0.065 0-0.129 0.052-0.143 0.116l-0.832 3.847c-0.014 0.064-0.078 0.115-0.143 0.115h-0.829c-0.82 0-0.725-0.567-0.557-1.344l0.005-0.023 0.018-0.098c0.001-0.006 0.002-0.013 0.003-0.018l0.037-0.199 0.040-0.214c0.012-0.064 0.031-0.159 0.043-0.218l0.189-0.924 0.189-0.924c0.013-0.064-0.030-0.116-0.095-0.116h-1.202c-0.065 0-0.129 0.052-0.143 0.116l-0.517 2.452c-0 0.001-0 0.001-0 0.002l-0.024 0.114c-0.298 1.359-0.219 2.655 1.399 2.696 0.026 0.001 0.047 0.001 0.047 0.001h2.54c0.065 0 0.129-0.052 0.143-0.116l1.095-5.149c0.013-0.064-0.029-0.116-0.094-0.116zM21.326 17.031c0.065 0 0.108 0.052 0.095 0.116l-0.114 0.556zM21.193 18.259l0.114-0.556-0.114 0.556 0-0zM21.050 18.376l0.001-0c-0.345 0.003-1.38 0.011-2.159 0.011 0.947 0 2.158-0.010 2.158-0.010zM18.194 16.315c-0.001-0.061 0.068-0.166 0.133-0.166l-0.146-0.002c-0.066 0.663 0.013 0.168 0.013 0.168z"></path>
<path fill="#6ba0ab" d="M18.999 18.386c-0.007 0-0.015 0-0.023 0 0.008-0 0.015-0 0.023-0zM21.326 17.031c0.065 0 0.108 0.052 0.095 0.116l-0.114 0.556-0.018 0.091zM19.553 18.385v0zM19.266 18.386v0zM19.178 18.386c-0.009 0-0.018 0-0.028 0 0.009-0 0.018-0 0.028-0zM19.089 18.386v0zM19.249 18.386v0zM21.051 18.376c-0.253 0.002-0.876 0.007-1.498 0.009 0.622-0.003 1.246-0.007 1.498-0.009zM21.193 18.259v0zM19.151 18.386v0zM18.976 18.386v0zM19.064 18.386v0zM1.933 16.329l0.182-0.806-0.208 0.922-0.025 0.116c0.013-0.064 0.036-0.168 0.051-0.231zM4.11 12.926h-1.286c-0.065 0-0.13 0.052-0.144 0.115l-0.244 1.077c-0.014 0.063 0.027 0.115 0.092 0.115h1.296c0.065 0 0.13-0.052 0.144-0.115l0.118-0.538 0.118-0.538v-0c0.014-0.064-0.028-0.116-0.093-0.116zM3.83 14.717v-0l-0.377 1.745 0.377-1.745zM0.094 20.499s0.648 0.008 1.060 0.008c-0.313 0-0.83-0.006-1.061-0.008l0.001 0h-0zM2.297 14.716v0z"></path>
<path fill="#6ba0ab" d="M3.737 14.601h-1.296c-0.065 0-0.13 0.052-0.144 0.115l-0.182 0.806-0.182 0.807c-0.014 0.063-0.037 0.168-0.051 0.231l-0.175 0.823-0.175 0.823c-0.014 0.063-0.042 0.166-0.062 0.228 0 0-0.242 0.721-0.649 0.712-0.022-0-0.040-0.001-0.058-0.001l0.007 0c-0.197-0.004-0.352-0.007-0.352-0.007h-0c-0.065-0.001-0.13 0.050-0.145 0.113l-0.269 1.13c-0.015 0.063 0.026 0.115 0.090 0.116 0.231 0.003 0.748 0.009 1.061 0.009 1.017 0 1.553-0.564 1.897-2.185l0.779-3.606c0.014-0.063-0.028-0.115-0.093-0.115zM22.152 18.32c-0.065 0-0.107-0.052-0.093-0.116l0.975-4.568zM23.507 18.204v0z"></path>
<path fill="#6ba0ab" d="M22.072 18.263c-0.008-0.032-0.003-0.11 0.010-0.174l0.463-2.168-0.488 2.284c-0.014 0.064 0.028 0.116 0.093 0.116h0.118c-0.065 0-0.189-0.026-0.197-0.058zM23.43 18.294c-0.035 0.014-0.118 0.026-0.183 0.026h0.118c0.065 0 0.129-0.052 0.142-0.116l0.023-0.116c-0.013 0.064-0.065 0.191-0.101 0.206zM23.704 17.23l0.174-0.86c-0 0.001-0 0.001-0 0.002l-0.174 0.859zM27.552 13.943l0.054 0.222c0.015 0.064-0.026 0.115-0.091 0.115zM23.531 18.089v0zM27.499 13.716v0zM23.878 16.369c0.013-0.064 0.034-0.167 0.048-0.23l0.186-0.871-0.211 0.987-0.023 0.114zM23.049 13.562c-0.013 0.061-0.029 0.139-0.041 0.191l-0.462 2.168 0.488-2.284 0.016-0.075z"></path>
<path fill="#6ba0ab" d="M27.606 14.165l-0.054-0.222-0.080-0.342c-0.105-0.409-0.414-0.645-1.085-0.645l-3.090-0.002c-0.065 0-0.129 0.052-0.143 0.116l-0.048 0.226-0.056 0.267-0.016 0.075-0.95 4.452c-0.014 0.064-0.018 0.142-0.011 0.174s0.133 0.058 0.198 0.058h0.977c0.065 0 0.147-0.012 0.183-0.026s0.088-0.142 0.101-0.206l0.348-1.718c0-0 0-0.001 0-0.001l0.023-0.115 0.397-1.858c0.014-0.063 0.078-0.115 0.143-0.115l3.074-0.002c0.064-0 0.105-0.052 0.090-0.116z"></path>
<path fill="#6ba0ab" d="M31.562 12.158c-0.065 0-0.171 0.001-0.236 0.001h-0.984c-0.065 0-0.148 0.044-0.185 0.098l-2.175 3.187c-0.037 0.054-0.079 0.046-0.093-0.018l-0.16-0.702c-0.015-0.063-0.080-0.115-0.145-0.115h-1.398c-0.065 0-0.104 0.051-0.086 0.114l0.627 2.195c0.018 0.063 0.019 0.166 0.003 0.228l-0.273 1.063c-0.016 0.063 0.024 0.115 0.089 0.115h1.382c0.065 0 0.131-0.052 0.148-0.115l0.273-1.063c0.016-0.063 0.061-0.157 0.101-0.209l3.532-4.687c0.039-0.052 0.018-0.094-0.047-0.094l-0.371 0.002zM20.452 14.907l-0-0.001c-0.008 0.071-0.074 0.122-0.139 0.122h-1.773c-0.061 0-0.093-0.042-0.084-0.093 0.001-0.002 0.001-0.003 0.001-0.004 0 0-0.001 0-0.001 0.001 0.001-0.002 0.001-0.004 0.001-0.006 0 0 0.004-0.012 0.008-0.030 0.169-0.45 0.514-0.746 1.163-0.746 0.73-0 0.872 0.356 0.823 0.757zM19.932 12.861c-2.276 0-2.815 1.381-3.118 2.776-0.303 1.421-0.277 2.75 2.079 2.75h0.084c0.007-0 0.015-0 0.023-0h0.152c0.009-0 0.018-0 0.028-0l0.088-0c0.093-0 0.188-0.001 0.282-0.001h0.005c0.622-0.002 1.246-0.007 1.498-0.009 0.065-0.001 0.128-0.053 0.141-0.116l0.095-0.466 0.019-0.091 0.114-0.556c0.013-0.064-0.029-0.116-0.095-0.116h-2.117c-0.842 0-1.092-0.224-1-0.882l3.384 0c0.001 0 0.002-0 0.002-0 0.054-0.001 0.104-0.038 0.123-0.088 0.004-0.009 0.007-0.019 0.008-0.030l-0 0c0.502-1.895 0.358-3.172-1.795-3.172zM9.175 14.9l-0.032 0.113-0 0-0.511 1.811c-0.018 0.063-0.085 0.114-0.15 0.114h-1.353c-1.026 0-1.276-0.802-1.026-1.986 0.25-1.211 0.74-1.963 1.749-2.039 1.38-0.104 1.656 0.867 1.323 1.987zM10.103 16.869s0.638-1.548 0.783-2.443c0.198-1.197-0.401-2.934-2.717-2.934-2.302 0-3.302 1.658-3.684 3.46-0.381 1.815 0.118 3.407 2.408 3.394l3.494-0.013c0.065-0.001 0.131-0.052 0.148-0.115l0.294-1.122c0.016-0.063-0.023-0.115-0.088-0.115l-0.563-0.003c-0.055-0.001-0.087-0.036-0.080-0.084 0.001-0.010 0.004-0.019 0.007-0.027l-0 0.001h-0v-0z"></path>
<path fill="#6ba0ab" d="M21.5 15.833c0 0.043-0.035 0.078-0.078 0.078s-0.078-0.035-0.078-0.078 0.035-0.077 0.078-0.077c0.043-0 0.078 0.035 0.078 0.077z"></path>
</svg>
