<!-- Generated by IcoMoon.io -->
<svg version="1.1" xmlns="http://www.w3.org/2000/svg" width="41" height="32" viewBox="0 0 41 32">
<title>master</title>
<path fill="#231f20" d="M40.321 31.566v0.082h0.077c0 0 0.001 0 0.001 0 0.015 0 0.028-0.004 0.040-0.011l-0 0c0.009-0.007 0.015-0.018 0.015-0.030 0-0.001 0-0.001-0-0.002v0c0-0 0-0.001 0-0.002 0-0.012-0.006-0.023-0.015-0.029l-0-0c-0.011-0.007-0.024-0.011-0.038-0.011-0.001 0-0.002 0-0.003 0h-0.077zM40.398 31.508c0.003-0 0.006-0 0.009-0 0.031 0 0.060 0.010 0.084 0.027l-0-0c0.020 0.016 0.032 0.041 0.032 0.068 0 0.002-0 0.003-0 0.005v-0c0 0.001 0 0.002 0 0.003 0 0.024-0.010 0.045-0.026 0.061l-0 0c-0.020 0.017-0.045 0.029-0.073 0.031l-0 0 0.103 0.117h-0.079l-0.095-0.116h-0.031v0.116h-0.066v-0.311h0.144zM40.378 31.927c0.001 0 0.002 0 0.002 0 0.036 0 0.070-0.008 0.1-0.021l-0.002 0.001c0.032-0.014 0.059-0.033 0.082-0.056v0c0.023-0.023 0.042-0.050 0.055-0.081l0.001-0.002c0.013-0.030 0.020-0.065 0.020-0.102s-0.007-0.072-0.021-0.104l0.001 0.002c-0.014-0.032-0.033-0.059-0.056-0.082l0 0c-0.023-0.023-0.050-0.042-0.081-0.055l-0.002-0.001c-0.029-0.012-0.063-0.019-0.098-0.019-0.001 0-0.002 0-0.003 0h0c-0.001 0-0.002 0-0.002 0-0.036 0-0.071 0.007-0.102 0.020l0.002-0.001c-0.033 0.014-0.061 0.033-0.084 0.056l0-0c-0.047 0.048-0.075 0.113-0.075 0.185 0 0.037 0.008 0.072 0.021 0.104l-0.001-0.002c0.013 0.032 0.032 0.059 0.055 0.082l0 0c0.024 0.023 0.051 0.042 0.082 0.055l0.002 0.001c0.030 0.013 0.064 0.021 0.101 0.021 0.001 0 0.002 0 0.002 0h-0zM40.378 31.332c0 0 0 0 0 0 0.094 0 0.179 0.038 0.241 0.099l-0-0c0.030 0.030 0.055 0.065 0.072 0.105l0.001 0.002c0.017 0.038 0.027 0.083 0.027 0.13s-0.010 0.092-0.027 0.132l0.001-0.002c-0.018 0.041-0.043 0.077-0.073 0.107v0c-0.031 0.029-0.066 0.054-0.106 0.071l-0.002 0.001c-0.039 0.017-0.084 0.027-0.131 0.027-0.001 0-0.001 0-0.002 0h0c-0.001 0-0.002 0-0.002 0-0.048 0-0.093-0.010-0.135-0.028l0.002 0.001c-0.042-0.018-0.079-0.042-0.109-0.072l0 0c-0.030-0.031-0.054-0.067-0.071-0.108l-0.001-0.002c-0.017-0.038-0.027-0.083-0.027-0.13s0.010-0.092 0.027-0.132l-0.001 0.002c0.018-0.042 0.042-0.077 0.073-0.107l0-0c0.030-0.030 0.067-0.055 0.107-0.071l0.002-0.001c0.039-0.017 0.085-0.027 0.132-0.027 0.001 0 0.002 0 0.003 0h-0zM8.888 30.131c0-0.593 0.389-1.081 1.024-1.081 0.607 0 1.017 0.466 1.017 1.081s-0.41 1.081-1.017 1.081c-0.635 0-1.024-0.487-1.024-1.081zM11.62 30.131v-1.688h-0.734v0.411c-0.233-0.304-0.586-0.495-1.066-0.495-0.946 0-1.688 0.742-1.688 1.773s0.742 1.773 1.688 1.773c0.48 0 0.833-0.191 1.066-0.495v0.41h0.733v-1.689zM36.421 30.131c0-0.593 0.389-1.081 1.024-1.081 0.608 0 1.017 0.466 1.017 1.081s-0.409 1.081-1.017 1.081c-0.635 0-1.024-0.487-1.024-1.081zM39.154 30.131v-3.044h-0.735v1.767c-0.233-0.304-0.586-0.495-1.066-0.495-0.946 0-1.688 0.742-1.688 1.773s0.742 1.773 1.688 1.773c0.48 0 0.833-0.191 1.066-0.495v0.41h0.735v-1.689zM20.73 29.015c0.473 0 0.777 0.297 0.854 0.819h-1.751c0.078-0.487 0.374-0.819 0.897-0.819zM20.745 28.357c-0.989 0-1.681 0.72-1.681 1.773 0 1.073 0.72 1.773 1.73 1.773 0.508 0 0.974-0.127 1.384-0.473l-0.36-0.544c-0.283 0.226-0.643 0.353-0.982 0.353-0.473 0-0.904-0.219-1.010-0.827h2.506c0.007-0.091 0.015-0.183 0.015-0.282-0.007-1.052-0.658-1.773-1.603-1.773zM29.606 30.129c0-0.593 0.389-1.081 1.024-1.081 0.607 0 1.017 0.466 1.017 1.081s-0.41 1.081-1.017 1.081c-0.635 0-1.024-0.487-1.024-1.081zM32.339 30.129v-1.687h-0.734v0.411c-0.234-0.304-0.586-0.495-1.066-0.495-0.946 0-1.688 0.742-1.688 1.773s0.742 1.773 1.688 1.773c0.48 0 0.832-0.191 1.066-0.495v0.41h0.734v-1.689zM25.461 30.129c0 1.024 0.713 1.773 1.801 1.773 0.508 0 0.847-0.113 1.213-0.402l-0.352-0.593c-0.276 0.198-0.565 0.304-0.884 0.304-0.586-0.007-1.017-0.431-1.017-1.081s0.431-1.073 1.017-1.081c0.319 0 0.608 0.106 0.884 0.304l0.352-0.593c-0.367-0.289-0.706-0.402-1.213-0.402-1.088 0-1.801 0.748-1.801 1.773zM34.923 28.357c-0.423 0-0.699 0.198-0.89 0.495v-0.409h-0.727v3.375h0.735v-1.892c0-0.559 0.24-0.869 0.72-0.869 0.005-0 0.011-0 0.017-0 0.159 0 0.311 0.031 0.45 0.088l-0.008-0.003 0.226-0.692c-0.162-0.064-0.374-0.092-0.523-0.092zM15.249 28.711c-0.353-0.233-0.84-0.353-1.376-0.353-0.855 0-1.406 0.41-1.406 1.081 0 0.55 0.41 0.89 1.165 0.996l0.347 0.049c0.402 0.057 0.592 0.162 0.592 0.353 0 0.261-0.267 0.41-0.769 0.41-0.508 0-0.875-0.162-1.123-0.353l-0.345 0.572c0.402 0.297 0.911 0.438 1.461 0.438 0.975 0 1.54-0.459 1.54-1.102 0-0.593-0.445-0.904-1.179-1.010l-0.346-0.050c-0.318-0.041-0.572-0.105-0.572-0.331 0-0.247 0.24-0.395 0.643-0.395 0.431 0 0.848 0.162 1.052 0.289l0.318-0.593zM24.72 28.358c-0.423 0-0.699 0.198-0.889 0.495v-0.41h-0.727v3.375h0.734v-1.892c0-0.559 0.24-0.869 0.72-0.869 0.005-0 0.011-0 0.017-0 0.159 0 0.311 0.031 0.45 0.088l-0.008-0.003 0.226-0.692c-0.162-0.064-0.374-0.092-0.523-0.092zM18.456 28.442h-1.2v-1.024h-0.742v1.024h-0.685v0.671h0.685v1.54c0 0.783 0.304 1.25 1.172 1.25 0.319 0 0.685-0.099 0.918-0.261l-0.212-0.628c-0.219 0.127-0.459 0.191-0.65 0.191-0.367 0-0.487-0.226-0.487-0.565v-1.525h1.2zM7.483 31.818v-2.118c0-0.798-0.508-1.334-1.328-1.342-0.431-0.007-0.875 0.127-1.186 0.601-0.233-0.374-0.6-0.601-1.115-0.601-0.361 0-0.713 0.106-0.989 0.501v-0.417h-0.735v3.375h0.74v-1.871c0-0.586 0.325-0.897 0.827-0.897 0.487 0 0.734 0.318 0.734 0.89v1.878h0.742v-1.871c0-0.586 0.339-0.897 0.826-0.897 0.501 0 0.74 0.318 0.74 0.89v1.878z"></path>
<path fill="#f79410" d="M40.739 20.591v-0.494h-0.129l-0.149 0.339-0.148-0.339h-0.129v0.494h0.091v-0.372l0.139 0.321h0.095l0.139-0.322v0.373h0.090zM39.924 20.591v-0.409h0.165v-0.083h-0.42v0.083h0.165v0.409h0.090z"></path>
<path fill="#ff5f00" d="M26.13 22.707h-11.123v-19.99h11.123z"></path>
<path fill="#eb001b" d="M15.712 12.713c0-4.055 1.899-7.667 4.855-9.995-2.133-1.694-4.866-2.718-7.837-2.718-0.007 0-0.013 0-0.020 0h0.001c-7.020 0-12.711 5.692-12.711 12.713s5.691 12.713 12.711 12.713c0.006 0 0.012 0 0.019 0 2.971 0 5.704-1.024 7.863-2.738l-0.026 0.020c-2.956-2.327-4.855-5.94-4.855-9.995z"></path>
<path fill="#f79e1b" d="M41.136 12.713c0 7.021-5.691 12.713-12.711 12.713-0.006 0-0.012 0-0.019 0-2.972 0-5.705-1.024-7.865-2.738l0.026 0.020c2.957-2.328 4.856-5.94 4.856-9.995s-1.899-7.667-4.856-9.995c2.134-1.694 4.867-2.718 7.838-2.718 0.006 0 0.013 0 0.019 0h-0.001c7.020 0 12.711 5.692 12.711 12.713z"></path>
</svg>
