<!-- Generated by IcoMoon.io -->
<svg version="1.1" xmlns="http://www.w3.org/2000/svg" width="32" height="32" viewBox="0 0 32 32">
<title>sass</title>
<path fill="#cf649a" d="M27.538 17.788c-1.119 0.006-2.087 0.275-2.9 0.675-0.3-0.594-0.6-1.113-0.65-1.5-0.056-0.45-0.125-0.725-0.056-1.262s0.381-1.3 0.381-1.363c-0.006-0.056-0.069-0.331-0.712-0.338s-1.2 0.125-1.262 0.294-0.188 0.556-0.269 0.956c-0.113 0.588-1.288 2.669-1.956 3.763-0.219-0.425-0.406-0.8-0.444-1.1-0.056-0.45-0.125-0.725-0.056-1.262s0.381-1.3 0.381-1.363c-0.006-0.056-0.069-0.331-0.712-0.338s-1.2 0.125-1.262 0.294-0.131 0.569-0.269 0.956c-0.131 0.387-1.694 3.863-2.1 4.769-0.206 0.462-0.387 0.831-0.519 1.081s-0.006 0.019-0.019 0.044c-0.113 0.212-0.175 0.331-0.175 0.331v0.006c-0.088 0.156-0.181 0.306-0.225 0.306-0.031 0-0.094-0.419 0.012-0.994 0.231-1.206 0.794-3.087 0.788-3.156 0-0.031 0.106-0.363-0.363-0.531-0.456-0.169-0.619 0.113-0.656 0.113s-0.069 0.1-0.069 0.1 0.506-2.119-0.969-2.119c-0.925 0-2.2 1.006-2.831 1.925-0.4 0.219-1.25 0.681-2.15 1.175-0.344 0.188-0.7 0.387-1.037 0.569l-0.069-0.075c-1.788-1.906-5.094-3.256-4.956-5.819 0.050-0.931 0.375-3.388 6.35-6.362 4.894-2.438 8.813-1.769 9.494-0.281 0.969 2.125-2.094 6.075-7.181 6.644-1.938 0.219-2.956-0.531-3.213-0.813-0.269-0.294-0.306-0.306-0.406-0.25-0.162 0.088-0.063 0.35 0 0.506 0.15 0.394 0.775 1.094 1.838 1.444 0.931 0.306 3.206 0.475 5.956-0.588 3.081-1.194 5.488-4.506 4.781-7.275-0.719-2.819-5.394-3.744-9.813-2.175-2.631 0.938-5.481 2.4-7.531 4.319-2.438 2.275-2.825 4.262-2.663 5.088 0.569 2.944 4.625 4.862 6.25 6.281-0.081 0.044-0.156 0.087-0.225 0.125-0.813 0.4-3.906 2.019-4.681 3.731-0.875 1.938 0.137 3.331 0.813 3.519 2.088 0.581 4.225-0.462 5.381-2.181 1.15-1.719 1.012-3.95 0.481-4.969l-0.019-0.038 0.637-0.375c0.413-0.244 0.819-0.469 1.175-0.663-0.2 0.544-0.344 1.188-0.419 2.125-0.088 1.1 0.363 2.525 0.956 3.087 0.262 0.244 0.575 0.25 0.769 0.25 0.688 0 1-0.569 1.344-1.25 0.425-0.831 0.8-1.794 0.8-1.794s-0.469 2.606 0.813 2.606c0.469 0 0.938-0.606 1.15-0.919v0.006s0.012-0.019 0.037-0.063c0.021-0.030 0.046-0.069 0.069-0.108l0.006-0.010v-0.012c0.188-0.325 0.606-1.069 1.231-2.3 0.806-1.587 1.581-3.575 1.581-3.575s0.075 0.488 0.306 1.288c0.137 0.475 0.437 0.994 0.669 1.5-0.188 0.262-0.3 0.413-0.3 0.413l0.006 0.006c-0.15 0.2-0.319 0.413-0.494 0.625-0.637 0.762-1.4 1.631-1.5 1.881-0.119 0.294-0.094 0.512 0.137 0.688 0.169 0.125 0.469 0.15 0.788 0.125 0.575-0.038 0.975-0.181 1.175-0.269 0.313-0.113 0.669-0.281 1.012-0.531 0.625-0.462 1.006-1.119 0.969-1.994-0.019-0.481-0.175-0.956-0.369-1.406 0.056-0.081 0.113-0.163 0.169-0.25 0.988-1.444 1.75-3.031 1.75-3.031s0.075 0.488 0.306 1.288c0.119 0.406 0.356 0.85 0.569 1.288-0.925 0.756-1.506 1.631-1.706 2.206-0.369 1.063-0.081 1.544 0.462 1.656 0.244 0.050 0.594-0.063 0.856-0.175 0.325-0.106 0.719-0.288 1.081-0.556 0.625-0.462 1.225-1.106 1.194-1.975-0.019-0.4-0.125-0.794-0.269-1.169 0.788-0.325 1.806-0.512 3.1-0.356 2.781 0.325 3.331 2.063 3.225 2.788s-0.688 1.125-0.881 1.25c-0.194 0.119-0.256 0.163-0.238 0.25 0.025 0.131 0.113 0.125 0.281 0.1 0.231-0.038 1.462-0.594 1.512-1.931 0.075-1.719-1.556-3.594-4.45-3.575zM6.088 25.019c-0.919 1.006-2.212 1.387-2.763 1.063-0.594-0.344-0.363-1.825 0.769-2.894 0.688-0.65 1.581-1.25 2.169-1.619 0.131-0.081 0.331-0.2 0.569-0.344 0.037-0.025 0.063-0.038 0.063-0.038 0.044-0.025 0.094-0.056 0.144-0.087 0.419 1.525 0.019 2.863-0.95 3.919zM12.806 20.45c-0.319 0.781-0.994 2.788-1.4 2.675-0.35-0.094-0.563-1.613-0.069-3.113 0.25-0.756 0.781-1.656 1.094-2.006 0.506-0.563 1.056-0.75 1.194-0.519 0.162 0.3-0.619 2.475-0.819 2.963zM18.35 23.1c-0.137 0.069-0.262 0.119-0.319 0.081-0.044-0.025 0.056-0.119 0.056-0.119s0.694-0.744 0.969-1.087c0.156-0.2 0.344-0.431 0.544-0.694v0.075c0 0.9-0.862 1.5-1.25 1.744zM22.625 22.125c-0.1-0.075-0.087-0.306 0.25-1.031 0.131-0.288 0.431-0.769 0.95-1.225 0.063 0.188 0.1 0.369 0.094 0.538-0.006 1.125-0.806 1.544-1.294 1.719z"></path>
</svg>
