<!-- Generated by IcoMoon.io -->
<svg version="1.1" xmlns="http://www.w3.org/2000/svg" width="32" height="32" viewBox="0 0 32 32">
<title>schubach</title>
<path fill="#fff" d="M0 0h32v32h-32v-32z"></path>
<path fill="#000" d="M14.615 18.469c0.030-0.063 0.087-0.072 0.144-0.076 0.057-0.008 0.161-0.017 0.161-0.118 0-0.051-0.024-0.080-0.064-0.080-0.161 0.004-0.329 0.021-0.491 0.021-0.168 0-0.329-0.017-0.497-0.021-0.057 0-0.128 0.021-0.128 0.105 0 0.071 0.064 0.080 0.104 0.080 0.071 0.004 0.175 0.021 0.175 0.135 0 0.076-0.013 0.135-0.030 0.202l-0.413 1.719-0.097 0.455c-0.037 0.16-0.118 0.564-0.292 0.564-0.060 0-0.074-0.046-0.081-0.114-0.017-0.177-0.064-0.341-0.235-0.341-0.131 0-0.239 0.118-0.239 0.287 0 0.114 0.060 0.215 0.134 0.274 0.084 0.072 0.178 0.088 0.276 0.088 0.319 0 0.608-0.245 0.803-0.543 0.212-0.32 0.269-0.624 0.363-1.003l0.302-1.268c0.023-0.096 0.060-0.278 0.104-0.366zM20.969 20.162c-0.161 0-0.030 0.493-0.776 0.493-0.087 0-0.242 0.013-0.242-0.143 0-0.076 0.040-0.227 0.057-0.303l0.161-0.678 0.212-0.008c0.074 0 0.192-0.008 0.252 0.055s0.047 0.177 0.047 0.265c0 0.067-0.003 0.143 0.071 0.143 0.064 0 0.074-0.093 0.084-0.148 0.027-0.219 0.081-0.434 0.141-0.645 0.014-0.046 0.037-0.109 0.037-0.164 0-0.042-0.030-0.067-0.064-0.067-0.057 0-0.080 0.067-0.104 0.127-0.104 0.269-0.299 0.248-0.508 0.248h-0.121l0.195-0.809c0.034-0.152 0.031-0.139 0.162-0.139h0.128c0.090-0.004 0.198-0.013 0.275 0.059 0.091 0.076 0.098 0.173 0.114 0.295 0.006 0.051 0.006 0.114 0.060 0.114 0.030 0 0.050-0.013 0.064-0.042 0.017-0.038 0.054-0.185 0.064-0.227 0.007-0.034 0.091-0.316 0.091-0.345 0-0.042-0.034-0.046-0.057-0.046-0.39 0.004-0.786 0.021-1.176 0.021-0.071-0.001-0.14-0.003-0.209-0.008l0.010 0.001c-0.011-0.008-0.024-0.013-0.038-0.014h-0c-0.027 0.002-0.051 0.004-0.074 0.007l0.005-0.001c-0.037-0.003-0.087-0.005-0.138-0.007l-0.007-0c-0.001 0-0.001-0-0.002-0-0.019 0-0.037 0.007-0.050 0.020l0-0c-0.092-0.003-0.184-0.016-0.276-0.019-0.047 0-0.111 0.030-0.111 0.105 0 0.122 0.201 0.046 0.201 0.156 0 0.063-0.050 0.148-0.077 0.198l-0.749 1.377-0.104-1.019 0.205-0.362c0.037-0.059 0.077-0.135 0.124-0.185 0.051-0.059 0.084-0.059 0.148-0.080 0.057-0.013 0.145-0.017 0.145-0.114 0-0.059-0.037-0.076-0.077-0.076-0.202 0.004-0.397 0.021-0.598 0.021s-0.403-0.017-0.598-0.021c-0.051 0-0.098 0.025-0.098 0.097 0 0.051 0.037 0.063 0.067 0.072 0.064 0.021 0.091 0.042 0.111 0.122 0.017 0.072 0.031 0.207 0.037 0.282l0.071 0.666-0.366 0.661-0.165-1.415c-0.003-0.059-0.014-0.122-0.014-0.181 0-0.097 0.054-0.11 0.114-0.122 0.040-0.013 0.087-0.030 0.087-0.093 0-0.054-0.037-0.088-0.077-0.088-0.111 0.013-0.225 0.021-0.34 0.021-0.148 0-0.289-0.008-0.437-0.021-0.011 0-0.021 0.001-0.031 0.004l0.001-0c-0.008-0.002-0.017-0.004-0.026-0.004-0.001 0-0.002 0-0.003 0h0c-0.39 0.004-0.786 0.021-1.176 0.021-0.148 0-0.302-0.017-0.45-0.021-0.050 0-0.081 0.034-0.081 0.101 0 0.063 0.057 0.076 0.101 0.080 0.074 0.008 0.121 0.042 0.121 0.148 0 0.063-0.034 0.198-0.047 0.257l-0.356 1.491c-0.020 0.084-0.064 0.282-0.118 0.345-0.037 0.042-0.121 0.046-0.168 0.051-0.054 0.004-0.114 0.025-0.114 0.101 0 0.059 0.044 0.072 0.081 0.072 0.158-0.004 0.319-0.021 0.48-0.021 0.41 0 0.813 0.017 1.223 0.021 0.118 0 0.101-0.021 0.131-0.16l0.061-0.257c0.010-0.046 0.037-0.139 0.037-0.181 0-0.051-0.030-0.080-0.067-0.080-0.161 0-0.030 0.493-0.776 0.493-0.087 0-0.242 0.013-0.242-0.143 0-0.076 0.040-0.227 0.057-0.303l0.161-0.678 0.212-0.008c0.074 0 0.191-0.008 0.252 0.055s0.047 0.177 0.047 0.265c0 0.067-0.003 0.143 0.071 0.143 0.064 0 0.074-0.093 0.084-0.148 0.027-0.219 0.081-0.434 0.141-0.645 0.014-0.046 0.037-0.109 0.037-0.164 0-0.042-0.030-0.067-0.064-0.067-0.057 0-0.080 0.067-0.104 0.127-0.104 0.269-0.299 0.248-0.507 0.248h-0.121l0.195-0.809c0.034-0.152 0.030-0.139 0.161-0.139h0.128c0.091-0.004 0.198-0.013 0.276 0.059 0.091 0.076 0.098 0.173 0.114 0.295 0.007 0.051 0.007 0.114 0.061 0.114 0.030 0 0.050-0.013 0.064-0.042 0.017-0.038 0.054-0.185 0.064-0.227 0.004-0.020 0.037-0.134 0.062-0.225 0.015 0.006 0.031 0.010 0.044 0.015 0.118 0.038 0.118 0.181 0.131 0.303l0.195 1.916c0.013 0.122 0.003 0.278 0.134 0.278 0.111 0 0.168-0.126 0.222-0.223l0.524-0.948 0.080 0.956c0.010 0.101 0.003 0.215 0.111 0.215 0.091 0 0.135-0.092 0.178-0.172l0.927-1.735 0.192-0.333c0.066-0.103 0.123-0.182 0.226-0.221 0.022 0.022 0.034 0.057 0.034 0.111 0 0.063-0.033 0.198-0.047 0.257l-0.356 1.491c-0.020 0.084-0.064 0.282-0.118 0.345-0.037 0.042-0.121 0.046-0.168 0.051-0.054 0.004-0.114 0.025-0.114 0.101 0 0.059 0.044 0.072 0.080 0.072 0.158-0.004 0.319-0.021 0.481-0.021 0.41 0 0.813 0.017 1.223 0.021 0.118 0 0.101-0.021 0.131-0.16l0.061-0.257c0.010-0.046 0.037-0.139 0.037-0.181 0-0.051-0.030-0.080-0.067-0.080z"></path>
<path fill="#fff" d="M18.454 18.667c-0.007-0.059-0.020-0.148-0.020-0.207 0-0.088 0.111-0.080 0.161-0.080 0.027 0 0.061-0.004 0.061 0.042s-0.047 0.127-0.067 0.16l-0.118 0.215-0.017-0.131z"></path>
<path fill="#000" d="M22.842 20.247c0-0.055-0.034-0.088-0.074-0.088-0.050 0-0.077 0.055-0.101 0.105-0.151 0.324-0.272 0.396-0.564 0.396-0.064 0-0.195 0.017-0.195-0.105 0-0.034 0.017-0.097 0.024-0.131l0.393-1.647c0.024-0.092 0.057-0.232 0.111-0.307 0.054-0.080 0.111-0.076 0.185-0.093 0.061-0.008 0.128-0.017 0.128-0.109 0-0.063-0.037-0.072-0.081-0.072-0.161 0.004-0.316 0.021-0.477 0.021s-0.323-0.017-0.477-0.021c-0.050 0-0.111 0.021-0.111 0.092 0 0.059 0.051 0.072 0.087 0.072 0.070 0.008 0.134 0.038 0.134 0.143 0 0.080-0.033 0.215-0.050 0.295l-0.377 1.559c-0.053 0.227-0.064 0.274-0.255 0.307-0.054 0.008-0.125 0.021-0.125 0.105 0 0.063 0.047 0.072 0.087 0.072 0.165-0.004 0.326-0.013 0.487-0.021 0.343 0.008 0.692 0.017 1.035 0.021 0.027 0 0.074 0 0.091-0.038 0.020-0.038 0.037-0.127 0.047-0.169l0.033-0.156c0.017-0.067 0.044-0.164 0.044-0.232zM24.728 20.162c-0.162 0-0.031 0.493-0.776 0.493-0.087 0-0.242 0.013-0.242-0.143 0-0.076 0.040-0.227 0.057-0.303l0.162-0.678 0.211-0.008c0.074 0 0.192-0.008 0.252 0.055s0.047 0.177 0.047 0.265c0 0.067-0.003 0.143 0.070 0.143 0.064 0 0.074-0.093 0.084-0.148 0.027-0.219 0.081-0.434 0.141-0.645 0.014-0.046 0.037-0.109 0.037-0.164 0-0.042-0.030-0.067-0.064-0.067-0.057 0-0.080 0.067-0.104 0.127-0.104 0.269-0.299 0.248-0.507 0.248h-0.121l0.195-0.809c0.033-0.152 0.030-0.139 0.161-0.139h0.128c0.091-0.004 0.198-0.013 0.275 0.059 0.091 0.076 0.098 0.173 0.114 0.295 0.006 0.051 0.006 0.114 0.060 0.114 0.031 0 0.051-0.013 0.064-0.042 0.017-0.038 0.054-0.185 0.064-0.227 0.007-0.034 0.091-0.316 0.091-0.345 0-0.042-0.034-0.046-0.057-0.046-0.39 0.004-0.786 0.021-1.176 0.021-0.148 0-0.302-0.017-0.45-0.021-0.050 0-0.080 0.034-0.080 0.101 0 0.063 0.057 0.076 0.101 0.080 0.074 0.008 0.121 0.042 0.121 0.148 0 0.063-0.034 0.198-0.047 0.257l-0.356 1.491c-0.020 0.084-0.064 0.282-0.118 0.345-0.037 0.042-0.121 0.046-0.168 0.051-0.054 0.004-0.114 0.025-0.114 0.101 0 0.059 0.044 0.072 0.081 0.072 0.158-0.004 0.319-0.021 0.481-0.021 0.41 0 0.813 0.017 1.223 0.021 0.118 0 0.101-0.021 0.131-0.16l0.061-0.257c0.010-0.046 0.037-0.139 0.037-0.181 0-0.050-0.030-0.080-0.067-0.080zM27.086 20.651c-0.148-0.042-0.144-0.118-0.198-0.286l-0.155-0.468c-0.037-0.118-0.067-0.261-0.144-0.354 0.306-0.088 0.743-0.329 0.743-0.784s-0.38-0.564-0.679-0.564c-0.232 0.004-0.467 0.021-0.702 0.021-0.135 0-0.276-0.017-0.41-0.021-0.054 0-0.151 0.004-0.151 0.092 0 0.080 0.070 0.076 0.121 0.084 0.064 0.013 0.134 0.030 0.134 0.139 0 0.059-0.020 0.139-0.034 0.202l-0.38 1.58c-0.044 0.189-0.053 0.329-0.235 0.354-0.064 0.008-0.158 0.017-0.158 0.122 0 0.046 0.027 0.072 0.061 0.072 0.164-0.004 0.326-0.021 0.487-0.021s0.323 0.017 0.491 0.021c0.047 0 0.121-0.017 0.121-0.101 0-0.139-0.249-0.021-0.249-0.245 0-0.072 0.017-0.122 0.034-0.194l0.134-0.564 0.064-0.004 0.064-0.008c0.077 0 0.098 0.139 0.121 0.211l0.188 0.64 0.041 0.148c0.017 0.063 0.030 0.118 0.087 0.118 0.108-0.004 0.209-0.021 0.316-0.021s0.209 0.017 0.316 0.021c0.041 0 0.091 0 0.091-0.093-0-0.076-0.068-0.085-0.118-0.097z"></path>
<path fill="#fff" d="M25.961 19.552l0.279-1.171 0.165-0.017c0.188 0 0.329 0.067 0.329 0.341 0 0.463-0.407 0.872-0.773 0.847z"></path>
<path fill="#000" d="M28.966 18.284c-0.158-0.076-0.336-0.122-0.504-0.122-0.185 0-0.383 0.059-0.531 0.198-0.131 0.131-0.232 0.337-0.232 0.548 0 0.358 0.235 0.615 0.423 0.847 0.121 0.148 0.252 0.286 0.252 0.51 0 0.139-0.074 0.269-0.162 0.345-0.080 0.067-0.192 0.097-0.289 0.097-0.108 0-0.232-0.038-0.309-0.135-0.074-0.097-0.081-0.194-0.094-0.316-0.007-0.080-0.007-0.185-0.091-0.185-0.054 0-0.074 0.063-0.084 0.118-0.020 0.101-0.031 0.287-0.031 0.392 0 0.131 0.024 0.152 0.125 0.194 0.161 0.072 0.36 0.101 0.528 0.101 0.222 0 0.443-0.059 0.625-0.219 0.182-0.164 0.296-0.4 0.296-0.678 0-0.32-0.256-0.602-0.424-0.813-0.094-0.118-0.259-0.295-0.259-0.471 0-0.219 0.178-0.363 0.343-0.363 0.437 0 0.246 0.556 0.427 0.556 0.074 0 0.084-0.131 0.094-0.194l0.027-0.131c0.007-0.030 0.024-0.101 0.024-0.139-0-0.076-0.111-0.118-0.155-0.139zM8.35 11.442l0.429-1.091h-1.559c-1.715 0-3.235 0.78-3.235 2.3 0 0.78 0.78 0.896 1.325 0.896s1.247 0.117 1.247 1.13-1.013 2.222-2.495 2.222c-0.857 0-1.676-0.429-1.676-1.247 0-0.429 0.546-1.091 1.715-1.091 0.507 0 1.169 0.195 1.169 0.195l0.156-0.585s-0.312-0.195-1.169-0.195-2.845 0.741-2.845 2.612c0 1.013 1.013 1.442 1.988 1.442s3.664-0.974 4.015-4.092c0.105-0.937-0.424-1.308-1.598-1.364-1.637-0.078-1.13-1.208 0.195-1.208 1.481 0 1.793 0 2.338 0.078z"></path>
<path fill="#000" d="M13.222 13.547c-0.344 0-0.942 0.38-1.234 0.581l0.922-2.803-1.091 0.273-1.313 3.965c-1.278 1.727-2.312 1.040-2.312 0.206 0-0.857 0.935-1.559 1.286-1.559s0.624 0.39 0.624 0.39l0.195-0.857s-0.312-0.195-0.585-0.195c-0.896 0-2.495 1.169-2.495 2.631 0 0.662 0.468 1.267 1.052 1.267 0.506 0 0.984-0.059 1.888-0.835l-0.212 0.64h1.013l0.786-2.388c0.485-0.737 0.915-0.412 0.786 0.002l-0.79 2.386h1.013l0.808-2.458c0.203-0.894 0.125-1.245-0.343-1.245zM30.14 13.547c-0.345 0-0.943 0.38-1.234 0.581l0.922-2.803-1.091 0.273-1.313 3.965c-1.277 1.727-2.312 1.040-2.312 0.206 0-0.857 0.935-1.559 1.286-1.559s0.624 0.39 0.624 0.39l0.195-0.857s-0.312-0.195-0.585-0.195c-0.896 0-2.494 1.169-2.494 2.631 0 0.662 0.468 1.267 1.052 1.267 0.506 0 0.984-0.059 1.888-0.835l-0.212 0.64h1.014l0.785-2.388c0.485-0.737 0.915-0.412 0.787 0.002l-0.79 2.386h1.013l0.809-2.458c0.202-0.894 0.124-1.245-0.343-1.245zM16.38 13.765l-0.786 2.388c-0.485 0.737-0.915 0.412-0.786-0.002l0.79-2.386h-1.013l-0.808 2.458c-0.203 0.894-0.124 1.245 0.343 1.245 0.344 0 0.942-0.381 1.234-0.581l-0.119 0.363h1.006l1.154-3.485-1.014 0zM20.043 13.664c-0.429 0-0.859 0.278-1.108 0.474l0.913-2.813-1.091 0.273-1.348 4.269c-0.234 0.896-0.523 1.578 0.451 1.578 1.988 0 2.806-2.494 2.806-2.845s0.039-0.935-0.624-0.935z"></path>
<path fill="#fff" d="M18.756 14.716l-0.663 2.066s1.023-0.037 1.442-1.715c0.195-0.779-0.78-0.351-0.78-0.351z"></path>
<path fill="#000" d="M23.434 14.132c0.662 0 0.857 0.312 0.857 0.312l0.234-0.663s-0.39-0.156-0.974-0.156c-1.004 0-3.040 0.64-3.040 2.845 0 1.099 1.019 1.077 1.784 0.822l-0.040 0.116h1.006l0.998-2.847h-1.014l-0.628 1.805c-0.146 0.113-0.364 0.221-0.664 0.221-0.429 0-0.431-0.448-0.351-0.702 0.185-0.59 0.779-1.754 1.832-1.754z"></path>
</svg>
