<svg aria-hidden="true" style="position: absolute; width: 0; height: 0; overflow: hidden;" version="1.1" xmlns="http://www.w3.org/2000/svg" xmlns:xlink="http://www.w3.org/1999/xlink">
<defs>
<symbol id="icon-git" viewBox="0 0 32 32">
<path fill="#de4c36" style="fill: var(--color1, #de4c36)" d="M31.396 14.574l-13.972-13.971c-0.804-0.805-2.109-0.805-2.914 0l-2.901 2.901 3.68 3.68c0.855-0.289 1.836-0.095 2.518 0.587 0.685 0.686 0.878 1.675 0.581 2.533l3.547 3.547c0.858-0.296 1.848-0.104 2.534 0.582 0.958 0.957 0.958 2.509 0 3.467s-2.51 0.958-3.469 0c-0.721-0.721-0.898-1.779-0.534-2.667l-3.308-3.308-0 8.705c0.25 0.125 0.464 0.28 0.649 0.464l-0-0c0.958 0.957 0.958 2.509 0 3.468-0.958 0.958-2.511 0.958-3.467 0-0.958-0.959-0.958-2.511 0-3.468 0.224-0.224 0.49-0.405 0.786-0.529l0.016-0.006v-8.786c-0.313-0.13-0.579-0.311-0.803-0.535l-0-0c-0.726-0.725-0.9-1.79-0.528-2.681l-3.628-3.628-9.58 9.579c-0.805 0.805-0.805 2.111 0 2.915l13.972 13.971c0.804 0.805 2.109 0.805 2.914 0l13.906-13.906c0.805-0.805 0.805-2.111 0-2.915z"></path>
</symbol>
<symbol id="icon-github" viewBox="0 0 32 32">
<path d="M15.938 0.438c-8.801 0-15.938 7.136-15.938 15.938 0 7.042 4.567 13.016 10.899 15.124 0.796 0.148 1.089-0.346 1.089-0.767 0-0.38-0.015-1.636-0.022-2.967-4.434 0.964-5.37-1.881-5.37-1.881-0.725-1.842-1.77-2.332-1.77-2.332-1.446-0.989 0.109-0.969 0.109-0.969 1.601 0.113 2.443 1.642 2.443 1.642 1.421 2.437 3.728 1.732 4.638 1.325 0.143-1.030 0.556-1.733 1.012-2.131-3.54-0.403-7.261-1.77-7.261-7.877 0-1.74 0.623-3.162 1.642-4.278-0.165-0.402-0.711-2.023 0.154-4.218 0 0 1.338-0.428 4.384 1.634 1.271-0.353 2.635-0.53 3.989-0.536 1.355 0.006 2.719 0.183 3.993 0.536 3.042-2.062 4.379-1.634 4.379-1.634 0.867 2.195 0.322 3.816 0.156 4.218 1.022 1.116 1.64 2.538 1.64 4.278 0 6.122-3.729 7.47-7.277 7.864 0.572 0.495 1.081 1.465 1.081 2.951 0 2.133-0.018 3.849-0.018 4.374 0 0.424 0.287 0.921 1.095 0.765 6.329-2.11 10.89-8.082 10.89-15.122 0-8.803-7.136-15.938-15.938-15.938z"></path>
<path d="M5.969 23.142c-0.035 0.079-0.16 0.103-0.273 0.049-0.116-0.052-0.181-0.16-0.143-0.239 0.034-0.081 0.159-0.104 0.274-0.049 0.116 0.052 0.182 0.161 0.142 0.24zM6.753 23.841c-0.076 0.070-0.225 0.038-0.325-0.074-0.104-0.111-0.124-0.26-0.047-0.331 0.078-0.070 0.223-0.038 0.327 0.074 0.104 0.112 0.125 0.26 0.045 0.331zM7.291 24.736c-0.098 0.068-0.258 0.004-0.356-0.137-0.098-0.142-0.098-0.312 0.002-0.38s0.256-0.007 0.356 0.134c0.098 0.144 0.098 0.314-0.002 0.384zM8.201 25.773c-0.087 0.096-0.273 0.070-0.41-0.061-0.139-0.128-0.178-0.311-0.090-0.407s0.276-0.069 0.413 0.061c0.138 0.128 0.181 0.312 0.088 0.407zM9.376 26.123c-0.038 0.125-0.218 0.181-0.398 0.128-0.18-0.055-0.298-0.201-0.262-0.327 0.037-0.126 0.217-0.185 0.399-0.128 0.18 0.054 0.298 0.2 0.261 0.326zM10.714 26.271c0.005 0.131-0.149 0.241-0.338 0.243-0.191 0.004-0.345-0.102-0.347-0.232 0-0.133 0.15-0.241 0.34-0.244s0.345 0.102 0.345 0.233zM12.028 26.221c0.023 0.128-0.109 0.26-0.297 0.295-0.185 0.034-0.356-0.045-0.38-0.172-0.023-0.131 0.111-0.263 0.296-0.297 0.188-0.033 0.357 0.044 0.381 0.175z"></path>
</symbol>
<symbol id="icon-jquery" viewBox="0 0 32 32">
<path  d="M9.143 15.014l0-0-0.256 0.906 0.256-0.906zM10.458 16.981v0zM10.385 18.334h0l-1.688 0.006 1.688-0.006zM10.739 16.983v0zM10.533 18.219v0zM16.747 13.055v0zM15.34 13.055v0z"></path>
<path  d="M16.654 12.94h-1.171c-0.065 0-0.129 0.052-0.143 0.116l-0.832 3.847c-0.014 0.064-0.078 0.115-0.143 0.115h-0.829c-0.82 0-0.725-0.567-0.557-1.344l0.005-0.023 0.018-0.098c0.001-0.006 0.002-0.013 0.003-0.018l0.037-0.199 0.040-0.214c0.012-0.064 0.031-0.159 0.043-0.218l0.189-0.924 0.189-0.924c0.013-0.064-0.030-0.116-0.095-0.116h-1.202c-0.065 0-0.129 0.052-0.143 0.116l-0.517 2.452c-0 0.001-0 0.001-0 0.002l-0.024 0.114c-0.298 1.359-0.219 2.655 1.399 2.696 0.026 0.001 0.047 0.001 0.047 0.001h2.54c0.065 0 0.129-0.052 0.143-0.116l1.095-5.149c0.013-0.064-0.029-0.116-0.094-0.116zM21.326 17.031c0.065 0 0.108 0.052 0.095 0.116l-0.114 0.556zM21.193 18.259l0.114-0.556-0.114 0.556 0-0zM21.050 18.376l0.001-0c-0.345 0.003-1.38 0.011-2.159 0.011 0.947 0 2.158-0.010 2.158-0.010zM18.194 16.315c-0.001-0.061 0.068-0.166 0.133-0.166l-0.146-0.002c-0.066 0.663 0.013 0.168 0.013 0.168z"></path>
<path  d="M18.999 18.386c-0.007 0-0.015 0-0.023 0 0.008-0 0.015-0 0.023-0zM21.326 17.031c0.065 0 0.108 0.052 0.095 0.116l-0.114 0.556-0.018 0.091zM19.553 18.385v0zM19.266 18.386v0zM19.178 18.386c-0.009 0-0.018 0-0.028 0 0.009-0 0.018-0 0.028-0zM19.089 18.386v0zM19.249 18.386v0zM21.051 18.376c-0.253 0.002-0.876 0.007-1.498 0.009 0.622-0.003 1.246-0.007 1.498-0.009zM21.193 18.259v0zM19.151 18.386v0zM18.976 18.386v0zM19.064 18.386v0zM1.933 16.329l0.182-0.806-0.208 0.922-0.025 0.116c0.013-0.064 0.036-0.168 0.051-0.231zM4.11 12.926h-1.286c-0.065 0-0.13 0.052-0.144 0.115l-0.244 1.077c-0.014 0.063 0.027 0.115 0.092 0.115h1.296c0.065 0 0.13-0.052 0.144-0.115l0.118-0.538 0.118-0.538v-0c0.014-0.064-0.028-0.116-0.093-0.116zM3.83 14.717v-0l-0.377 1.745 0.377-1.745zM0.094 20.499s0.648 0.008 1.060 0.008c-0.313 0-0.83-0.006-1.061-0.008l0.001 0h-0zM2.297 14.716v0z"></path>
<path  d="M3.737 14.601h-1.296c-0.065 0-0.13 0.052-0.144 0.115l-0.182 0.806-0.182 0.807c-0.014 0.063-0.037 0.168-0.051 0.231l-0.175 0.823-0.175 0.823c-0.014 0.063-0.042 0.166-0.062 0.228 0 0-0.242 0.721-0.649 0.712-0.022-0-0.040-0.001-0.058-0.001l0.007 0c-0.197-0.004-0.352-0.007-0.352-0.007h-0c-0.065-0.001-0.13 0.050-0.145 0.113l-0.269 1.13c-0.015 0.063 0.026 0.115 0.090 0.116 0.231 0.003 0.748 0.009 1.061 0.009 1.017 0 1.553-0.564 1.897-2.185l0.779-3.606c0.014-0.063-0.028-0.115-0.093-0.115zM22.152 18.32c-0.065 0-0.107-0.052-0.093-0.116l0.975-4.568zM23.507 18.204v0z"></path>
<path  d="M22.072 18.263c-0.008-0.032-0.003-0.11 0.010-0.174l0.463-2.168-0.488 2.284c-0.014 0.064 0.028 0.116 0.093 0.116h0.118c-0.065 0-0.189-0.026-0.197-0.058zM23.43 18.294c-0.035 0.014-0.118 0.026-0.183 0.026h0.118c0.065 0 0.129-0.052 0.142-0.116l0.023-0.116c-0.013 0.064-0.065 0.191-0.101 0.206zM23.704 17.23l0.174-0.86c-0 0.001-0 0.001-0 0.002l-0.174 0.859zM27.552 13.943l0.054 0.222c0.015 0.064-0.026 0.115-0.091 0.115zM23.531 18.089v0zM27.499 13.716v0zM23.878 16.369c0.013-0.064 0.034-0.167 0.048-0.23l0.186-0.871-0.211 0.987-0.023 0.114zM23.049 13.562c-0.013 0.061-0.029 0.139-0.041 0.191l-0.462 2.168 0.488-2.284 0.016-0.075z"></path>
<path  d="M27.606 14.165l-0.054-0.222-0.080-0.342c-0.105-0.409-0.414-0.645-1.085-0.645l-3.090-0.002c-0.065 0-0.129 0.052-0.143 0.116l-0.048 0.226-0.056 0.267-0.016 0.075-0.95 4.452c-0.014 0.064-0.018 0.142-0.011 0.174s0.133 0.058 0.198 0.058h0.977c0.065 0 0.147-0.012 0.183-0.026s0.088-0.142 0.101-0.206l0.348-1.718c0-0 0-0.001 0-0.001l0.023-0.115 0.397-1.858c0.014-0.063 0.078-0.115 0.143-0.115l3.074-0.002c0.064-0 0.105-0.052 0.090-0.116z"></path>
<path  d="M31.562 12.158c-0.065 0-0.171 0.001-0.236 0.001h-0.984c-0.065 0-0.148 0.044-0.185 0.098l-2.175 3.187c-0.037 0.054-0.079 0.046-0.093-0.018l-0.16-0.702c-0.015-0.063-0.080-0.115-0.145-0.115h-1.398c-0.065 0-0.104 0.051-0.086 0.114l0.627 2.195c0.018 0.063 0.019 0.166 0.003 0.228l-0.273 1.063c-0.016 0.063 0.024 0.115 0.089 0.115h1.382c0.065 0 0.131-0.052 0.148-0.115l0.273-1.063c0.016-0.063 0.061-0.157 0.101-0.209l3.532-4.687c0.039-0.052 0.018-0.094-0.047-0.094l-0.371 0.002zM20.452 14.907l-0-0.001c-0.008 0.071-0.074 0.122-0.139 0.122h-1.773c-0.061 0-0.093-0.042-0.084-0.093 0.001-0.002 0.001-0.003 0.001-0.004 0 0-0.001 0-0.001 0.001 0.001-0.002 0.001-0.004 0.001-0.006 0 0 0.004-0.012 0.008-0.030 0.169-0.45 0.514-0.746 1.163-0.746 0.73-0 0.872 0.356 0.823 0.757zM19.932 12.861c-2.276 0-2.815 1.381-3.118 2.776-0.303 1.421-0.277 2.75 2.079 2.75h0.084c0.007-0 0.015-0 0.023-0h0.152c0.009-0 0.018-0 0.028-0l0.088-0c0.093-0 0.188-0.001 0.282-0.001h0.005c0.622-0.002 1.246-0.007 1.498-0.009 0.065-0.001 0.128-0.053 0.141-0.116l0.095-0.466 0.019-0.091 0.114-0.556c0.013-0.064-0.029-0.116-0.095-0.116h-2.117c-0.842 0-1.092-0.224-1-0.882l3.384 0c0.001 0 0.002-0 0.002-0 0.054-0.001 0.104-0.038 0.123-0.088 0.004-0.009 0.007-0.019 0.008-0.030l-0 0c0.502-1.895 0.358-3.172-1.795-3.172zM9.175 14.9l-0.032 0.113-0 0-0.511 1.811c-0.018 0.063-0.085 0.114-0.15 0.114h-1.353c-1.026 0-1.276-0.802-1.026-1.986 0.25-1.211 0.74-1.963 1.749-2.039 1.38-0.104 1.656 0.867 1.323 1.987zM10.103 16.869s0.638-1.548 0.783-2.443c0.198-1.197-0.401-2.934-2.717-2.934-2.302 0-3.302 1.658-3.684 3.46-0.381 1.815 0.118 3.407 2.408 3.394l3.494-0.013c0.065-0.001 0.131-0.052 0.148-0.115l0.294-1.122c0.016-0.063-0.023-0.115-0.088-0.115l-0.563-0.003c-0.055-0.001-0.087-0.036-0.080-0.084 0.001-0.010 0.004-0.019 0.007-0.027l-0 0.001h-0v-0z"></path>
<path  d="M21.5 15.833c0 0.043-0.035 0.078-0.078 0.078s-0.078-0.035-0.078-0.078 0.035-0.077 0.078-0.077c0.043-0 0.078 0.035 0.078 0.077z"></path>
</symbol>
<symbol id="icon-sass" viewBox="0 0 32 32">
<path  d="M27.538 17.788c-1.119 0.006-2.087 0.275-2.9 0.675-0.3-0.594-0.6-1.113-0.65-1.5-0.056-0.45-0.125-0.725-0.056-1.262s0.381-1.3 0.381-1.363c-0.006-0.056-0.069-0.331-0.712-0.338s-1.2 0.125-1.262 0.294-0.188 0.556-0.269 0.956c-0.113 0.588-1.288 2.669-1.956 3.763-0.219-0.425-0.406-0.8-0.444-1.1-0.056-0.45-0.125-0.725-0.056-1.262s0.381-1.3 0.381-1.363c-0.006-0.056-0.069-0.331-0.712-0.338s-1.2 0.125-1.262 0.294-0.131 0.569-0.269 0.956c-0.131 0.387-1.694 3.863-2.1 4.769-0.206 0.462-0.387 0.831-0.519 1.081s-0.006 0.019-0.019 0.044c-0.113 0.212-0.175 0.331-0.175 0.331v0.006c-0.088 0.156-0.181 0.306-0.225 0.306-0.031 0-0.094-0.419 0.012-0.994 0.231-1.206 0.794-3.087 0.788-3.156 0-0.031 0.106-0.363-0.363-0.531-0.456-0.169-0.619 0.113-0.656 0.113s-0.069 0.1-0.069 0.1 0.506-2.119-0.969-2.119c-0.925 0-2.2 1.006-2.831 1.925-0.4 0.219-1.25 0.681-2.15 1.175-0.344 0.188-0.7 0.387-1.037 0.569l-0.069-0.075c-1.788-1.906-5.094-3.256-4.956-5.819 0.050-0.931 0.375-3.388 6.35-6.362 4.894-2.438 8.813-1.769 9.494-0.281 0.969 2.125-2.094 6.075-7.181 6.644-1.938 0.219-2.956-0.531-3.213-0.813-0.269-0.294-0.306-0.306-0.406-0.25-0.162 0.088-0.063 0.35 0 0.506 0.15 0.394 0.775 1.094 1.838 1.444 0.931 0.306 3.206 0.475 5.956-0.588 3.081-1.194 5.488-4.506 4.781-7.275-0.719-2.819-5.394-3.744-9.813-2.175-2.631 0.938-5.481 2.4-7.531 4.319-2.438 2.275-2.825 4.262-2.663 5.088 0.569 2.944 4.625 4.862 6.25 6.281-0.081 0.044-0.156 0.087-0.225 0.125-0.813 0.4-3.906 2.019-4.681 3.731-0.875 1.938 0.137 3.331 0.813 3.519 2.088 0.581 4.225-0.462 5.381-2.181 1.15-1.719 1.012-3.95 0.481-4.969l-0.019-0.038 0.637-0.375c0.413-0.244 0.819-0.469 1.175-0.663-0.2 0.544-0.344 1.188-0.419 2.125-0.088 1.1 0.363 2.525 0.956 3.087 0.262 0.244 0.575 0.25 0.769 0.25 0.688 0 1-0.569 1.344-1.25 0.425-0.831 0.8-1.794 0.8-1.794s-0.469 2.606 0.813 2.606c0.469 0 0.938-0.606 1.15-0.919v0.006s0.012-0.019 0.037-0.063c0.021-0.030 0.046-0.069 0.069-0.108l0.006-0.010v-0.012c0.188-0.325 0.606-1.069 1.231-2.3 0.806-1.587 1.581-3.575 1.581-3.575s0.075 0.488 0.306 1.288c0.137 0.475 0.437 0.994 0.669 1.5-0.188 0.262-0.3 0.413-0.3 0.413l0.006 0.006c-0.15 0.2-0.319 0.413-0.494 0.625-0.637 0.762-1.4 1.631-1.5 1.881-0.119 0.294-0.094 0.512 0.137 0.688 0.169 0.125 0.469 0.15 0.788 0.125 0.575-0.038 0.975-0.181 1.175-0.269 0.313-0.113 0.669-0.281 1.012-0.531 0.625-0.462 1.006-1.119 0.969-1.994-0.019-0.481-0.175-0.956-0.369-1.406 0.056-0.081 0.113-0.163 0.169-0.25 0.988-1.444 1.75-3.031 1.75-3.031s0.075 0.488 0.306 1.288c0.119 0.406 0.356 0.85 0.569 1.288-0.925 0.756-1.506 1.631-1.706 2.206-0.369 1.063-0.081 1.544 0.462 1.656 0.244 0.050 0.594-0.063 0.856-0.175 0.325-0.106 0.719-0.288 1.081-0.556 0.625-0.462 1.225-1.106 1.194-1.975-0.019-0.4-0.125-0.794-0.269-1.169 0.788-0.325 1.806-0.512 3.1-0.356 2.781 0.325 3.331 2.063 3.225 2.788s-0.688 1.125-0.881 1.25c-0.194 0.119-0.256 0.163-0.238 0.25 0.025 0.131 0.113 0.125 0.281 0.1 0.231-0.038 1.462-0.594 1.512-1.931 0.075-1.719-1.556-3.594-4.45-3.575zM6.088 25.019c-0.919 1.006-2.212 1.387-2.763 1.063-0.594-0.344-0.363-1.825 0.769-2.894 0.688-0.65 1.581-1.25 2.169-1.619 0.131-0.081 0.331-0.2 0.569-0.344 0.037-0.025 0.063-0.038 0.063-0.038 0.044-0.025 0.094-0.056 0.144-0.087 0.419 1.525 0.019 2.863-0.95 3.919zM12.806 20.45c-0.319 0.781-0.994 2.788-1.4 2.675-0.35-0.094-0.563-1.613-0.069-3.113 0.25-0.756 0.781-1.656 1.094-2.006 0.506-0.563 1.056-0.75 1.194-0.519 0.162 0.3-0.619 2.475-0.819 2.963zM18.35 23.1c-0.137 0.069-0.262 0.119-0.319 0.081-0.044-0.025 0.056-0.119 0.056-0.119s0.694-0.744 0.969-1.087c0.156-0.2 0.344-0.431 0.544-0.694v0.075c0 0.9-0.862 1.5-1.25 1.744zM22.625 22.125c-0.1-0.075-0.087-0.306 0.25-1.031 0.131-0.288 0.431-0.769 0.95-1.225 0.063 0.188 0.1 0.369 0.094 0.538-0.006 1.125-0.806 1.544-1.294 1.719z"></path>
</symbol>
<symbol id="icon-vscode" viewBox="0 0 32 32">
<path  d="M0.765 11.477s-0.765-0.551 0.153-1.288l2.139-1.913s0.612-0.644 1.259-0.083l19.737 14.943v7.166s-0.010 1.125-1.454 1.001z"></path>
<path  d="M5.852 16.096l-5.087 4.625s-0.523 0.389 0 1.084l2.362 2.148s0.561 0.602 1.39-0.083l5.393-4.090z"></path>
<path  d="M14.784 16.134l9.33-7.124-0.061-7.127s-0.398-1.556-1.728-0.746l-12.416 11.3z"></path>
<path  d="M22.6 31.313c0.542 0.555 1.199 0.373 1.199 0.373l7.271-3.583c0.931-0.634 0.8-1.422 0.8-1.422v-21.395c0-0.94-0.963-1.265-0.963-1.265l-6.302-3.038c-1.377-0.851-2.279 0.153-2.279 0.153s1.16-0.835 1.728 0.746v28.29c0 0.194-0.041 0.386-0.124 0.558-0.166 0.335-0.526 0.647-1.39 0.516z"></path>
</symbol>
</defs>
</svg>
