<svg aria-hidden="true" style="position: absolute; width: 0; height: 0; overflow: hidden;" version="1.1" xmlns="http://www.w3.org/2000/svg" xmlns:xlink="http://www.w3.org/1999/xlink">
<defs>
<symbol id="icon-coca-cola" viewBox="0 0 98 32">
<path fill="#e61a27" style="fill: var(--color1, #e61a27)" d="M37.51 27.909c-3.635-2.341-8.567-2.752-16.522-0.545-8.481 1.993-11.308 3.27-15.022 0.706-1.427-1.26-1.938-3.288-1.556-6.21 0.886-4.763 3.28-9.347 7.532-14.431 2.373-2.645 4.575-4.915 7.482-5.826 2.228-0.572 2.020 1.179 1.75 1.43-0.285 0-0.762 0.045-1.132 0.286-0.3 0.232-1.123 0.983-1.167 1.993-0.064 1.546 1.536 1.224 2.226 0.375 0.744-0.956 1.843-2.788 0.978-4.495-0.362-0.608-0.989-1.027-1.766-1.17-2.662-0.152-5.141 1.117-7.429 2.52-5.004 3.476-9.007 8.293-11.272 13.565-1.306 3.181-2.487 7.738-0.717 11.447 1.369 2.573 4.212 3.94 7.604 3.654 2.379-0.25 5.255-1.019 7.19-1.483s11.838-3.869 15.092 2.056c0 0 1.082-2.101 3.786-2.145 2.223-0.205 5.431 0.644 7.766 2.359-0.778-1.17-2.984-2.895-4.825-4.084z"></path>
<path fill="#e61a27" style="fill: var(--color1, #e61a27)" d="M21.998 8.027c-1.852-1.215-5.575 1.108-8.557 5.093-2.727 3.575-3.904 7.729-2.623 9.651 1.906 2.261 5.445-1.028 6.949-2.788l0.194-0.206c1.023-1.099 1.814-2.422 2.579-3.691 0 0 0.703-1.162 0.737-1.215 0.435-0.080 0.958-0.205 1.548-0.375-0.008 0.027-2.257 3.807-2.028 5.683 0.071 0.572 0.017 2.663 2.058 3.298 2.721 0.456 4.894-1.653 6.81-3.53 0 0 0.327-0.312 0.511-0.491-0.047 0.187-0.108 0.437-0.108 0.437-0.797 2.77 0.277 3.352 0.949 3.566 2.030 0.59 4.455-2.359 4.463-2.359-0.063 0.929-0.247 1.697 0.732 2.314 0.924 0.331 1.86-0.174 2.571-0.647 2.561-1.805 4.624-4.63 6.291-7.072h-1.063c-0.013 0-2.623 3.784-4.318 4.606-0.003 0-0.311 0.158-0.489 0.033-0.22-0.188-0.133-0.578 0.003-0.854 0.009-0.018 6.545-11.355 6.545-11.355h-3.086s-0.337 0.545-0.365 0.581c-0.021-0.018-0.070-0.112-0.104-0.157-1.912-2.645-6.242 1.423-9.502 6.141-1.255 1.814-2.853 3.857-4.51 5.331 0 0-2.455 2.25-3.503 0.633-0.383-0.679-0.265-1.672-0.049-2.324 1.221-3.476 3.325-6.631 5.72-8.534 0.676-0.527 1.411-0.679 1.775-0.456 0.347 0.206 0.404 0.715 0.184 1.063-0.558-0.018-1.005 0.152-1.368 0.527-0.715 0.751-0.964 1.475-0.737 2.154 1.105 1.573 3.309-1.537 3.203-3.431-0.038-0.679-0.4-1.322-0.941-1.636-0.806-0.482-2.036-0.357-2.831 0.027-1.065 0.402-2.751 1.805-3.736 2.895-1.239 1.367-3.364 2.886-4.029 2.716 0.217-0.581 2.012-4.253 0.124-5.629zM36.877 13.46c0.6-0.831 2.348-3.056 2.774-3.431 1.433-1.26 2.005-0.706 2.055-0.313-1.337 2.395-2.915 5.138-4.399 7.605 0.003-0.009-0.464 0.706-0.464 0.706-0.655 1-1.315 1.858-2.391 2.457-0.153 0.045-0.406 0.063-0.575-0.063-0.203-0.134-0.283-0.358-0.26-0.59 0.065-0.768 0.847-3.118 3.261-6.371zM20.087 14.898s-0.027 0.081-0.040 0.107c-0.003 0-1.346 2.189-1.346 2.189-0.81 1.081-1.821 2.44-3.086 3.092-0.375 0.125-0.893 0.206-1.157-0.125-0.56-0.67-0.271-1.6-0.037-2.35l0.083-0.268c0.672-1.823 1.738-3.431 2.775-4.924 0.013-0.009 0.042-0.018 0.052-0.018 0.003 0.009 0.007 0.009 0.008 0.027 0.651 1.251 1.872 1.831 2.785 2.1 0.006 0 0.011 0.009 0.011 0.027 0 0.027-0.015 0.063-0.050 0.143zM21.359 12.316c-0.006 0.018-0.598 1.376-0.598 1.376-0.086 0.071-0.221 0.036-0.376 0l-0.266-0.045c-0.834-0.259-1.464-0.813-1.658-1.474-0.268-1.287 0.832-2.297 1.316-2.663 0.465-0.322 1.187-0.492 1.607-0.161 0.259 0.304 0.357 0.697 0.357 1.126 0 0.581-0.179 1.233-0.382 1.841zM60.375 16.462c-0.298-0.643-1.004-1.054-1.757-1.010-2.445 0.224-4.836 2.234-6.092 5.12-0.659 1.484-1.018 2.708-1.254 4.656 0.76-0.875 2.311-2.314 4.071-3.101 0 0 0.239-1.868 1.46-3.53 0.462-0.688 1.387-1.796 2.425-1.501 0.907 0.304 0.588 2.815-0.617 5.245-0.892 1.787-2.257 3.575-3.638 4.808-1.221 1.037-3.028 2.288-4.609 1.323-0.996-0.59-1.503-1.823-1.396-3.414 0.476-4.512 2.53-8.355 5.469-12.733 3.031-4.066 6.372-8.239 10.873-10.464 0.918-0.465 1.768-0.572 2.503-0.286 0 0-4.225 2.323-6.239 6.622-0.512 1.090-1.225 2.564-0.507 3.869 0.375 0.679 1.041 0.733 1.577 0.697 2.469-0.572 4.064-2.877 5.367-4.986 0.756-1.599 1.427-3.19 1.427-4.959 0-0.214-0.011-0.5-0.029-0.715 1.179-0.625 3.598 0.483 3.598 0.483 1.89 0.626 5.914 3.709 7.272 4.298 0.662-0.768 1.75-1.93 2.363-2.511l-0.887-0.545c-1.42-0.867-2.921-1.689-4.398-2.502-3.355-1.832-6.086-1.188-7.476-0.688-0.546 0.196-1.045 0.366-1.045 0.366-1.031-1.126-2.723-1.019-3.97-0.715-4.483 1.287-8.645 4.423-13.107 9.865-3.281 4.263-5.316 7.944-6.4 11.581-0.836 2.448-1.090 6.049 0.95 8.185 1.735 1.814 4.035 1.421 5.66 0.769 3.52-1.734 6.683-5.469 8.26-9.767 0.38-1.278 0.803-3.083 0.148-4.459zM68.469 2.996c-0.466 5.344-4.62 8.48-5.648 8.73-0.623 0.125-1.686-0.152-0.737-2.394 1.397-3.021 3.783-5.585 6.342-6.899 0.062 0.223 0.061 0.366 0.043 0.563zM93.108 3.675c-2.234 1.269-4.551 2.091-7.354 1.805-0.777 0.876-1.534 1.778-2.231 2.708 3.935 1.001 8.107-1.224 10.434-3.342 2.461-2.136 3.723-4.825 3.723-4.825s-1.845 2.109-4.572 3.654zM50.883 8.125h-2.931l-1.653 2.686h2.93z"></path>
<path fill="#e61a27" style="fill: var(--color1, #e61a27)" d="M85.742 28.157c-0.315 0.214-0.758 0.050-0.592-0.442 0.412-1.251 2.052-3.8 2.052-3.8l4.566-8.098h-3.128c-0.149 0.244-0.467 0.805-0.467 0.805-0.145-0.241-0.577-0.777-0.756-0.893-0.764-0.483-1.885-0.255-2.659 0.183-3.362 1.966-5.816 5.851-7.751 8.88 0 0-2.037 3.368-3.167 3.618-0.883 0.072-0.792-1.117-0.753-1.395 0.341-2.002 1.134-3.905 1.932-5.63 1.624-1.126 3.478-2.6 5.162-4.218 3.655-3.494 6.737-7.453 7.188-8.338 0 0-0.488 0.098-1.063 0.116-2.812 3.923-8.567 9.624-10.312 10.473 0.773-1.859 5.767-10.732 10.016-14.977l0.669-0.644c1.034-1.010 2.105-2.046 2.94-2.216 0.088-0.009 0.202 0 0.3 0.206 0.037 0.786-0.255 1.367-0.591 2.028l-0.471 0.965s0.667-0.125 1.104-0.269c0.508-0.956 1.070-2.028 0.863-3.306-0.069-0.411-0.367-0.724-0.756-0.795-1.268-0.241-2.649 0.697-3.761 1.457l-0.045 0.027c-5.715 4.477-10.54 10.929-14.759 19.74-0.306 0.232-1.487 0.509-1.688 0.375 0.417-0.858 0.941-2.011 1.204-3.262 0.045-0.358 0.088-0.724 0.088-1.081 0-0.769-0.185-1.493-0.874-1.993-0.808-0.402-1.806-0.214-2.48 0.089-3.016 1.251-5.269 4.343-6.896 6.889-0.875 1.618-1.747 3.351-1.988 5.335-0.17 1.555 0.176 2.556 1.060 3.056 0.909 0.464 2.053-0.018 2.502-0.25 3.055-1.609 5.19-4.834 6.872-7.783 0.067-0.009 0.986-0.035 1.681-0.214 0.009 0 0.013 0 0.028 0.009-0.040 0.134-0.399 1.206-0.399 1.206-1.066 3.127-1.56 5.254-0.552 6.514 1.439 1.778 3.823-0.062 5.761-2.493-0.416 2.913 1.094 3.369 2.244 3.146 1.322-0.357 2.795-1.769 3.479-2.493-0.22 0.849-0.16 2.368 1.043 2.52 0.824 0.152 1.441-0.296 2.155-0.68 2.56-1.394 5.625-6.040 6.421-7.383h-1.043c-1.131 1.71-2.571 3.951-4.381 5.015zM62.761 27.846c-0.162-0.241-0.216-0.505-0.222-0.79-0.031-1.752 1.854-4.89 3.185-6.599h0.003c0.558 1.221 1.82 2.006 2.583 2.337-0.947 2.109-4.194 6.626-5.548 5.053zM68.843 21.85c-0.090 0.063-1.682-0.474-1.99-1.948-0.261-1.269 0.613-2.261 1.459-2.761 0.363-0.286 0.91-0.384 1.311-0.242 0.372 0.251 0.473 0.698 0.473 1.18 0 0.295-0.039 0.599-0.074 0.876l-0.008 0.063c-0.294 1.077-0.694 2.018-1.202 2.889l0.030-0.057zM81.615 27.284c-0.001 0-0.302 0.268-0.302 0.268-0.43 0.384-0.872 0.795-1.405 0.59-0.147-0.053-0.251-0.25-0.276-0.402-0.024-1.099 0.471-2.118 0.951-3.109l0.123-0.259c1.381-2.305 2.986-5.022 5.343-6.907 0.397-0.287 0.828-0.527 1.283-0.34 0.105 0.098 0.227 0.268 0.227 0.438 0 0.054-0.048 0.197-0.075 0.241-0.658 1.064-1.285 2.181-1.895 3.253-1.191 2.118-2.427 4.307-3.973 6.228z"></path>
</symbol>
<symbol id="icon-fedex" viewBox="0 0 115 32">
<path fill="#ff5a00" style="fill: var(--color2, #ff5a00)" d="M114.729 27.839c0-1.778-1.261-3.081-2.998-3.081-1.734 0-2.997 1.302-2.997 3.081 0 1.776 1.263 3.076 2.997 3.076 1.737 0 2.999-1.302 2.999-3.076zM110.943 27.997v2.012h-0.65v-4.437h1.615c0.947 0 1.381 0.413 1.381 1.219 0 0.496-0.335 0.89-0.768 0.947v0.019c0.375 0.060 0.513 0.395 0.59 1.007 0.059 0.397 0.138 1.085 0.279 1.247h-0.769c-0.179-0.417-0.161-1.007-0.299-1.501-0.114-0.376-0.315-0.513-0.745-0.513h-0.631v0.002l-0.004-0.001zM111.749 27.423c0.631 0 0.812-0.336 0.812-0.633 0-0.351-0.18-0.628-0.812-0.628h-0.806v1.262h0.806v-0.001zM108.019 27.839c0-2.191 1.74-3.672 3.709-3.672 1.975 0 3.713 1.481 3.713 3.672 0 2.187-1.737 3.669-3.713 3.669-1.97 0-3.709-1.483-3.709-3.669zM95.164 30.868l-4.276-4.796-4.239 4.796h-8.919l8.717-9.793-8.717-9.796h9.198l4.32 4.759 4.156-4.759h8.876l-8.674 9.755 8.794 9.835zM60.603 30.868v-30.86h17.127v6.879h-9.872v4.392h9.872v6.619h-9.872v6.075h9.872v6.896z"></path>
<path fill="#29007c" style="fill: var(--color3, #29007c)" d="M53.376 0.008v12.63h-0.080c-1.6-1.838-3.599-2.479-5.917-2.479-4.75 0-8.329 3.232-9.585 7.501-1.433-4.705-5.128-7.589-10.605-7.589-4.449 0-7.962 1.996-9.796 5.25v-4.043h-9.195v-4.39h10.036v-6.878h-18.233v30.859h8.197v-12.971h8.17c-0.238 0.905-0.374 1.944-0.374 3.015 0 0.013 0 0.025 0 0.038v-0.002c0 6.434 4.917 10.956 11.195 10.956 5.277 0 8.757-2.48 10.596-6.994h-7.025c-0.949 1.359-1.671 1.76-3.571 1.76-2.202 0-4.102-1.922-4.102-4.198h14.304c0.62 5.112 4.603 9.519 10.069 9.519 2.358 0 4.517-1.159 5.836-3.118h0.079v1.999h7.227v-30.863l-7.226-0.001zM23.313 17.99c0.457-1.961 1.977-3.242 3.874-3.242 2.089 0 3.532 1.242 3.911 3.242h-7.786zM48.99 26.172c-2.663 0-4.318-2.481-4.318-5.073 0-2.77 1.44-5.432 4.318-5.432 2.986 0 4.176 2.663 4.176 5.432 0 2.625-1.26 5.073-4.176 5.073z"></path>
</symbol>
<symbol id="icon-gopro" viewBox="0 0 123 32">
<path fill="#fff" style="fill: var(--color4, #fff)" d="M25.613 12.577c0 1.514-0.938 2.639-2.815 3.378-1.457 0.576-3.234 0.866-5.332 0.866h-8.602c-2.256 0-4.149-0.263-5.688-0.781-2.115-0.711-3.176-1.845-3.176-3.407v-8.35c0-1.5 1.078-2.608 3.24-3.327 1.707-0.538 3.589-0.809 5.653-0.809h3.415c0.921 0 1.381 0.411 1.381 1.234 0 0.827-0.46 1.243-1.381 1.243h-1.043c-0.099 0-0.157-0.004-0.169-0.014-0.262-0.009-0.495-0.012-0.699-0.017s-0.373-0.010-0.495-0.010c-4.074 0-6.114 0.565-6.114 1.695v8.343c0 1.131 1.708 1.697 5.123 1.697h8.56c0.816 0 1.69-0.121 2.611-0.369 1.159-0.312 1.742-0.729 1.742-1.261v-1.775h-5.322c-0.702 0-1.277-0.6-1.277-1.335 0-0.736 0.575-1.337 1.277-1.337h6.401c0.323-0.033 0.788-0.030 1.382-0.030 0.885 0 1.328 0.356 1.328 1.071v3.297zM47.963 12.661v-5.053c0-1.039-1.469-1.572-4.441-1.572h-5.874c-1.084 0-2.063 0.113-2.938 0.338-1.224 0.338-1.818 0.815-1.818 1.46v4.828c0 0.617 0.63 1.095 1.853 1.376 0.839 0.196 1.818 0.282 2.938 0.282h5.84c0.001 0 0.002 0 0.003 0 0.954 0 1.882-0.113 2.77-0.326l-0.081 0.016c1.154-0.309 1.749-0.758 1.749-1.348zM51.599 12.661c0 1.517-0.909 2.611-2.763 3.286-1.293 0.534-3.042 0.814-5.21 0.814h-5.979c-1.993 0-3.777-0.281-5.385-0.814-1.993-0.702-2.972-1.797-2.972-3.286v-4.829c0-1.46 0.979-2.582 2.938-3.34 1.469-0.591 3.251-0.871 5.385-0.871h6.014c5.315 0 7.972 1.376 7.972 4.183v4.856zM95.184 4.969c0 0.729-0.559 1.095-1.608 1.095-0.14 0-0.35 0-0.629-0.029h-0.664c-2.763 0-4.127 0.534-4.127 1.657v7.973c0 0.534-0.279 0.87-0.768 1.011-0.211 0.056-0.734 0.084-1.573 0.084s-1.259-0.366-1.259-1.095v-7.973c0-1.741 1.084-2.892 3.288-3.509 1.329-0.393 3.322-0.562 5.98-0.562 0.908 0 1.361 0.448 1.361 1.347zM116.346 12.661v-5.053c0-1.039-1.469-1.572-4.441-1.572h-5.875c-1.084 0-2.062 0.113-2.937 0.338-1.224 0.338-1.818 0.815-1.818 1.46v4.828c0 0.617 0.63 1.095 1.853 1.376 0.84 0.196 1.818 0.282 2.935 0.282h5.841c0.944 0 1.852-0.113 2.691-0.31 1.156-0.309 1.751-0.758 1.751-1.348zM119.982 12.661c0 1.517-0.91 2.611-2.762 3.286-1.294 0.534-3.043 0.814-5.21 0.814h-5.98c-1.993 0-3.776-0.281-5.384-0.814-1.994-0.702-2.973-1.797-2.973-3.286v-4.829c0-1.46 0.978-2.582 2.936-3.34 1.47-0.591 3.252-0.871 5.386-0.871h6.014c5.314 0 7.972 1.376 7.972 4.183v4.856h0.001zM77.511 6.194v-2.275c0-0.954-1.648-1.46-4.941-1.46h-13.422v5.785h13.422c3.293 0 4.941-0.702 4.941-2.050zM81.295 6.306c0 1.657-1.050 2.864-3.118 3.624-1.612 0.533-3.541 0.786-5.816 0.786h-13.212v4.888c0 0.533-0.245 0.869-0.807 1.009-0.139 0.056-0.7 0.085-1.647 0.085-0.876 0-1.332-0.365-1.332-1.095v-14.547c0-0.703 0.455-1.068 1.332-1.068h15.839c2.138 0 3.96 0.253 5.466 0.703 2.208 0.673 3.294 1.684 3.294 3.005v2.611h0.001zM40.871 26.492c-0.16 0.673-0.036 1.461 0.123 1.755 0.158 0.293 0.676 0.554 1.069 0.554 0.404 0 0.978-0.191 1.267-0.477 0.291-0.287 0.693-0.974 0.87-1.719 0.151-0.627 0.038-1.224-0.123-1.514-0.162-0.289-0.645-0.676-1.043-0.676-0.378 0-0.99 0.174-1.291 0.468-0.299 0.293-0.71 0.931-0.873 1.609zM39.144 26.55c0.261-1.087 0.923-1.988 1.621-2.593 0.7-0.606 1.596-0.727 2.584-0.727 1.013 0 1.754 0.415 2.16 1.012 0.405 0.594 0.628 1.406 0.37 2.478-0.172 0.722-0.47 1.356-0.872 1.91l0.011-0.015c-0.359 0.498-0.852 0.811-1.37 1.089-0.52 0.278-1.137 0.341-1.813 0.341-0.687 0-1.226-0.119-1.619-0.36-0.392-0.24-0.846-0.617-1.002-1.137-0.155-0.518-0.256-1.219-0.069-1.998zM32.233 29.844l1.439-6.512 2.986 0.011c0.064 0 2.2-0.109 2.095 1.699-0.075 1.315-0.653 1.463-1.813 2.074 0.584 0.971 0.785 1.493 1.556 2.728h-1.944c-0.215-0.617-1.143-2.362-1.148-2.362l-1.006-0.011-0.512 2.383-1.654-0.010zM34.722 26.298h1.145c1.062 0 1.568-1.667 0.464-1.684l-1.198-0.023-0.411 1.707zM28.034 23.353l4.689 0.022-0.246 1.199-3.027 0.021-0.274 1.155 2.82 0.011-0.263 1.242h-2.884l-0.336 1.652 2.991-0.052-0.181 1.263-4.748-0.053zM21.003 23.332l1.71 0.011-0.581 2.374 2.461 0.064 0.528-2.427 1.698 0.022-1.482 6.469-1.687 0.010 0.647-2.843-2.461-0.021-0.679 2.864-1.678-0.010zM45.932 29.835h1.555l0.429-1.695h-1.555z"></path>
<path fill="#00aeef" style="fill: var(--color5, #00aeef)" d="M52.167 20.864h14.416v11.023h-14.416zM69.556 20.864h14.416v11.023h-14.416z"></path>
<path fill="#005dac" style="fill: var(--color6, #005dac)" d="M87.059 20.863h14.415v11.022h-14.415z"></path>
<path fill="#fff" style="fill: var(--color7, #fff)" d="M104.93 20.864h14.416v11.023h-14.416z"></path>
<path fill="#fff" style="fill: var(--color4, #fff)" d="M13.481 26.883h1.116c-0.012-0.384 0.262-0.578 0.813-0.576 0.456 0.010 0.711 0.156 0.763 0.431 0 0.356 0.007 0.69 0.015 1.023-0.245-0.286-0.701-0.452-1.368-0.497-1.055 0.099-1.564 0.586-1.526 1.463 0.038 0.767 0.586 1.174 1.641 1.217 0.554 0.025 0.977-0.139 1.273-0.511 0.008 0.16 0.008 0.306 0.008 0.453h1.029c0.008-1.112 0.008-2.217 0.008-3.322-0.259-0.577-0.694-0.883-1.296-0.921-0.53-0.014-1.053-0.014-1.576-0.014-0.653 0.184-0.945 0.599-0.901 1.255zM8.685 25.602h1.058c0.787 0 1.431 0.635 1.431 1.409v0.886h-2.862c-0.121 0.872 0.104 1.294 0.66 1.27 0.203-0.012 0.419-0.012 0.635-0.012 0.369 0.033 0.543-0.166 0.535-0.648h1.033v0.025c0 0.774-0.644 1.409-1.431 1.409h-1.058c-0.787 0-1.431-0.634-1.431-1.409v-1.521c-0.002-0.775 0.642-1.41 1.43-1.41zM2.114 23.832v6.008h3.485c0.945 0.063 1.426-0.469 1.443-1.582 0.042-0.777-0.278-1.285-0.97-1.509 0.543-0.104 0.834-0.561 0.859-1.382-0.059-0.976-0.597-1.492-1.618-1.558-1.080 0.004-2.158 0.007-3.199 0.023z"></path>
<path fill="#fff" style="fill: var(--color7, #fff)" d="M3.272 24.843v1.533c0.601-0.012 1.166-0.012 1.73-0.012 0.49 0.008 0.725-0.238 0.721-0.722-0.025-0.44-0.232-0.695-0.622-0.773-0.097 0.001-0.211 0.001-0.325 0.001-0.529 0-1.056-0.009-1.581-0.028l0.076 0.002zM3.272 27.235v1.669c0.643-0.012 1.248-0.012 1.852-0.012 0.525 0.010 0.778-0.258 0.773-0.788-0.027-0.479-0.249-0.756-0.667-0.842-0.088 0.001-0.192 0.001-0.296 0.001-0.585 0-1.167-0.010-1.747-0.030l0.084 0.002zM10.142 27.309c0.054-0.651-0.232-0.963-0.871-0.945-0.71-0.005-1.029 0.315-0.958 0.958 0.338-0.013 0.736-0.021 1.135-0.021 0.244 0 0.488 0.003 0.731 0.009l-0.036-0.001zM16.188 28.417c-0.207-0.367-0.662-0.49-1.366-0.365-0.39 0.17-0.54 0.429-0.449 0.779 0.101 0.441 0.574 0.57 1.426 0.363 0.31-0.124 0.439-0.38 0.389-0.777zM121.92 15.277c0.008-0 0.019-0 0.029-0 0.849 0 1.537 0.688 1.537 1.537s-0.688 1.537-1.537 1.537c-0.010 0-0.019-0-0.028-0l0.001 0c-0.837-0.015-1.51-0.697-1.51-1.536s0.672-1.52 1.507-1.536l0.001-0z"></path>
<path fill="#fff" style="fill: var(--color7, #fff)" d="M121.92 15.503c0.723 0.001 1.31 0.586 1.311 1.31v0c-0.001 0.723-0.587 1.309-1.31 1.309-0 0-0 0-0.001 0h0c-0.707-0.020-1.273-0.599-1.273-1.309s0.566-1.289 1.271-1.309l0.002-0"></path>
<path fill="#fff" style="fill: var(--color4, #fff)" d="M121.398 17.452v-1.452h0.647c0.13 0 0.229 0.011 0.295 0.038 0.069 0.027 0.121 0.073 0.164 0.139 0.037 0.061 0.060 0.135 0.060 0.213 0 0.002 0 0.003-0 0.005v-0c0 0.003 0 0.006 0 0.010 0 0.098-0.038 0.187-0.1 0.253l0-0c-0.067 0.071-0.172 0.114-0.311 0.135 0.052 0.024 0.091 0.048 0.116 0.073 0.057 0.052 0.112 0.117 0.161 0.194l0.254 0.395h-0.243l-0.193-0.304c-0.051-0.079-0.097-0.144-0.145-0.207l0.006 0.008c-0.028-0.038-0.060-0.071-0.097-0.098l-0.001-0.001c-0.025-0.017-0.054-0.030-0.086-0.037l-0.002-0c-0.029-0.004-0.061-0.006-0.095-0.006-0.005 0-0.009 0-0.014 0h-0.222v0.644l-0.194 0z"></path>
<path fill="#fff" style="fill: var(--color7, #fff)" d="M121.591 16.639h0.415c0.008 0 0.017 0.001 0.026 0.001 0.065 0 0.127-0.010 0.186-0.029l-0.004 0.001c0.047-0.016 0.086-0.047 0.114-0.086l0.001-0.001c0.023-0.036 0.037-0.081 0.037-0.128 0-0.001 0-0.003-0-0.004v0c0-0.002 0-0.004 0-0.006 0-0.065-0.029-0.123-0.074-0.162l-0-0c-0.050-0.044-0.129-0.067-0.238-0.067h-0.462v0.481z"></path>
</symbol>
<symbol id="icon-master" viewBox="0 0 41 32">
<path fill="#ffffff" style="fill: var(--color8, #ffffff)" d="M40.321 31.566v0.082h0.077c0 0 0.001 0 0.001 0 0.015 0 0.028-0.004 0.040-0.011l-0 0c0.009-0.007 0.015-0.018 0.015-0.030 0-0.001 0-0.001-0-0.002v0c0-0 0-0.001 0-0.002 0-0.012-0.006-0.023-0.015-0.029l-0-0c-0.011-0.007-0.024-0.011-0.038-0.011-0.001 0-0.002 0-0.003 0h-0.077zM40.398 31.508c0.003-0 0.006-0 0.009-0 0.031 0 0.060 0.010 0.084 0.027l-0-0c0.020 0.016 0.032 0.041 0.032 0.068 0 0.002-0 0.003-0 0.005v-0c0 0.001 0 0.002 0 0.003 0 0.024-0.010 0.045-0.026 0.061l-0 0c-0.020 0.017-0.045 0.029-0.073 0.031l-0 0 0.103 0.117h-0.079l-0.095-0.116h-0.031v0.116h-0.066v-0.311h0.144zM40.378 31.927c0.001 0 0.002 0 0.002 0 0.036 0 0.070-0.008 0.1-0.021l-0.002 0.001c0.032-0.014 0.059-0.033 0.082-0.056v0c0.023-0.023 0.042-0.050 0.055-0.081l0.001-0.002c0.013-0.030 0.020-0.065 0.020-0.102s-0.007-0.072-0.021-0.104l0.001 0.002c-0.014-0.032-0.033-0.059-0.056-0.082l0 0c-0.023-0.023-0.050-0.042-0.081-0.055l-0.002-0.001c-0.029-0.012-0.063-0.019-0.098-0.019-0.001 0-0.002 0-0.003 0h0c-0.001 0-0.002 0-0.002 0-0.036 0-0.071 0.007-0.102 0.020l0.002-0.001c-0.033 0.014-0.061 0.033-0.084 0.056l0-0c-0.047 0.048-0.075 0.113-0.075 0.185 0 0.037 0.008 0.072 0.021 0.104l-0.001-0.002c0.013 0.032 0.032 0.059 0.055 0.082l0 0c0.024 0.023 0.051 0.042 0.082 0.055l0.002 0.001c0.030 0.013 0.064 0.021 0.101 0.021 0.001 0 0.002 0 0.002 0h-0zM40.378 31.332c0 0 0 0 0 0 0.094 0 0.179 0.038 0.241 0.099l-0-0c0.030 0.030 0.055 0.065 0.072 0.105l0.001 0.002c0.017 0.038 0.027 0.083 0.027 0.13s-0.010 0.092-0.027 0.132l0.001-0.002c-0.018 0.041-0.043 0.077-0.073 0.107v0c-0.031 0.029-0.066 0.054-0.106 0.071l-0.002 0.001c-0.039 0.017-0.084 0.027-0.131 0.027-0.001 0-0.001 0-0.002 0h0c-0.001 0-0.002 0-0.002 0-0.048 0-0.093-0.010-0.135-0.028l0.002 0.001c-0.042-0.018-0.079-0.042-0.109-0.072l0 0c-0.030-0.031-0.054-0.067-0.071-0.108l-0.001-0.002c-0.017-0.038-0.027-0.083-0.027-0.13s0.010-0.092 0.027-0.132l-0.001 0.002c0.018-0.042 0.042-0.077 0.073-0.107l0-0c0.030-0.030 0.067-0.055 0.107-0.071l0.002-0.001c0.039-0.017 0.085-0.027 0.132-0.027 0.001 0 0.002 0 0.003 0h-0zM8.888 30.131c0-0.593 0.389-1.081 1.024-1.081 0.607 0 1.017 0.466 1.017 1.081s-0.41 1.081-1.017 1.081c-0.635 0-1.024-0.487-1.024-1.081zM11.62 30.131v-1.688h-0.734v0.411c-0.233-0.304-0.586-0.495-1.066-0.495-0.946 0-1.688 0.742-1.688 1.773s0.742 1.773 1.688 1.773c0.48 0 0.833-0.191 1.066-0.495v0.41h0.733v-1.689zM36.421 30.131c0-0.593 0.389-1.081 1.024-1.081 0.608 0 1.017 0.466 1.017 1.081s-0.409 1.081-1.017 1.081c-0.635 0-1.024-0.487-1.024-1.081zM39.154 30.131v-3.044h-0.735v1.767c-0.233-0.304-0.586-0.495-1.066-0.495-0.946 0-1.688 0.742-1.688 1.773s0.742 1.773 1.688 1.773c0.48 0 0.833-0.191 1.066-0.495v0.41h0.735v-1.689zM20.73 29.015c0.473 0 0.777 0.297 0.854 0.819h-1.751c0.078-0.487 0.374-0.819 0.897-0.819zM20.745 28.357c-0.989 0-1.681 0.72-1.681 1.773 0 1.073 0.72 1.773 1.73 1.773 0.508 0 0.974-0.127 1.384-0.473l-0.36-0.544c-0.283 0.226-0.643 0.353-0.982 0.353-0.473 0-0.904-0.219-1.010-0.827h2.506c0.007-0.091 0.015-0.183 0.015-0.282-0.007-1.052-0.658-1.773-1.603-1.773zM29.606 30.129c0-0.593 0.389-1.081 1.024-1.081 0.607 0 1.017 0.466 1.017 1.081s-0.41 1.081-1.017 1.081c-0.635 0-1.024-0.487-1.024-1.081zM32.339 30.129v-1.687h-0.734v0.411c-0.234-0.304-0.586-0.495-1.066-0.495-0.946 0-1.688 0.742-1.688 1.773s0.742 1.773 1.688 1.773c0.48 0 0.832-0.191 1.066-0.495v0.41h0.734v-1.689zM25.461 30.129c0 1.024 0.713 1.773 1.801 1.773 0.508 0 0.847-0.113 1.213-0.402l-0.352-0.593c-0.276 0.198-0.565 0.304-0.884 0.304-0.586-0.007-1.017-0.431-1.017-1.081s0.431-1.073 1.017-1.081c0.319 0 0.608 0.106 0.884 0.304l0.352-0.593c-0.367-0.289-0.706-0.402-1.213-0.402-1.088 0-1.801 0.748-1.801 1.773zM34.923 28.357c-0.423 0-0.699 0.198-0.89 0.495v-0.409h-0.727v3.375h0.735v-1.892c0-0.559 0.24-0.869 0.72-0.869 0.005-0 0.011-0 0.017-0 0.159 0 0.311 0.031 0.45 0.088l-0.008-0.003 0.226-0.692c-0.162-0.064-0.374-0.092-0.523-0.092zM15.249 28.711c-0.353-0.233-0.84-0.353-1.376-0.353-0.855 0-1.406 0.41-1.406 1.081 0 0.55 0.41 0.89 1.165 0.996l0.347 0.049c0.402 0.057 0.592 0.162 0.592 0.353 0 0.261-0.267 0.41-0.769 0.41-0.508 0-0.875-0.162-1.123-0.353l-0.345 0.572c0.402 0.297 0.911 0.438 1.461 0.438 0.975 0 1.54-0.459 1.54-1.102 0-0.593-0.445-0.904-1.179-1.010l-0.346-0.050c-0.318-0.041-0.572-0.105-0.572-0.331 0-0.247 0.24-0.395 0.643-0.395 0.431 0 0.848 0.162 1.052 0.289l0.318-0.593zM24.72 28.358c-0.423 0-0.699 0.198-0.889 0.495v-0.41h-0.727v3.375h0.734v-1.892c0-0.559 0.24-0.869 0.72-0.869 0.005-0 0.011-0 0.017-0 0.159 0 0.311 0.031 0.45 0.088l-0.008-0.003 0.226-0.692c-0.162-0.064-0.374-0.092-0.523-0.092zM18.456 28.442h-1.2v-1.024h-0.742v1.024h-0.685v0.671h0.685v1.54c0 0.783 0.304 1.25 1.172 1.25 0.319 0 0.685-0.099 0.918-0.261l-0.212-0.628c-0.219 0.127-0.459 0.191-0.65 0.191-0.367 0-0.487-0.226-0.487-0.565v-1.525h1.2zM7.483 31.818v-2.118c0-0.798-0.508-1.334-1.328-1.342-0.431-0.007-0.875 0.127-1.186 0.601-0.233-0.374-0.6-0.601-1.115-0.601-0.361 0-0.713 0.106-0.989 0.501v-0.417h-0.735v3.375h0.74v-1.871c0-0.586 0.325-0.897 0.827-0.897 0.487 0 0.734 0.318 0.734 0.89v1.878h0.742v-1.871c0-0.586 0.339-0.897 0.826-0.897 0.501 0 0.74 0.318 0.74 0.89v1.878z"></path>
<path fill="#f79410" style="fill: var(--color9, #f79410)" d="M40.739 20.591v-0.494h-0.129l-0.149 0.339-0.148-0.339h-0.129v0.494h0.091v-0.372l0.139 0.321h0.095l0.139-0.322v0.373h0.090zM39.924 20.591v-0.409h0.165v-0.083h-0.42v0.083h0.165v0.409h0.090z"></path>
<path fill="#ff5f00" style="fill: var(--color10, #ff5f00)" d="M26.13 22.707h-11.123v-19.99h11.123z"></path>
<path fill="#eb001b" style="fill: var(--color11, #eb001b)" d="M15.712 12.713c0-4.055 1.899-7.667 4.855-9.995-2.133-1.694-4.866-2.718-7.837-2.718-0.007 0-0.013 0-0.020 0h0.001c-7.020 0-12.711 5.692-12.711 12.713s5.691 12.713 12.711 12.713c0.006 0 0.012 0 0.019 0 2.971 0 5.704-1.024 7.863-2.738l-0.026 0.020c-2.956-2.327-4.855-5.94-4.855-9.995z"></path>
<path fill="#f79e1b" style="fill: var(--color12, #f79e1b)" d="M41.136 12.713c0 7.021-5.691 12.713-12.711 12.713-0.006 0-0.012 0-0.019 0-2.972 0-5.705-1.024-7.865-2.738l0.026 0.020c2.957-2.328 4.856-5.94 4.856-9.995s-1.899-7.667-4.856-9.995c2.134-1.694 4.867-2.718 7.838-2.718 0.006 0 0.013 0 0.019 0h-0.001c7.020 0 12.711 5.692 12.711 12.713z"></path>
</symbol>
</defs>
</svg>
