<svg aria-hidden="true" style="position: absolute; width: 0; height: 0; overflow: hidden;" version="1.1" xmlns="http://www.w3.org/2000/svg" xmlns:xlink="http://www.w3.org/1999/xlink">
<defs>
<symbol id="icon-batida" viewBox="0 0 32 32">
<path  d="M0 0h32v32h-32v-32z"></path>
<path  d="M28.116 15.157c0.032 0.014 0.024 0.057 0.028 0.088-0.004 0.124 0.004 0.269 0 0.389-0.040 0.011-0.068-0.025-0.096-0.042-0.28-0.198-0.715-0.304-1.058-0.145-0.292 0.127-0.479 0.378-0.563 0.654-0.104 0.484 0.012 1.008 0.427 1.312 0.244 0.184 0.643 0.212 0.946 0.11 0.148-0.050 0.276-0.131 0.415-0.191 0.016 0.050-0.008 0.095-0.012 0.145-0.032 0.095-0.048 0.202-0.076 0.301-0.064 0.039-0.148 0.050-0.223 0.064-0.367 0.071-0.819 0.067-1.146-0.085-0.427-0.173-0.759-0.53-0.835-0.944-0.136-0.552 0.084-1.107 0.547-1.46 0.432-0.3 1.114-0.361 1.646-0.194zM18.666 16.361c0.010 0.068 0.019 0.139 0.024 0.211l-0.010 0.002c-0.103-0.043-0.222-0.069-0.347-0.072l-0.001-0-0.299 0.004c-0.012 0.002-0.022 0.008-0.025 0.019v0.431l0.020 0.015c0.123 0.004 0.274 0.010 0.395-0.006l0.11-0.027c0.010 0.002 0.007 0.018 0.007 0.020 0.007 0.073 0.005 0.16 0 0.236l-0.007 0.004c-0.147-0.054-0.326-0.035-0.495-0.035-0.015 0-0.027 0.008-0.030 0.018v0.502c0.007 0.017 0.030 0.018 0.049 0.023l0.103 0.012c0.225 0.021 0.451-0.014 0.64-0.093h0.005c-0.012 0.066-0.085 0.255-0.087 0.275 0 0-1.070 0.006-1.065 0 0.030-0.056 0.056-0.13 0.064-0.193v-0.95c-0.010-0.128 0.022-0.278-0.061-0.381 0-0.006-0.012-0.023-0.003-0.027 0.12-0.008 1-0.002 1-0.002l0.012 0.013zM7.784 15.205c-0.005 0.036-0.014 0.059-0.018 0.084l-0.099 0.343-0.008 0.007c-0.194-0.11-0.445-0.187-0.691-0.138 0 0.105 0.012 0.092 0 0.138v1.863c0.016 0.124 0.092 0.264 0.143 0.373h-0.737l0.008-0.019c0.067-0.135 0.085-0.28 0.097-0.431v-1.902l-0.038-0.025c-0.297-0.018-0.555 0.042-0.793 0.152 0.032-0.145 0.076-0.306 0.123-0.444l2.012-0zM8.615 15.203c-0.012 0.078-0.054 0.145-0.074 0.223v2.157c0.012 0.096 0.073 0.187 0.093 0.28-0.214 0-0.456 0.014-0.666-0.003 0.032-0.124 0.055-0.244 0.063-0.378v-1.973c-0.020-0.102-0.087-0.206-0.111-0.304h0.694zM31.523 16.278c-0.060-0.361-0.253-0.693-0.578-0.941-0.295-0.226-0.694-0.308-1.118-0.293-0.608 0.025-1.122 0.4-1.319 0.845-0.146 0.318-0.154 0.732-0.013 1.050 0.154 0.424 0.621 0.781 1.135 0.905 0.531 0.11 1.066-0.043 1.405-0.361 0.368-0.311 0.531-0.739 0.488-1.205zM30.791 17.155c-0.175 0.272-0.535 0.428-0.933 0.385-0.287-0.032-0.497-0.18-0.655-0.375-0.248-0.307-0.325-0.71-0.253-1.096 0.052-0.339 0.373-0.615 0.766-0.693s0.779 0.053 0.989 0.308l0.124 0.177c0.231 0.382 0.184 0.919-0.039 1.294zM22.299 15.157c0.032 0.014 0.024 0.057 0.028 0.088-0.004 0.124 0.004 0.269 0 0.389-0.040 0.011-0.068-0.025-0.096-0.042-0.28-0.198-0.715-0.304-1.058-0.145-0.292 0.127-0.479 0.378-0.563 0.654-0.104 0.484 0.012 1.008 0.427 1.312 0.244 0.184 0.643 0.212 0.946 0.11 0.148-0.050 0.275-0.131 0.415-0.191 0.016 0.050-0.008 0.095-0.012 0.145-0.032 0.095-0.048 0.202-0.076 0.301-0.064 0.039-0.148 0.050-0.223 0.064-0.367 0.071-0.819 0.067-1.146-0.085-0.427-0.173-0.759-0.53-0.835-0.944-0.136-0.552 0.084-1.107 0.547-1.46 0.431-0.3 1.114-0.361 1.645-0.194zM25.706 16.278c-0.060-0.361-0.253-0.693-0.578-0.941-0.295-0.226-0.694-0.308-1.118-0.293-0.608 0.025-1.122 0.4-1.319 0.845-0.146 0.318-0.154 0.732-0.013 1.050 0.154 0.424 0.621 0.781 1.135 0.905 0.531 0.11 1.066-0.043 1.405-0.361 0.368-0.311 0.531-0.739 0.488-1.205zM24.974 17.155c-0.175 0.272-0.535 0.428-0.933 0.385-0.287-0.032-0.497-0.18-0.655-0.375-0.248-0.307-0.326-0.71-0.253-1.096 0.052-0.339 0.373-0.615 0.766-0.693s0.779 0.053 0.989 0.308l0.124 0.177c0.231 0.382 0.184 0.919-0.039 1.294zM23.45 14.682l0.688-0.589 0.628 0.609c-0.236 0.020-0.609-0.216-0.609-0.216-0.118 0.098-0.353 0.216-0.707 0.196zM11.633 16.356c-0.012-0.406-0.266-0.742-0.618-0.965-0.155-0.102-0.345-0.148-0.543-0.17-0.476-0.018-0.955-0.007-1.427 0l-0.020 0.007c0.036 0.11 0.099 0.141 0.099 0.332v2.1c-0.020 0.071-0.071 0.134-0.079 0.202l1.173 0.007c0.242 0 0.464-0.025 0.662-0.116 0.567-0.255 0.785-0.827 0.753-1.397zM9.583 15.507c0.314-0.039 1.552-0.177 1.532 0.962s-0.864 1.238-1.513 1.12l-0.020-2.082zM1.942 16.352c0.255-0.138 0.373-0.231 0.373-0.648 0-0.304-0.501-0.482-0.767-0.482-0.476-0.018-0.586-0.007-1.058 0l-0.020 0.007c0.036 0.11 0.099 0.141 0.099 0.332v2.1c-0.020 0.071-0.071 0.134-0.079 0.202l1.173 0.007c0.435 0 0.927-0.289 0.927-0.752 0-0.452-0.256-0.58-0.648-0.766zM1.048 16.322l-0.020-0.815c0.196-0.020 0.835-0.088 0.805 0.334s-0.344 0.491-0.786 0.481zM1.048 17.569l-0.007-0.97c0.489-0.13 1.068 0.106 1.068 0.479 0 0.353-0.354 0.619-1.061 0.491zM17.488 17.020c-0.007-0.238-0.152-0.435-0.354-0.566-0.088-0.060-0.197-0.087-0.311-0.1-0.272-0.010-0.547-0.004-0.817 0l-0.011 0.004c0.020 0.064 0.057 0.083 0.057 0.195v1.232c-0.011 0.041-0.041 0.079-0.045 0.118l0.672 0.004c0.138 0 0.266-0.015 0.379-0.068 0.325-0.149 0.449-0.485 0.431-0.819zM16.315 16.522c0.18-0.023 0.888-0.103 0.877 0.564s-0.495 0.726-0.865 0.657l-0.011-1.221zM13.884 17.864h0.844s-0.156-0.059-0.313-0.334c-0.157-0.275-0.944-2.337-0.944-2.337h-0.668c0.156 0.098 0.119 0.098 0.060 0.275s-0.648 1.65-0.786 1.945c-0.137 0.295-0.137 0.393-0.315 0.452h0.727c-0.157-0.079-0.176-0.137-0.117-0.275 0.022-0.051 0.134-0.341 0.267-0.687h1.070c0.152 0.37 0.283 0.687 0.313 0.746 0.079 0.157-0.137 0.216-0.137 0.216zM12.775 16.548c0.194-0.505 0.383-1.002 0.383-1.002s0.199 0.493 0.407 1.002h-0.79zM4.909 17.864h0.843s-0.156-0.059-0.313-0.334c-0.157-0.275-0.944-2.337-0.944-2.337h-0.668c0.156 0.098 0.119 0.098 0.060 0.275s-0.648 1.65-0.786 1.945c-0.137 0.295-0.137 0.393-0.315 0.452h0.727c-0.157-0.079-0.175-0.137-0.117-0.275 0.022-0.051 0.134-0.341 0.267-0.687h1.070c0.152 0.37 0.283 0.687 0.313 0.746 0.079 0.157-0.137 0.216-0.137 0.216zM3.799 16.548c0.193-0.505 0.383-1.002 0.383-1.002s0.199 0.493 0.407 1.002h-0.79z"></path>
</symbol>
<symbol id="icon-fine" viewBox="0 0 83 32">
<path d="M21.723 24.503v-0.653c0-1.247 0.022-1.971 0.022-2.138 0-2.266-0.802-3.42-2.596-3.42-0.704 0-1.721 0.453-2.534 1.037-0.506 0.374-0.76 0.719-0.76 1.28 0 0.396 0.097 0.522 0.381 0.876 0.447-0.253 0.524-0.372 0.998-0.599-0.165-0.291-0.24-0.487-0.24-0.798 0-0.666 0.811-1.157 1.597-1.157 1.262 0 1.85 1.056 1.85 2.948v0.395c-3.462 1.055-5.043 1.617-5.043 3.204 0 1.32 0.994 2.244 2.4 2.244 0.904 0 1.679-0.622 2.63-1.346 0.061 0.414 0.153 0.985 0.439 1.317 0.718-0.31 1.498-0.591 2.297-0.924v-0.534c-0.327 0.184-0.594 0.286-0.82 0.286-0.514 0.001-0.62-0.571-0.62-2.018zM30.047 20.129v-1.809c-0.391-0.124-1.023-0.147-1.298-0.147-0.796 0-1.602 0.825-2.501 2.236 0-0.897-0.033-1.817-0.133-2.256-0.82 0.533-2.015 1.068-2.895 1.437l0.139 0.379c0.313-0.147 0.662-0.28 0.798-0.28 0.567 0 0.704 0.522 0.704 1.717v3.881c0 1.588-0.097 1.695-1.399 1.695v0.511c0.949-0.041 1.613-0.061 2.121-0.061s1.171 0.020 2.032 0.061v-0.511h-0.195c-1.093 0-1.114-0.335-1.114-1.423v-4.232c0-0.459 0.885-2.016 2.262-2.016 0.738 0 1.161 0.378 1.298 0.819h0.18zM38.449 24.868v-13.628c-1.045 0.559-1.942 1.023-3.090 1.463v0.519c0.503-0.271 0.795-0.376 1.086-0.376 0.416 0 0.623 0.358 0.623 1.076v4.947c-0.92-0.384-1.797-0.677-2.571-0.677-2.575 0-4.774 1.966-4.774 5.024 0 2.741 1.57 4.517 4.015 4.517 1.276 0 2.411-0.507 3.371-1.332 0.102 0.534 0.118 1.041 0.301 1.452 0.924-0.452 1.658-0.871 2.615-1.166v-0.491c-0.332 0.169-0.468 0.259-0.738 0.259-0.583 0-0.838-0.576-0.838-1.588z"></path>
<path d="M43.812 18.207c-2.368 0-4.276 1.921-4.276 4.807 0 2.852 1.926 4.748 4.553 4.748 1.294 0 2.423-0.351 3.252-1.058v-0.47c-0.789 0.586-1.56 0.879-2.496 0.879-2.486 0-3.782-2.090-3.863-5.11h6.497c0-0.121 0.020-0.072 0.020-0.192 0.001-2.25-1.381-3.605-3.688-3.605zM72.646 27.055c-1.636 0-1.593-0.377-1.593-1.796v-3.241c0-2.52-1.138-3.606-2.957-3.606-0.838 0-2.181 0.537-3.176 1.676 0-0.668 0.049-1.423-0.038-1.995-0.873 0.558-2.018 1.056-2.953 1.437l0.16 0.379c0.333-0.148 0.634-0.22 0.778-0.22 0.604 0 0.796 0.534 0.796 1.74v3.766c0 1.335-0.152 1.804-1.249 1.854-1.373 0-1.583-0.349-1.583-1.787v-7.265l-0.019-0.037c-0.778 0.474-2.22 1.136-3.047 1.41l0.172 0.399c0.287-0.128 0.681-0.266 0.879-0.266 0.432 0 0.641 0.384 0.641 1.146v4.781c0 1.161-0.161 1.624-1.386 1.625h-0.004c-1.327 0-1.29-0.469-1.29-1.797v-3.24c0-2.52-1.138-3.606-2.957-3.606-0.838 0-2.181 0.537-3.176 1.676 0-0.668 0.049-1.423-0.037-1.995-0.873 0.558-2.018 1.056-2.953 1.437l0.16 0.379c0.333-0.148 0.634-0.22 0.778-0.22 0.604 0 0.796 0.534 0.796 1.74v3.766c0 1.417-0.17 1.86-1.46 1.86v0.439c0.619-0.033 1.367-0.056 2.119-0.062l0.022-0c0.415 0 0.93 0.020 1.883 0.063v-0.439h-0.103c-1.119 0-1.141-0.419-1.141-1.52v-4.935c0.871-0.805 1.727-1.249 2.515-1.249 1.537 0 2.256 0.847 2.256 2.499v3.579c0 1.165-0.093 1.626-1.15 1.626h-0.19v0.439c0.61-0.034 1.345-0.056 2.084-0.062l0.021-0c0.406 0 1.036 0.023 1.8 0.056-0.011 0-0.023 0 0 0 0.020 0 0.010 0 0 0 0.597-0.027 1.338-0.048 2.082-0.056l0.039-0c0.521 0 1.307 0.023 2.145 0.058-0.009 0-0.018 0.001 0 0 0.018 0.001 0.009 0 0 0 0.83-0.035 1.576-0.058 2.036-0.058 0.416 0 0.93 0.020 1.883 0.063v-0.439h-0.103c-1.119 0-1.141-0.419-1.141-1.52v-4.935c0.871-0.805 1.727-1.249 2.515-1.249 1.537 0 2.256 0.847 2.256 2.499v3.579c0 1.165-0.093 1.626-1.15 1.626h-0.186v0.439c0.61-0.034 1.345-0.056 2.084-0.062l0.021-0c0.451 0 1.012 0.020 2.126 0.063v-0.439zM60.107 16.999c0.505 0 0.916-0.393 0.916-0.901s-0.411-0.918-0.916-0.918c-0.496 0.004-0.897 0.407-0.897 0.903 0 0.005 0 0.011 0 0.016v-0.001c0 0.488 0.411 0.901 0.897 0.901z"></path>
<path d="M77.011 26.456c-1.058-0.1-3.154 0.020-3.154-0.858 0-0.545 0.91-1.114 1.309-1.337 0.276 0.058 0.558 0.086 0.839 0.086 1.703 0 3.22-1.091 3.22-2.901 0-0.8-0.276-1.496-0.765-2.022h1.856l0.479-0.666h-3.243c-0.52-0.252-1.131-0.399-1.776-0.399-0.022 0-0.045 0-0.067 0.001l0.003-0c-0.958 0-3.14 0.825-3.14 2.847 0 1.535 0.924 2.503 2.086 2.913-0.367 0.19-1.94 1.064-1.94 2.017 0 0.71 0.618 1.082 1.529 1.275-0.612 0.124-2.248 0.597-2.248 2.138 0 1.756 2.096 2.455 4.212 2.455s4.172-0.639 4.172-2.953-2.315-2.495-3.372-2.594zM16.872-0.005c-0.386 0-1.783 0.226-2.901 1.584s-1.611 2.953-1.93 4.458c-0.042 0.204-0.092 0.462-0.146 0.758h-1.46l-0.24 0.599h1.595c-0.316 1.832-0.714 4.465-0.884 5.263-0.871-0.166-1.872-0.26-2.896-0.261h-0c-4.831 0-8.011 3.259-8.011 7.487 0 4.628 3.459 7.79 8.25 7.79 1.722 0 3.551-0.434 5.447-1.277v-3.813c0-0.944 0.384-1.216 1.404-1.216h0.125v-0.599c-0.957 0.020-1.768 0.061-2.393 0.061s-1.394-0.042-2.35-0.061v0.599h0.105c1.185 0 1.481 0.377 1.481 1.51v3.217c-1.005 0.566-2.23 0.839-3.394 0.839-3.868 0-7.009-3.146-7.009-7.235 0-3.844 2.746-6.634 6.489-6.634 0.939 0 1.833 0.142 2.601 0.414-0.091 0.436-0.404 1.937-0.574 2.66-0.202 0.851-0.973 3.579-2.517 3.579-0.010 0.001-0.021 0.001-0.032 0.001-0.284 0-0.52-0.206-0.566-0.477l-0-0.003h-0.226l-0.213 1.371s0.172 0.066 0.332 0.066 1.783-0.054 3.38-2.808c0.296-0.511 1.022-1.988 1.492-3.864 0.797 0.522 1.313 1.254 1.368 2.174h0.452c-0.022-0.589-0.022-0.816-0.022-0.985 0-0.252 0-1.009 0.022-1.85-0.525-0.161-1.047-0.309-1.579-0.438 0.328-1.616 0.742-3.821 1.026-5.51h2.375l0.16-0.599h-2.436c0.059-0.365 0.109-0.694 0.148-0.972 0.24-1.717 0.811-3.779 1.491-4.525 0.577-0.634 1.051-0.705 1.331-0.705s0.759 0.093 0.718 1.051h0.172l0.399-1.57c0.004 0-0.197-0.079-0.582-0.079z"></path>
<path d="M15.136 9.15l-0.21-0.23s0.798-1.078 1.487-1.587 1.068-0.609 1.377-0.609 0.908 0.299 0.659 1.557-1.357 5.389-1.458 5.769-0.17 1.157 0.469 1.157 1.607-1.217 1.686-1.288l0.22 0.199s-1.184 1.364-1.976 1.827c-0.718 0.419-0.869 0.409-1.088 0.409-0.549 0-1.012-0.59-0.699-1.846 0.11-0.439 1.408-5.508 1.477-5.828s0.040-0.819-0.369-0.819-0.717 0.39-1.575 1.288zM19.487 9.48l-0.189-0.17s0.659-1.118 1.357-1.756 1.088-0.678 1.288-0.678 0.918 0.17 0.728 1.756-0.709 3.862-0.709 3.862 1.547-2.665 2.285-3.573 1.799-2.103 2.764-2.036c0.439 0.029 0.788 0.24 1.018 0.639s0.13 1.128 0 1.746-1.178 4.84-1.178 4.84c-0.16 0.639-0.029 0.938 0.12 1.078s0.369 0.349 0.848-0.010 0.759-0.559 1.128-1.097l0.24 0.199s-0.958 1.228-1.686 1.696-0.938 0.529-1.357 0.529-0.948-0.459-0.529-2.236 1.168-4.91 1.168-4.91c0.13-0.599 0.070-1.008-0.18-1.188s-0.699-0.539-1.995 1.018-2.675 4.241-2.904 5.031-0.539 2.136-0.539 2.136l-1.248 0.28 1.377-7.186c0.12-0.718 0.079-1.128-0.319-1.248s-1.049 0.6-1.488 1.279zM36.94 8.777c0-1.518-0.958-1.929-1.744-1.929-3.034 0-5.415 4.139-5.415 6.653 0 0.944 0.519 2.98 2.476 2.98 2.449 0 3.793-2.568 3.793-2.568l-0.281-0.199c-0.677 0.867-1.464 2.076-2.847 2.076s-1.756-1.078-1.756-2.368c0-0.58 0.072-1.15 0.194-1.696 3.828 0.149 5.581-1.456 5.581-2.948zM18.728 3.242c0.559 0 0.858 0.618 0.618 1.257s-0.639 0.938-1.217 0.938-0.718-0.758-0.579-1.137 0.559-1.058 1.178-1.058zM81.569 19.636c0.080 0.151 0.197 0.268 0.349 0.353 0.136 0.079 0.299 0.125 0.473 0.125 0.148 0 0.287-0.033 0.412-0.093l-0.006 0.002c0.1-0.050 0.185-0.111 0.259-0.184l-0 0c0.080-0.081 0.146-0.177 0.194-0.283l0.002-0.006c0.051-0.112 0.081-0.242 0.081-0.38 0-0.212-0.071-0.407-0.19-0.564l0.002 0.002c-0.116-0.15-0.271-0.264-0.45-0.327l-0.007-0.002c-0.089-0.031-0.192-0.050-0.299-0.050-0.153 0-0.297 0.037-0.424 0.103l0.005-0.002c-0.2 0.098-0.355 0.261-0.44 0.462l-0.002 0.006c-0.050 0.111-0.079 0.241-0.079 0.378 0 0.169 0.044 0.328 0.122 0.465l-0.002-0.005z"></path>
<path d="M18.472 26.794c-0.881 0-1.739-0.696-1.739-1.616 0-1.295 1.452-1.726 3.685-2.455v0.802c0 0.368 0 1.145 0.020 2.31-0.614 0.632-1.251 0.959-1.967 0.959zM37.069 25.747c-0.857 0.654-1.676 1.068-2.492 1.068-1.86 0-3.513-1.806-3.513-4.274 0-2.278 1.552-3.753 3.287-3.753 1.025 0 1.861 0.46 2.717 1.242v5.718zM46.034 21.51h-5.010c0.020-1.633 1.295-2.778 2.55-2.778 1.392 0 2.46 1.104 2.46 2.633v0.146zM75.785 18.739c1.299 0 2.17 1.115 2.17 2.694 0 1.58-0.936 2.532-1.99 2.532-1.051 0-2.121-0.906-2.121-2.741 0.001-1.765 0.912-2.485 1.94-2.485zM76.173 31.626c-1.937 0-3.194-0.798-3.194-2.115s1.417-1.896 2.874-1.916c1.717 0.079 3.553 0.439 3.553 1.896s-1.297 2.136-3.233 2.136zM34.837 7.22c0.666 0 1.032 0.613 0.998 1.171-0.118 1.966-1.837 3.028-4.368 2.906 0.653-2.306 2.225-4.078 3.37-4.078zM81.674 18.758c0.142-0.256 0.411-0.427 0.72-0.427 0.092 0 0.18 0.015 0.262 0.043l-0.006-0.002c0.083 0.028 0.158 0.068 0.224 0.118s0.124 0.11 0.176 0.179 0.092 0.148 0.12 0.235c0.027 0.080 0.042 0.172 0.042 0.268 0 0.123-0.025 0.24-0.071 0.346l0.002-0.006c-0.081 0.185-0.221 0.331-0.395 0.419l-0.005 0.002c-0.103 0.051-0.225 0.082-0.354 0.082-0.152 0-0.295-0.042-0.416-0.116l0.004 0.002c-0.13-0.074-0.234-0.182-0.302-0.311l-0.002-0.004c-0.066-0.119-0.104-0.262-0.104-0.413s0.039-0.295 0.108-0.42l-0.002 0.004z"></path>
<path d="M82.348 19.651v-0.040c-0.004 0-0.008 0-0.013 0-0.022 0-0.044-0.002-0.064-0.006l0.002 0c-0.014-0.004-0.024-0.012-0.029-0.023-0.005-0.020-0.008-0.042-0.008-0.065 0-0.006 0-0.012 0.001-0.019l-0 0.001v-0.324h0.058c0.041 0 0.072 0.004 0.091 0.013 0.023 0.011 0.042 0.026 0.056 0.046l0 0c0.018 0.023 0.038 0.064 0.063 0.124 0.046 0.114 0.080 0.189 0.105 0.227 0.013 0.023 0.032 0.040 0.055 0.051l0.001 0c0.028 0.010 0.059 0.016 0.093 0.016 0.005 0 0.010-0 0.014-0l-0.001 0h0.115v-0.040c-0.021-0.001-0.041-0.005-0.060-0.013l0.001 0c-0.019-0.012-0.035-0.027-0.047-0.044l-0-0c-0.024-0.038-0.047-0.084-0.068-0.131l-0.003-0.008c-0.032-0.072-0.059-0.124-0.079-0.156s-0.045-0.059-0.070-0.078c-0.021-0.014-0.046-0.025-0.072-0.032l-0.002-0c0.1-0.017 0.174-0.050 0.22-0.1s0.070-0.106 0.070-0.172c0-0.046-0.013-0.089-0.036-0.13s-0.064-0.072-0.119-0.092-0.134-0.032-0.24-0.032h-0.439v0.040c0.050 0 0.078 0.003 0.087 0.005 0.014 0.004 0.024 0.010 0.029 0.023 0.005 0.012 0.009 0.038 0.009 0.083v0.727c0.001 0.005 0.001 0.012 0.001 0.018 0 0.023-0.004 0.045-0.010 0.065l0-0.002c-0.005 0.010-0.012 0.017-0.021 0.022l-0 0c-0.022 0.004-0.047 0.007-0.073 0.007-0.008 0-0.015-0-0.022-0.001l0.001 0v0.040h0.409z"></path>
<path d="M82.236 18.767c0-0.035 0.001-0.056 0.005-0.065s0.009-0.017 0.014-0.022 0.020-0.008 0.046-0.008h0.043c0.092 0 0.157 0.019 0.197 0.058s0.060 0.093 0.060 0.166c0 0.072-0.024 0.128-0.072 0.166-0.047 0.040-0.125 0.059-0.235 0.059h-0.058v-0.354z"></path>
</symbol>
<symbol id="icon-schubach" viewBox="0 0 32 32">
<path d="M0 0h32v32h-32v-32z"></path>
<path d="M14.615 18.469c0.030-0.063 0.087-0.072 0.144-0.076 0.057-0.008 0.161-0.017 0.161-0.118 0-0.051-0.024-0.080-0.064-0.080-0.161 0.004-0.329 0.021-0.491 0.021-0.168 0-0.329-0.017-0.497-0.021-0.057 0-0.128 0.021-0.128 0.105 0 0.071 0.064 0.080 0.104 0.080 0.071 0.004 0.175 0.021 0.175 0.135 0 0.076-0.013 0.135-0.030 0.202l-0.413 1.719-0.097 0.455c-0.037 0.16-0.118 0.564-0.292 0.564-0.060 0-0.074-0.046-0.081-0.114-0.017-0.177-0.064-0.341-0.235-0.341-0.131 0-0.239 0.118-0.239 0.287 0 0.114 0.060 0.215 0.134 0.274 0.084 0.072 0.178 0.088 0.276 0.088 0.319 0 0.608-0.245 0.803-0.543 0.212-0.32 0.269-0.624 0.363-1.003l0.302-1.268c0.023-0.096 0.060-0.278 0.104-0.366zM20.969 20.162c-0.161 0-0.030 0.493-0.776 0.493-0.087 0-0.242 0.013-0.242-0.143 0-0.076 0.040-0.227 0.057-0.303l0.161-0.678 0.212-0.008c0.074 0 0.192-0.008 0.252 0.055s0.047 0.177 0.047 0.265c0 0.067-0.003 0.143 0.071 0.143 0.064 0 0.074-0.093 0.084-0.148 0.027-0.219 0.081-0.434 0.141-0.645 0.014-0.046 0.037-0.109 0.037-0.164 0-0.042-0.030-0.067-0.064-0.067-0.057 0-0.080 0.067-0.104 0.127-0.104 0.269-0.299 0.248-0.508 0.248h-0.121l0.195-0.809c0.034-0.152 0.031-0.139 0.162-0.139h0.128c0.090-0.004 0.198-0.013 0.275 0.059 0.091 0.076 0.098 0.173 0.114 0.295 0.006 0.051 0.006 0.114 0.060 0.114 0.030 0 0.050-0.013 0.064-0.042 0.017-0.038 0.054-0.185 0.064-0.227 0.007-0.034 0.091-0.316 0.091-0.345 0-0.042-0.034-0.046-0.057-0.046-0.39 0.004-0.786 0.021-1.176 0.021-0.071-0.001-0.14-0.003-0.209-0.008l0.010 0.001c-0.011-0.008-0.024-0.013-0.038-0.014h-0c-0.027 0.002-0.051 0.004-0.074 0.007l0.005-0.001c-0.037-0.003-0.087-0.005-0.138-0.007l-0.007-0c-0.001 0-0.001-0-0.002-0-0.019 0-0.037 0.007-0.050 0.020l0-0c-0.092-0.003-0.184-0.016-0.276-0.019-0.047 0-0.111 0.030-0.111 0.105 0 0.122 0.201 0.046 0.201 0.156 0 0.063-0.050 0.148-0.077 0.198l-0.749 1.377-0.104-1.019 0.205-0.362c0.037-0.059 0.077-0.135 0.124-0.185 0.051-0.059 0.084-0.059 0.148-0.080 0.057-0.013 0.145-0.017 0.145-0.114 0-0.059-0.037-0.076-0.077-0.076-0.202 0.004-0.397 0.021-0.598 0.021s-0.403-0.017-0.598-0.021c-0.051 0-0.098 0.025-0.098 0.097 0 0.051 0.037 0.063 0.067 0.072 0.064 0.021 0.091 0.042 0.111 0.122 0.017 0.072 0.031 0.207 0.037 0.282l0.071 0.666-0.366 0.661-0.165-1.415c-0.003-0.059-0.014-0.122-0.014-0.181 0-0.097 0.054-0.11 0.114-0.122 0.040-0.013 0.087-0.030 0.087-0.093 0-0.054-0.037-0.088-0.077-0.088-0.111 0.013-0.225 0.021-0.34 0.021-0.148 0-0.289-0.008-0.437-0.021-0.011 0-0.021 0.001-0.031 0.004l0.001-0c-0.008-0.002-0.017-0.004-0.026-0.004-0.001 0-0.002 0-0.003 0h0c-0.39 0.004-0.786 0.021-1.176 0.021-0.148 0-0.302-0.017-0.45-0.021-0.050 0-0.081 0.034-0.081 0.101 0 0.063 0.057 0.076 0.101 0.080 0.074 0.008 0.121 0.042 0.121 0.148 0 0.063-0.034 0.198-0.047 0.257l-0.356 1.491c-0.020 0.084-0.064 0.282-0.118 0.345-0.037 0.042-0.121 0.046-0.168 0.051-0.054 0.004-0.114 0.025-0.114 0.101 0 0.059 0.044 0.072 0.081 0.072 0.158-0.004 0.319-0.021 0.48-0.021 0.41 0 0.813 0.017 1.223 0.021 0.118 0 0.101-0.021 0.131-0.16l0.061-0.257c0.010-0.046 0.037-0.139 0.037-0.181 0-0.051-0.030-0.080-0.067-0.080-0.161 0-0.030 0.493-0.776 0.493-0.087 0-0.242 0.013-0.242-0.143 0-0.076 0.040-0.227 0.057-0.303l0.161-0.678 0.212-0.008c0.074 0 0.191-0.008 0.252 0.055s0.047 0.177 0.047 0.265c0 0.067-0.003 0.143 0.071 0.143 0.064 0 0.074-0.093 0.084-0.148 0.027-0.219 0.081-0.434 0.141-0.645 0.014-0.046 0.037-0.109 0.037-0.164 0-0.042-0.030-0.067-0.064-0.067-0.057 0-0.080 0.067-0.104 0.127-0.104 0.269-0.299 0.248-0.507 0.248h-0.121l0.195-0.809c0.034-0.152 0.030-0.139 0.161-0.139h0.128c0.091-0.004 0.198-0.013 0.276 0.059 0.091 0.076 0.098 0.173 0.114 0.295 0.007 0.051 0.007 0.114 0.061 0.114 0.030 0 0.050-0.013 0.064-0.042 0.017-0.038 0.054-0.185 0.064-0.227 0.004-0.020 0.037-0.134 0.062-0.225 0.015 0.006 0.031 0.010 0.044 0.015 0.118 0.038 0.118 0.181 0.131 0.303l0.195 1.916c0.013 0.122 0.003 0.278 0.134 0.278 0.111 0 0.168-0.126 0.222-0.223l0.524-0.948 0.080 0.956c0.010 0.101 0.003 0.215 0.111 0.215 0.091 0 0.135-0.092 0.178-0.172l0.927-1.735 0.192-0.333c0.066-0.103 0.123-0.182 0.226-0.221 0.022 0.022 0.034 0.057 0.034 0.111 0 0.063-0.033 0.198-0.047 0.257l-0.356 1.491c-0.020 0.084-0.064 0.282-0.118 0.345-0.037 0.042-0.121 0.046-0.168 0.051-0.054 0.004-0.114 0.025-0.114 0.101 0 0.059 0.044 0.072 0.080 0.072 0.158-0.004 0.319-0.021 0.481-0.021 0.41 0 0.813 0.017 1.223 0.021 0.118 0 0.101-0.021 0.131-0.16l0.061-0.257c0.010-0.046 0.037-0.139 0.037-0.181 0-0.051-0.030-0.080-0.067-0.080z"></path>
<path d="M18.454 18.667c-0.007-0.059-0.020-0.148-0.020-0.207 0-0.088 0.111-0.080 0.161-0.080 0.027 0 0.061-0.004 0.061 0.042s-0.047 0.127-0.067 0.16l-0.118 0.215-0.017-0.131z"></path>
<path d="M22.842 20.247c0-0.055-0.034-0.088-0.074-0.088-0.050 0-0.077 0.055-0.101 0.105-0.151 0.324-0.272 0.396-0.564 0.396-0.064 0-0.195 0.017-0.195-0.105 0-0.034 0.017-0.097 0.024-0.131l0.393-1.647c0.024-0.092 0.057-0.232 0.111-0.307 0.054-0.080 0.111-0.076 0.185-0.093 0.061-0.008 0.128-0.017 0.128-0.109 0-0.063-0.037-0.072-0.081-0.072-0.161 0.004-0.316 0.021-0.477 0.021s-0.323-0.017-0.477-0.021c-0.050 0-0.111 0.021-0.111 0.092 0 0.059 0.051 0.072 0.087 0.072 0.070 0.008 0.134 0.038 0.134 0.143 0 0.080-0.033 0.215-0.050 0.295l-0.377 1.559c-0.053 0.227-0.064 0.274-0.255 0.307-0.054 0.008-0.125 0.021-0.125 0.105 0 0.063 0.047 0.072 0.087 0.072 0.165-0.004 0.326-0.013 0.487-0.021 0.343 0.008 0.692 0.017 1.035 0.021 0.027 0 0.074 0 0.091-0.038 0.020-0.038 0.037-0.127 0.047-0.169l0.033-0.156c0.017-0.067 0.044-0.164 0.044-0.232zM24.728 20.162c-0.162 0-0.031 0.493-0.776 0.493-0.087 0-0.242 0.013-0.242-0.143 0-0.076 0.040-0.227 0.057-0.303l0.162-0.678 0.211-0.008c0.074 0 0.192-0.008 0.252 0.055s0.047 0.177 0.047 0.265c0 0.067-0.003 0.143 0.070 0.143 0.064 0 0.074-0.093 0.084-0.148 0.027-0.219 0.081-0.434 0.141-0.645 0.014-0.046 0.037-0.109 0.037-0.164 0-0.042-0.030-0.067-0.064-0.067-0.057 0-0.080 0.067-0.104 0.127-0.104 0.269-0.299 0.248-0.507 0.248h-0.121l0.195-0.809c0.033-0.152 0.030-0.139 0.161-0.139h0.128c0.091-0.004 0.198-0.013 0.275 0.059 0.091 0.076 0.098 0.173 0.114 0.295 0.006 0.051 0.006 0.114 0.060 0.114 0.031 0 0.051-0.013 0.064-0.042 0.017-0.038 0.054-0.185 0.064-0.227 0.007-0.034 0.091-0.316 0.091-0.345 0-0.042-0.034-0.046-0.057-0.046-0.39 0.004-0.786 0.021-1.176 0.021-0.148 0-0.302-0.017-0.45-0.021-0.050 0-0.080 0.034-0.080 0.101 0 0.063 0.057 0.076 0.101 0.080 0.074 0.008 0.121 0.042 0.121 0.148 0 0.063-0.034 0.198-0.047 0.257l-0.356 1.491c-0.020 0.084-0.064 0.282-0.118 0.345-0.037 0.042-0.121 0.046-0.168 0.051-0.054 0.004-0.114 0.025-0.114 0.101 0 0.059 0.044 0.072 0.081 0.072 0.158-0.004 0.319-0.021 0.481-0.021 0.41 0 0.813 0.017 1.223 0.021 0.118 0 0.101-0.021 0.131-0.16l0.061-0.257c0.010-0.046 0.037-0.139 0.037-0.181 0-0.050-0.030-0.080-0.067-0.080zM27.086 20.651c-0.148-0.042-0.144-0.118-0.198-0.286l-0.155-0.468c-0.037-0.118-0.067-0.261-0.144-0.354 0.306-0.088 0.743-0.329 0.743-0.784s-0.38-0.564-0.679-0.564c-0.232 0.004-0.467 0.021-0.702 0.021-0.135 0-0.276-0.017-0.41-0.021-0.054 0-0.151 0.004-0.151 0.092 0 0.080 0.070 0.076 0.121 0.084 0.064 0.013 0.134 0.030 0.134 0.139 0 0.059-0.020 0.139-0.034 0.202l-0.38 1.58c-0.044 0.189-0.053 0.329-0.235 0.354-0.064 0.008-0.158 0.017-0.158 0.122 0 0.046 0.027 0.072 0.061 0.072 0.164-0.004 0.326-0.021 0.487-0.021s0.323 0.017 0.491 0.021c0.047 0 0.121-0.017 0.121-0.101 0-0.139-0.249-0.021-0.249-0.245 0-0.072 0.017-0.122 0.034-0.194l0.134-0.564 0.064-0.004 0.064-0.008c0.077 0 0.098 0.139 0.121 0.211l0.188 0.64 0.041 0.148c0.017 0.063 0.030 0.118 0.087 0.118 0.108-0.004 0.209-0.021 0.316-0.021s0.209 0.017 0.316 0.021c0.041 0 0.091 0 0.091-0.093-0-0.076-0.068-0.085-0.118-0.097z"></path>
<path d="M25.961 19.552l0.279-1.171 0.165-0.017c0.188 0 0.329 0.067 0.329 0.341 0 0.463-0.407 0.872-0.773 0.847z"></path>
<path d="M28.966 18.284c-0.158-0.076-0.336-0.122-0.504-0.122-0.185 0-0.383 0.059-0.531 0.198-0.131 0.131-0.232 0.337-0.232 0.548 0 0.358 0.235 0.615 0.423 0.847 0.121 0.148 0.252 0.286 0.252 0.51 0 0.139-0.074 0.269-0.162 0.345-0.080 0.067-0.192 0.097-0.289 0.097-0.108 0-0.232-0.038-0.309-0.135-0.074-0.097-0.081-0.194-0.094-0.316-0.007-0.080-0.007-0.185-0.091-0.185-0.054 0-0.074 0.063-0.084 0.118-0.020 0.101-0.031 0.287-0.031 0.392 0 0.131 0.024 0.152 0.125 0.194 0.161 0.072 0.36 0.101 0.528 0.101 0.222 0 0.443-0.059 0.625-0.219 0.182-0.164 0.296-0.4 0.296-0.678 0-0.32-0.256-0.602-0.424-0.813-0.094-0.118-0.259-0.295-0.259-0.471 0-0.219 0.178-0.363 0.343-0.363 0.437 0 0.246 0.556 0.427 0.556 0.074 0 0.084-0.131 0.094-0.194l0.027-0.131c0.007-0.030 0.024-0.101 0.024-0.139-0-0.076-0.111-0.118-0.155-0.139zM8.35 11.442l0.429-1.091h-1.559c-1.715 0-3.235 0.78-3.235 2.3 0 0.78 0.78 0.896 1.325 0.896s1.247 0.117 1.247 1.13-1.013 2.222-2.495 2.222c-0.857 0-1.676-0.429-1.676-1.247 0-0.429 0.546-1.091 1.715-1.091 0.507 0 1.169 0.195 1.169 0.195l0.156-0.585s-0.312-0.195-1.169-0.195-2.845 0.741-2.845 2.612c0 1.013 1.013 1.442 1.988 1.442s3.664-0.974 4.015-4.092c0.105-0.937-0.424-1.308-1.598-1.364-1.637-0.078-1.13-1.208 0.195-1.208 1.481 0 1.793 0 2.338 0.078z"></path>
<path d="M13.222 13.547c-0.344 0-0.942 0.38-1.234 0.581l0.922-2.803-1.091 0.273-1.313 3.965c-1.278 1.727-2.312 1.040-2.312 0.206 0-0.857 0.935-1.559 1.286-1.559s0.624 0.39 0.624 0.39l0.195-0.857s-0.312-0.195-0.585-0.195c-0.896 0-2.495 1.169-2.495 2.631 0 0.662 0.468 1.267 1.052 1.267 0.506 0 0.984-0.059 1.888-0.835l-0.212 0.64h1.013l0.786-2.388c0.485-0.737 0.915-0.412 0.786 0.002l-0.79 2.386h1.013l0.808-2.458c0.203-0.894 0.125-1.245-0.343-1.245zM30.14 13.547c-0.345 0-0.943 0.38-1.234 0.581l0.922-2.803-1.091 0.273-1.313 3.965c-1.277 1.727-2.312 1.040-2.312 0.206 0-0.857 0.935-1.559 1.286-1.559s0.624 0.39 0.624 0.39l0.195-0.857s-0.312-0.195-0.585-0.195c-0.896 0-2.494 1.169-2.494 2.631 0 0.662 0.468 1.267 1.052 1.267 0.506 0 0.984-0.059 1.888-0.835l-0.212 0.64h1.014l0.785-2.388c0.485-0.737 0.915-0.412 0.787 0.002l-0.79 2.386h1.013l0.809-2.458c0.202-0.894 0.124-1.245-0.343-1.245zM16.38 13.765l-0.786 2.388c-0.485 0.737-0.915 0.412-0.786-0.002l0.79-2.386h-1.013l-0.808 2.458c-0.203 0.894-0.124 1.245 0.343 1.245 0.344 0 0.942-0.381 1.234-0.581l-0.119 0.363h1.006l1.154-3.485-1.014 0zM20.043 13.664c-0.429 0-0.859 0.278-1.108 0.474l0.913-2.813-1.091 0.273-1.348 4.269c-0.234 0.896-0.523 1.578 0.451 1.578 1.988 0 2.806-2.494 2.806-2.845s0.039-0.935-0.624-0.935z"></path>
<path d="M18.756 14.716l-0.663 2.066s1.023-0.037 1.442-1.715c0.195-0.779-0.78-0.351-0.78-0.351z"></path>
<path d="M23.434 14.132c0.662 0 0.857 0.312 0.857 0.312l0.234-0.663s-0.39-0.156-0.974-0.156c-1.004 0-3.040 0.64-3.040 2.845 0 1.099 1.019 1.077 1.784 0.822l-0.040 0.116h1.006l0.998-2.847h-1.014l-0.628 1.805c-0.146 0.113-0.364 0.221-0.664 0.221-0.429 0-0.431-0.448-0.351-0.702 0.185-0.59 0.779-1.754 1.832-1.754z"></path>
</symbol>
<symbol id="icon-stiline" viewBox="0 0 32 32">
<path d="M0 0h32v32h-32v-32z"></path>
<path d="M21.554 15.029l1.413-0.699c0.356-0.192 0.128-0.262-0.099-0.271-1.057 0-2.213 0.21-3.201 0.586 1.028-0.192 2.006-0.341 2.846-0.341l-1.027 0.629 0.069 0.096zM18.564 16.092c0.046 0.147 1.194-0.507 1.203-0.63-0.046-0.188-1.277 0.278-1.203 0.63zM18.185 16.199c0.139-0.393 0.583-0.737 1.203-0.917 0.305-0.074 0.555-0.205 0.75 0.123 0.037 0.123-0.333 0.491-0.296 0.532 0.083 0.155 1.12-0.696 1.286-0.794 0.084-0.065 0.287 0.082 0.093 0.262l-0.583 0.466c-0.055 0.090 0.074 0.033 0.287-0.073l1.61-0.622c0.259-0.016-0.564 0.475-0.426 0.54l1.157-0.54c0.166-0.082 0.222 0.041 0.092 0.131l-0.111 0.074c-0.13 0.082-0.157 0.18 0.018 0.196 0.185-0.065 0.537-0.106 0.758-0.065 0.121-0.139 0.222-0.27 0.417-0.425 0.111-0.074 0.213 0 0.176 0.033-0.157 0.237-0.463 0.515-0.472 0.736 0.009 0.131 0.037 0.074 0.083 0.066 2.35-0.835 4.913-1.956 7.198-1.587 0.351 0.065-0.268 0.36-0.518 0.205-0.148-0.106-0.102-0.082-0.157-0.131-2.147-0.008-5.542 1.325-6.56 1.702-0.268 0.098-0.398 0.008-0.333-0.156 0.037-0.131 0.018-0.131 0.065-0.237-0.398-0.254-0.99 0.262-1.249 0.278-0.185 0.008-0.028-0.188 0.101-0.278 0.222-0.164 0.102-0.164-0.074-0.057l-0.98 0.433c-0.352 0.139 0.204-0.384 0.065-0.376-0.416-0.008-1.332 0.581-1.388 0.45-0.074-0.066-0.055-0.156-0.074-0.238l-0.509 0.27c-0.213 0.106-0.25-0.139-0.213-0.328-0.389 0.196-0.657 0.36-1.11 0.434-0.102 0.017-0.324 0.017-0.306-0.106zM14.845 18.035c0.978-1.022 2.134-2.316 3.676-2.832 0.158-0.026 0.188 0.079-0.010 0.201l-0.652 0.83c-0.020 0.052-0.316 0.114-0.257 0.009 0.237-0.341 0.346-0.463 0.484-0.647 0.040-0.052-0.010-0.035-0.059-0.017-1.116 0.699-2.174 1.302-2.816 2.438-0.138 0.253-0.632 0.297-0.366 0.017zM7.099 16.506c2.016-1.224 4.555-1.765 6.788-1.827 0.099 0.026 0.099 0.087 0.168 0.166l-0.030 0.087c-2.253-0.044-4.674 0.533-6.857 1.573h-0.069v0zM0.476 19.477c-0.356-3.574 9.090-8.057 11.541-7.638 0.889 0.192 1.571 0.603 0.553 1.853-0.148 0.166-0.524 0.096-0.484-0.044 0.089-0.245 0.376-0.306 0.484-0.489 0.198-0.349 0.257-0.507 0.158-0.752-0.356-0.559-1.393-0.446-1.986-0.358-2.283 0.332-10.405 4.361-10.029 7.28 0.277 1.346 3.942-0.044 4.447-0.289 1.611-0.716 4.348-2.333 6.353-3.67 0.109-0.044 0.287 0.079 0.168 0.166l-0.405 0.306c0.217-0.131 1.126-0.306 0.948 0 0.454-0.192 0.741-0.28 0.87-0.149 0.129 0.149-0.119 0.411-0.306 0.559l1.334-0.734c0.079-0.044 0.217 0.017 0.138 0.079l-0.711 0.568c-0.138 0.123 0.079 0.123 0.168 0.052l1.551-0.787c0.395 0.026-0.474 0.393-0.544 0.682l1.581-0.542c0.208-0.070 0.168 0.035 0.069 0.070l-1.433 0.577c-0.306 0.123-0.761 0.315-0.662 0.123l0.168-0.324c-0.415 0.245-1.107 0.629-1.245 0.55-0.099-0.061-0.069-0.201 0-0.323-0.385 0.122-1.205 0.594-1.008 0.253l0.553-0.472c0.346-0.288-0.573 0.009-0.82 0.236-0.257 0.227-0.306 0.297-0.603 0.437-0.504 0.035 0.217-0.419 0.474-0.664 0.543-0.402-0.672 0.026-1.077 0.349-0.178 0.14-0.415 0.437-0.504 0.367-0.237-0.183 0.109-0.271 0.287-0.489l-1.591 0.97c-1.136 0.664-2.401 1.512-3.636 2.054-0.889 0.385-4.595 1.704-4.802 0.193z"></path>
</symbol>
</defs>
</svg>
