<!-- Generated by IcoMoon.io -->
<svg version="1.1" xmlns="http://www.w3.org/2000/svg" width="32" height="32" viewBox="0 0 32 32">
<title>stiline</title>
<path fill="#fff" d="M0 0h32v32h-32v-32z"></path>
<path fill="#000" d="M21.554 15.029l1.413-0.699c0.356-0.192 0.128-0.262-0.099-0.271-1.057 0-2.213 0.21-3.201 0.586 1.028-0.192 2.006-0.341 2.846-0.341l-1.027 0.629 0.069 0.096zM18.564 16.092c0.046 0.147 1.194-0.507 1.203-0.63-0.046-0.188-1.277 0.278-1.203 0.63zM18.185 16.199c0.139-0.393 0.583-0.737 1.203-0.917 0.305-0.074 0.555-0.205 0.75 0.123 0.037 0.123-0.333 0.491-0.296 0.532 0.083 0.155 1.12-0.696 1.286-0.794 0.084-0.065 0.287 0.082 0.093 0.262l-0.583 0.466c-0.055 0.090 0.074 0.033 0.287-0.073l1.61-0.622c0.259-0.016-0.564 0.475-0.426 0.54l1.157-0.54c0.166-0.082 0.222 0.041 0.092 0.131l-0.111 0.074c-0.13 0.082-0.157 0.18 0.018 0.196 0.185-0.065 0.537-0.106 0.758-0.065 0.121-0.139 0.222-0.27 0.417-0.425 0.111-0.074 0.213 0 0.176 0.033-0.157 0.237-0.463 0.515-0.472 0.736 0.009 0.131 0.037 0.074 0.083 0.066 2.35-0.835 4.913-1.956 7.198-1.587 0.351 0.065-0.268 0.36-0.518 0.205-0.148-0.106-0.102-0.082-0.157-0.131-2.147-0.008-5.542 1.325-6.56 1.702-0.268 0.098-0.398 0.008-0.333-0.156 0.037-0.131 0.018-0.131 0.065-0.237-0.398-0.254-0.99 0.262-1.249 0.278-0.185 0.008-0.028-0.188 0.101-0.278 0.222-0.164 0.102-0.164-0.074-0.057l-0.98 0.433c-0.352 0.139 0.204-0.384 0.065-0.376-0.416-0.008-1.332 0.581-1.388 0.45-0.074-0.066-0.055-0.156-0.074-0.238l-0.509 0.27c-0.213 0.106-0.25-0.139-0.213-0.328-0.389 0.196-0.657 0.36-1.11 0.434-0.102 0.017-0.324 0.017-0.306-0.106zM14.845 18.035c0.978-1.022 2.134-2.316 3.676-2.832 0.158-0.026 0.188 0.079-0.010 0.201l-0.652 0.83c-0.020 0.052-0.316 0.114-0.257 0.009 0.237-0.341 0.346-0.463 0.484-0.647 0.040-0.052-0.010-0.035-0.059-0.017-1.116 0.699-2.174 1.302-2.816 2.438-0.138 0.253-0.632 0.297-0.366 0.017zM7.099 16.506c2.016-1.224 4.555-1.765 6.788-1.827 0.099 0.026 0.099 0.087 0.168 0.166l-0.030 0.087c-2.253-0.044-4.674 0.533-6.857 1.573h-0.069v0zM0.476 19.477c-0.356-3.574 9.090-8.057 11.541-7.638 0.889 0.192 1.571 0.603 0.553 1.853-0.148 0.166-0.524 0.096-0.484-0.044 0.089-0.245 0.376-0.306 0.484-0.489 0.198-0.349 0.257-0.507 0.158-0.752-0.356-0.559-1.393-0.446-1.986-0.358-2.283 0.332-10.405 4.361-10.029 7.28 0.277 1.346 3.942-0.044 4.447-0.289 1.611-0.716 4.348-2.333 6.353-3.67 0.109-0.044 0.287 0.079 0.168 0.166l-0.405 0.306c0.217-0.131 1.126-0.306 0.948 0 0.454-0.192 0.741-0.28 0.87-0.149 0.129 0.149-0.119 0.411-0.306 0.559l1.334-0.734c0.079-0.044 0.217 0.017 0.138 0.079l-0.711 0.568c-0.138 0.123 0.079 0.123 0.168 0.052l1.551-0.787c0.395 0.026-0.474 0.393-0.544 0.682l1.581-0.542c0.208-0.070 0.168 0.035 0.069 0.070l-1.433 0.577c-0.306 0.123-0.761 0.315-0.662 0.123l0.168-0.324c-0.415 0.245-1.107 0.629-1.245 0.55-0.099-0.061-0.069-0.201 0-0.323-0.385 0.122-1.205 0.594-1.008 0.253l0.553-0.472c0.346-0.288-0.573 0.009-0.82 0.236-0.257 0.227-0.306 0.297-0.603 0.437-0.504 0.035 0.217-0.419 0.474-0.664 0.543-0.402-0.672 0.026-1.077 0.349-0.178 0.14-0.415 0.437-0.504 0.367-0.237-0.183 0.109-0.271 0.287-0.489l-1.591 0.97c-1.136 0.664-2.401 1.512-3.636 2.054-0.889 0.385-4.595 1.704-4.802 0.193z"></path>
</svg>
