<!-- Generated by IcoMoon.io -->
<svg version="1.1" xmlns="http://www.w3.org/2000/svg" width="32" height="32" viewBox="0 0 32 32">
<title>tel</title>
<path d="M24.243 31.258c-12.962-0.017-23.465-10.52-23.482-23.48v-0.002c0-3.874 3.141-7.015 7.015-7.015v0c0.393-0.002 0.787 0.034 1.173 0.108 0.375 0.055 0.743 0.146 1.098 0.274 0.507 0.181 0.884 0.608 0.991 1.134l0.002 0.010 2.088 9.148c0.024 0.101 0.038 0.217 0.038 0.337 0 0.415-0.165 0.79-0.434 1.065l0-0c-0.199 0.215-0.215 0.229-2.090 1.205 1.533 3.308 4.125 5.91 7.334 7.417l0.092 0.039c0.99-1.891 1.006-1.905 1.219-2.104 0.275-0.268 0.651-0.434 1.066-0.434 0.12 0 0.237 0.014 0.349 0.040l-0.010-0.002 9.148 2.088c0.516 0.123 0.924 0.495 1.095 0.98l0.003 0.011c0.241 0.657 0.38 1.416 0.38 2.208 0 0.023-0 0.046-0 0.069l0-0.003c-0.060 3.828-3.177 6.907-7.014 6.907-0.021 0-0.042-0-0.064-0l0.003 0zM7.776 3.813c-2.185 0.009-3.954 1.778-3.964 3.963v0.001c0.009 11.28 9.151 20.422 20.43 20.431h0.001c2.185-0.009 3.954-1.778 3.964-3.963v-0.504l-7.074-1.631-0.441 0.837c-0.686 1.327-1.189 2.287-2.47 1.77-5.129-1.873-9.096-5.855-10.909-10.868l-0.040-0.126c-0.549-1.189 0.487-1.738 1.8-2.424l0.837-0.412-1.631-7.074h-0.503z"></path>
</svg>
