<!-- Generated by IcoMoon.io -->
<svg version="1.1" xmlns="http://www.w3.org/2000/svg" width="32" height="32" viewBox="0 0 32 32">
<title>vscode</title>
<path d="M0.765 11.477s-0.765-0.551 0.153-1.288l2.139-1.913s0.612-0.644 1.259-0.083l19.737 14.943v7.166s-0.010 1.125-1.454 1.001z"></path>
<path d="M5.852 16.096l-5.087 4.625s-0.523 0.389 0 1.084l2.362 2.148s0.561 0.602 1.39-0.083l5.393-4.090z"></path>
<path d="M14.784 16.134l9.33-7.124-0.061-7.127s-0.398-1.556-1.728-0.746l-12.416 11.3z"></path>
<path d="M22.6 31.313c0.542 0.555 1.199 0.373 1.199 0.373l7.271-3.583c0.931-0.634 0.8-1.422 0.8-1.422v-21.395c0-0.94-0.963-1.265-0.963-1.265l-6.302-3.038c-1.377-0.851-2.279 0.153-2.279 0.153s1.16-0.835 1.728 0.746v28.29c0 0.194-0.041 0.386-0.124 0.558-0.166 0.335-0.526 0.647-1.39 0.516z"></path>
</svg>
